<svg width="55" height="55" viewBox="0 0 55 55" fill="none" xmlns="http://www.w3.org/2000/svg">
<path fill-rule="evenodd" clip-rule="evenodd" d="M22.1982 3.62212C22.6642 6.81465 21.5166 5.91873 19.2077 6.8025C18.3163 7.14366 17.2213 7.77672 16.4753 7.96708C15.4939 6.75888 13.6116 5.10488 12.907 3.89336C11.0994 4.17488 6.40571 8.74739 5.05931 10.9334C5.47429 11.7507 6.24234 12.2851 6.91657 13.0346C7.52697 13.713 8.19848 14.4594 8.8338 15.0898C8.54215 15.8781 7.97899 16.6724 7.51357 17.6046C7.07176 18.4894 6.88636 19.5299 6.415 20.3983L2.21749 20.2461C2.17216 20.2282 2.11038 20.151 2.08131 20.1928L1.502 20.0728C1.20704 20.0474 0.940346 20.0642 0.6488 20.0713C0.609416 20.4605 0.508368 20.8487 0.450191 21.3573C0.37814 22.6918 0.059176 24.0208 0.00760591 25.464C-0.0456526 26.9524 0.20093 28.5865 0.12451 29.8954L0.19524 30.642C0.573115 30.7618 2.35744 30.985 2.88144 30.8818L5.96449 30.9464L6.74149 33.7187C4.99614 33.8809 3.35357 33.5155 3.36935 36.8907L3.37115 49.648C3.37115 51.7071 3.13099 53.8418 5.2098 54.2071C6.29413 54.3977 45.2427 54.2479 49.5428 54.2482C56.1787 54.2487 54.9013 54.8487 54.9013 40.4514C54.9013 35.1301 55.9575 33.0006 48.8057 33.7907C47.996 35.3501 48.3733 35.5073 46.7287 36.2814C43.805 37.6576 35.725 37.6599 32.7177 36.3163C31.9295 35.9642 32.059 35.7229 31.5391 35.4131C30.3291 37.8371 27.6461 37.1368 24.5912 36.9079C23.2314 36.8061 21.9745 36.6792 20.8791 36.065C19.2037 35.1256 19.7914 35.2862 18.7345 33.7561L14.5026 33.7175C12.8133 30.5291 12.0154 27.2191 13.0815 23.0521C14.2909 18.3251 17.909 14.5754 22.5945 13.1832C26.2481 12.0977 29.8199 12.5846 33.1033 14.2743C35.2066 15.3565 35.3278 15.8591 36.7183 17.0014C38.2913 15.8272 44.6421 9.45184 45.9526 8.65952C45.7399 7.80619 44.7952 7.12272 44.1275 6.59157C43.3863 6.00176 43.0125 5.52516 42.1724 5.08298L37.8975 8.81941C35.7671 7.36146 33.4695 6.82869 32.6777 6.33395L32.9232 0.798517C31.1681 -0.401408 24.5092 0.141823 23.125 0.0481947C22.9432 0.033384 23.0625 -0.0765697 22.7331 0.0956184C22.3658 0.287603 22.664 0.031094 22.496 0.331888C22.215 0.427954 22.3275 0.496763 22.2965 0.981453C22.2775 1.27874 22.2811 1.57931 22.2579 1.88524C22.2101 2.51552 22.0804 3.02064 22.1983 3.62219L22.1982 3.62212Z" fill="#502C54"/>
<path fill-rule="evenodd" clip-rule="evenodd" d="M34.6133 28.1604C35.4503 28.5659 35.7658 29.0745 37.1082 29.3685C39.1796 29.8223 43.0479 29.4508 44.4262 29.7303C45.71 29.9907 45.6371 31.3164 45.0029 32.1345C43.8419 32.3582 36.2772 31.6953 34.7015 31.492L34.6133 28.1605V28.1604ZM23.9276 28.9328C24.8773 28.7376 28.1718 29.0406 29.3431 29.1051C31.39 29.2178 33.0945 28.9059 32.0474 31.5821C31.3172 31.763 24.3046 31.5806 23.8195 31.1733C23.1466 30.6083 23.6178 29.3963 23.9276 28.9328ZM46.2655 9.4158C46.2968 9.64228 46.3362 9.58175 46.0989 9.54504C46.1198 9.76221 46.1611 9.70363 45.9329 9.67505C45.9483 9.88735 45.9909 9.83013 45.7678 9.8062C45.7758 10.01 45.818 9.95235 45.6003 9.93421L45.4329 10.0627L45.2674 10.1915L45.0998 10.3205L44.9289 10.4446L44.7605 10.5714C44.5702 10.8246 44.5365 10.8119 44.3191 11.1668C44.3365 11.3782 44.3772 11.319 44.1522 11.2959C44.1603 11.501 44.2043 11.4461 43.9895 11.4273L43.8224 11.5568L43.6531 11.6821L43.4802 11.8048L43.3103 11.9315L43.1483 12.1084C42.7656 12.5104 42.4169 12.7636 41.9894 13.126L36.1697 18.5386C35.1921 19.4167 34.6442 19.5914 34.1198 21.0774C33.3642 20.4949 33.3286 18.8851 30.6284 18.4128C29.2742 18.176 22.7256 18.5372 20.4881 18.6442C19.7035 18.6817 19.678 18.591 19.6418 19.3695C19.5561 21.2093 19.4806 23.6659 19.5484 25.4874C22.1094 25.3789 24.6943 25.2384 27.2633 25.0816C30.0354 24.9126 32.4887 24.1862 32.2307 27.6598C31.7716 27.4522 31.8385 26.9175 30.9032 26.5681C30.0775 26.2595 24.862 26.0919 23.8948 26.0869C20.5731 26.0696 18.5117 27.5834 18.4762 30.8084C18.4401 34.0895 20.3654 35.5815 23.4695 35.9619C26.5374 36.3379 30.4466 36.9887 31.5781 34.5617C34.6597 37.2049 38.8676 36.2138 42.7628 36.1055C45.6543 36.0251 48.0331 35.613 48.7071 33.0713C51.2675 23.4163 39.063 28.4345 37.9615 26.6565C37.7072 25.6433 37.8514 25.2771 38.3367 24.7555C40.1017 24.3537 45.4064 25.2979 47.663 25.2745L46.7199 10.3128L46.4168 9.27316C46.4566 9.51113 46.5035 9.4599 46.2654 9.4158H46.2655Z" fill="#A53691"/>
<path fill-rule="evenodd" clip-rule="evenodd" d="M34.7015 31.492C36.2772 31.6953 43.8419 32.3581 45.0029 32.1344C45.6371 31.3164 45.71 29.9907 44.4262 29.7303C43.0479 29.4508 39.1796 29.8223 37.1082 29.3685C35.7658 29.0744 35.4503 28.5659 34.6133 28.1604L34.7015 31.4919V31.492Z" fill="white"/>
<path fill-rule="evenodd" clip-rule="evenodd" d="M23.9276 28.9328C23.6178 29.3963 23.1466 30.6083 23.8195 31.1733C24.3046 31.5806 31.3173 31.7631 32.0474 31.5821C33.0945 28.9059 31.3901 29.2178 29.3431 29.1051C28.1718 29.0406 24.8774 28.7376 23.9276 28.9328Z" fill="white"/>
<path fill-rule="evenodd" clip-rule="evenodd" d="M46.2654 9.41577C46.0334 9.37281 46.0782 9.31748 46.0988 9.545C45.8721 9.50755 45.9178 9.45318 45.9329 9.67501C45.7134 9.64583 45.76 9.59253 45.7678 9.80616C45.553 9.78212 45.5993 9.72834 45.6002 9.93418L45.4329 10.0627L45.2674 10.1915L45.0998 10.3205L44.9289 10.4446C44.7127 10.4256 44.7559 10.3688 44.7604 10.5714C44.5322 10.8893 44.4818 10.9179 44.3191 11.1667C44.0977 11.1342 44.1442 11.0805 44.1522 11.2959C43.9391 11.2722 43.986 11.2201 43.9895 11.4272L43.8223 11.5567L43.6531 11.6821L43.4802 11.8048L43.3103 11.9315C43.0829 11.9122 43.1482 11.8651 43.1482 12.1084L43.3103 11.9315L43.4802 11.8048L43.6531 11.6821L43.8223 11.5567L43.9895 11.4272C44.2042 11.446 44.1602 11.501 44.1522 11.2959C44.3772 11.319 44.3365 11.3782 44.3191 11.1667C44.5364 10.8118 44.5701 10.8246 44.7604 10.5714L44.9289 10.4446L45.0998 10.3205L45.2674 10.1915L45.4329 10.0627L45.6002 9.93418C45.8179 9.95231 45.7757 10.0099 45.7678 9.80616C45.9909 9.8301 45.9483 9.88731 45.9329 9.67501C46.1611 9.70363 46.1198 9.76217 46.0988 9.545C46.3362 9.58168 46.2968 9.64221 46.2654 9.41577C46.5035 9.45987 46.4566 9.51109 46.4168 9.27313L46.7199 10.3127L46.6668 9.07726C46.136 9.05285 46.5297 9.04295 46.4168 9.27313C46.1879 9.23634 46.236 9.18626 46.2654 9.41577Z" fill="#B3A3B5"/>
<path d="M7.89934 43.6356L10.2127 37.8744H11.09L13.5465 43.6356H12.637L11.9393 41.8896H9.39997L8.74575 43.6356H7.89934ZM9.6343 41.27H11.6894L11.0605 39.6729C10.871 39.1873 10.7279 38.7864 10.6282 38.4699C10.5454 38.8454 10.4345 39.2141 10.2956 39.579L9.6343 41.2701V41.27ZM13.7909 42.3885L14.5237 42.2758C14.5643 42.5562 14.6794 42.7706 14.8676 42.9209C15.0556 43.0697 15.3196 43.1448 15.6564 43.1448C15.9975 43.1448 16.2501 43.0791 16.4159 42.9463C16.5801 42.8149 16.6629 42.6593 16.6629 42.481C16.6629 42.3214 16.5886 42.1954 16.4412 42.1042C16.3372 42.0411 16.0846 41.962 15.6832 41.8641C15.1413 41.734 14.7665 41.6213 14.5559 41.5261C14.3468 41.4296 14.1881 41.2981 14.0801 41.1292C13.972 40.9615 13.9173 40.7751 13.9173 40.5713C13.9173 40.3849 13.9621 40.2132 14.0506 40.055C14.1404 39.8967 14.2612 39.7653 14.4142 39.6608C14.5292 39.5803 14.6866 39.5118 14.8844 39.4555C15.0838 39.3992 15.2957 39.371 15.5231 39.371C15.8656 39.371 16.166 39.4179 16.4243 39.5132C16.684 39.6071 16.8749 39.7358 16.9984 39.8967C17.1206 40.0591 17.2061 40.2749 17.2525 40.5458L16.5281 40.6424C16.4959 40.4251 16.4004 40.2548 16.2433 40.1328C16.0859 40.0107 15.8643 39.9504 15.5764 39.9504C15.2381 39.9504 14.9953 40.004 14.8508 40.1113C14.7061 40.2186 14.6331 40.3446 14.6331 40.4881C14.6331 40.5793 14.6626 40.6625 14.7229 40.7362C14.7833 40.8113 14.8774 40.8743 15.0065 40.9239C15.0809 40.9507 15.2971 41.0111 15.6593 41.105C16.1815 41.2377 16.5464 41.3477 16.7541 41.4322C16.962 41.5166 17.1248 41.6414 17.2427 41.8023C17.362 41.9645 17.421 42.1658 17.421 42.4071C17.421 42.6419 17.3493 42.8631 17.2048 43.0709C17.0602 43.2788 16.8524 43.4398 16.5815 43.5537C16.3092 43.6678 16.0018 43.724 15.6593 43.724C15.0922 43.724 14.6584 43.6114 14.3608 43.3874C14.0632 43.1622 13.8737 42.8295 13.7909 42.3884L13.7909 42.3885ZM18.0022 42.3885L18.7349 42.2758C18.7756 42.5562 18.8907 42.7706 19.0788 42.9209C19.2669 43.0697 19.5308 43.1448 19.8676 43.1448C20.2087 43.1448 20.4614 43.0791 20.6271 42.9463C20.7914 42.8149 20.8741 42.6593 20.8741 42.481C20.8741 42.3214 20.7997 42.1954 20.6525 42.1042C20.5485 42.0411 20.2958 41.962 19.8944 41.8641C19.3525 41.734 18.9777 41.6213 18.7672 41.5261C18.5581 41.4296 18.3994 41.2981 18.2914 41.1292C18.1832 40.9615 18.1285 40.7751 18.1285 40.5713C18.1285 40.3849 18.1734 40.2132 18.2618 40.055C18.3516 39.8967 18.4724 39.7653 18.6254 39.6608C18.7404 39.5803 18.8978 39.5118 19.0956 39.4555C19.2949 39.3992 19.5069 39.371 19.7344 39.371C20.0768 39.371 20.3772 39.4179 20.6355 39.5132C20.8953 39.6071 21.0861 39.7358 21.2097 39.8967C21.3317 40.0591 21.4174 40.2749 21.4637 40.5458L20.7393 40.6424C20.7072 40.4251 20.6116 40.2548 20.4545 40.1328C20.2972 40.0107 20.0755 39.9504 19.7876 39.9504C19.4493 39.9504 19.2065 40.004 19.062 40.1113C18.9173 40.2186 18.8443 40.3446 18.8443 40.4881C18.8443 40.5793 18.8739 40.6625 18.9341 40.7362C18.9945 40.8113 19.0887 40.8743 19.2177 40.9239C19.2922 40.9507 19.5083 41.0111 19.8705 41.105C20.3926 41.2377 20.7577 41.3477 20.9653 41.4322C21.1732 41.5166 21.336 41.6414 21.4539 41.8023C21.5732 41.9645 21.6321 42.1658 21.6321 42.4071C21.6321 42.6419 21.5605 42.8631 21.416 43.0709C21.2715 43.2788 21.0637 43.4398 20.7928 43.5537C20.5204 43.6678 20.213 43.724 19.8705 43.724C19.3034 43.724 18.8696 43.6114 18.572 43.3874C18.2744 43.1622 18.0849 42.8295 18.0022 42.3884V42.3885ZM22.2302 41.5476C22.2302 40.7765 22.4548 40.2052 22.9053 39.8338C23.2802 39.5253 23.7393 39.371 24.2797 39.371C24.8791 39.371 25.3704 39.5588 25.7522 39.9343C26.1326 40.3085 26.3235 40.8275 26.3235 41.4886C26.3235 42.025 26.2393 42.4461 26.0708 42.7533C25.9024 43.0603 25.6567 43.2991 25.3339 43.4694C25.0124 43.6397 24.66 43.7241 24.2797 43.7241C23.6677 43.7241 23.1736 43.5378 22.796 43.1636C22.4184 42.7895 22.2302 42.2503 22.2302 41.5476ZM22.9883 41.549C22.9883 42.0827 23.1104 42.4823 23.3546 42.7465C23.6004 43.012 23.9077 43.1448 24.2797 43.1448C24.6475 43.1448 24.9536 43.012 25.1991 42.7452C25.4433 42.4783 25.5655 42.0719 25.5655 41.5262C25.5655 41.0112 25.4419 40.6209 25.1964 40.3567C24.9506 40.0912 24.6446 39.9584 24.2797 39.9584C23.9077 39.9584 23.6004 40.0899 23.3546 40.3541C23.1104 40.6183 22.9883 41.0166 22.9883 41.549ZM30.0476 42.1068L30.7719 42.2034C30.692 42.6795 30.4898 43.051 30.1628 43.3205C29.8357 43.59 29.4328 43.7241 28.957 43.7241C28.3604 43.7241 27.8802 43.5378 27.5181 43.1649C27.1546 42.7921 26.9736 42.2584 26.9736 41.5637C26.9736 41.1131 27.0521 40.7201 27.2079 40.3822C27.3638 40.0456 27.601 39.7921 27.921 39.6246C28.2397 39.4555 28.5864 39.371 28.9626 39.371C29.4357 39.371 29.8245 39.4851 30.1249 39.7144C30.4266 39.9437 30.6203 40.2696 30.7046 40.6907L29.9887 40.7953C29.92 40.5149 29.7992 40.3044 29.6238 40.1623C29.4497 40.0215 29.2391 39.9505 28.9921 39.9505C28.6187 39.9505 28.3155 40.0778 28.081 40.3326C27.848 40.5887 27.7316 40.9911 27.7316 41.5436C27.7316 42.1042 27.8439 42.5105 28.0684 42.764C28.2944 43.0174 28.5878 43.1448 28.9486 43.1448C29.2405 43.1448 29.4834 43.0603 29.6772 42.89C29.8722 42.721 29.9958 42.4596 30.0477 42.1068H30.0476ZM31.4037 38.6791V37.8744H32.145V38.6791H31.4037ZM31.4037 43.6357V39.4596H32.145V43.6357H31.4037ZM36.1301 43.1127C35.8549 43.3366 35.5896 43.4935 35.3356 43.5861C35.0815 43.6786 34.8092 43.7242 34.5172 43.7242C34.0371 43.7242 33.668 43.6129 33.4097 43.389C33.1514 43.1663 33.0222 42.8807 33.0222 42.5334C33.0222 42.3295 33.0714 42.143 33.1683 41.9741C33.2665 41.8051 33.3942 41.671 33.5514 41.5691C33.71 41.4671 33.8869 41.3894 34.0848 41.3371C34.2309 41.3009 34.4512 41.2661 34.7445 41.2312C35.3426 41.1641 35.7849 41.0823 36.0669 40.9885C36.0697 40.8919 36.0711 40.8301 36.0711 40.8047C36.0711 40.5178 36.0009 40.3153 35.8606 40.1972C35.6711 40.0377 35.3889 39.9585 35.0156 39.9585C34.666 39.9585 34.4078 40.0175 34.2421 40.1342C34.075 40.2508 33.9529 40.4574 33.8728 40.7551L33.1486 40.6585C33.2145 40.3622 33.3227 40.1221 33.4743 39.9398C33.6259 39.7574 33.8448 39.6179 34.1312 39.5187C34.416 39.4208 34.7489 39.3711 35.1251 39.3711C35.4984 39.3711 35.803 39.4127 36.0375 39.4972C36.2705 39.5817 36.4431 39.6863 36.5527 39.8137C36.6621 39.9411 36.7393 40.102 36.7843 40.2964C36.8081 40.4171 36.8208 40.6344 36.8208 40.9469V41.8856C36.8208 42.5413 36.8362 42.9558 36.867 43.1314C36.8965 43.3072 36.9583 43.4748 37.0481 43.6357H36.2732C36.199 43.4869 36.1512 43.3125 36.1301 43.1127V43.1127ZM36.0711 41.5436C35.8017 41.6482 35.3974 41.7368 34.8582 41.8092C34.5522 41.8507 34.3362 41.8977 34.2098 41.9499C34.0834 42.0023 33.9865 42.0787 33.9179 42.1779C33.849 42.2784 33.814 42.3898 33.814 42.5132C33.814 42.6996 33.8884 42.8565 34.0385 42.9812C34.1888 43.1059 34.4078 43.1689 34.6955 43.1689C34.9805 43.1689 35.2345 43.1099 35.4577 42.9907C35.6795 42.8726 35.8437 42.7103 35.9477 42.5051C36.0277 42.3456 36.067 42.1109 36.067 41.8011L36.0711 41.5436ZM39.5678 43.0041L39.6689 43.6289C39.4612 43.6705 39.2745 43.692 39.1117 43.692C38.8435 43.692 38.6359 43.6517 38.487 43.57C38.3396 43.4882 38.2358 43.3822 38.1754 43.2495C38.115 43.1167 38.0855 42.8377 38.0855 42.4127V40.0068H37.5381V39.4597H38.0855V38.427L38.8268 38.0019V39.4597H39.5679V40.0068H38.8268V42.4529C38.8268 42.6554 38.8394 42.7856 38.866 42.8431C38.8914 42.9008 38.9334 42.9464 38.9924 42.9813C39.0514 43.0148 39.1356 43.0322 39.245 43.0322C39.3265 43.0322 39.4346 43.0228 39.5679 43.0041L39.5678 43.0041ZM40.2992 38.6791V37.8744H41.0404V38.6791H40.2992ZM40.2992 43.6357V39.4596H41.0404V43.6357H40.2992ZM41.8924 41.5477C41.8924 40.7765 42.117 40.2053 42.5676 39.8338C42.9424 39.5253 43.4015 39.3711 43.9418 39.3711C44.5412 39.3711 45.0326 39.5589 45.4144 39.9344C45.7948 40.3085 45.9857 40.8275 45.9857 41.4887C45.9857 42.0251 45.9016 42.4462 45.7331 42.7533C45.5647 43.0604 45.3189 43.2991 44.9961 43.4694C44.6746 43.6397 44.3223 43.7242 43.9419 43.7242C43.3298 43.7242 42.8358 43.5378 42.4581 43.1637C42.0806 42.7895 41.8924 42.2504 41.8924 41.5477H41.8924ZM42.6504 41.549C42.6504 42.0827 42.7726 42.4823 43.0169 42.7466C43.2625 43.0121 43.5699 43.1449 43.9419 43.1449C44.3096 43.1449 44.6157 43.0121 44.8614 42.7452C45.1056 42.4784 45.2277 42.072 45.2277 41.5262C45.2277 41.0112 45.1042 40.621 44.8586 40.3568C44.6129 40.0913 44.3069 39.9585 43.9419 39.9585C43.57 39.9585 43.2626 40.0899 43.0169 40.3541C42.7727 40.6183 42.6504 41.0166 42.6504 41.549H42.6504ZM46.8547 43.6357V39.4596H47.52V40.0523C47.84 39.5977 48.3034 39.371 48.9084 39.371C49.1722 39.371 49.4136 39.4166 49.634 39.5065C49.8545 39.5963 50.0201 39.7157 50.1295 39.8619C50.2391 40.008 50.3162 40.1824 50.3598 40.3835C50.3865 40.515 50.4005 40.7443 50.4005 41.0715V43.6357H49.6593V41.0984C49.6593 40.8101 49.6312 40.5942 49.5736 40.452C49.5161 40.3098 49.4136 40.1959 49.2676 40.1101C49.1217 40.0256 48.9489 39.9826 48.7524 39.9826C48.438 39.9826 48.1672 40.0778 47.9383 40.2696C47.7096 40.4601 47.5958 40.8235 47.5958 41.3572V43.6357H46.8546H46.8547ZM8.89536 50.5368C8.89536 49.7657 9.11995 49.1944 9.57043 48.8229C9.94529 48.5144 10.4044 48.3602 10.9447 48.3602C11.5441 48.3602 12.0355 48.548 12.4173 48.9235C12.7977 49.2976 12.9886 49.8166 12.9886 50.4778C12.9886 51.0142 12.9044 51.4353 12.736 51.7424C12.5676 52.0495 12.3218 52.2882 11.999 52.4585C11.6775 52.6288 11.3251 52.7133 10.9447 52.7133C10.3328 52.7133 9.8387 52.5269 9.46109 52.1528C9.08339 51.7786 8.89536 51.2395 8.89536 50.5368ZM9.65338 50.5381C9.65338 51.0718 9.7755 51.4715 10.0197 51.7357C10.2654 52.0012 10.5728 52.134 10.9447 52.134C11.3125 52.134 11.6186 52.0012 11.8643 51.7344C12.1085 51.4675 12.2306 51.0611 12.2306 50.5153C12.2306 50.0003 12.1071 49.6101 11.8614 49.3459C11.6158 49.0804 11.3098 48.9476 10.9448 48.9476C10.5728 48.9476 10.2654 49.0791 10.0198 49.3433C9.77554 49.6074 9.65342 50.0058 9.65342 50.5381H9.65338ZM14.0344 52.6248V48.9959H13.3775V48.4487H14.0344V48.0062C14.0344 47.7259 14.0597 47.5181 14.1116 47.3825C14.1832 47.2001 14.3068 47.0513 14.4865 46.9374C14.6647 46.8233 14.916 46.767 15.2388 46.767C15.448 46.767 15.6782 46.7911 15.9308 46.8381L15.82 47.4577C15.6655 47.4322 15.521 47.4188 15.3834 47.4188C15.1588 47.4188 15.0003 47.4644 14.9061 47.5556C14.8135 47.6467 14.7672 47.8171 14.7672 48.0665V48.4487H15.6179V48.9959H14.7756V52.6248H14.0344ZM18.3691 50.7742L19.1187 50.7097C19.1538 50.9994 19.2366 51.2368 19.3672 51.4231C19.4977 51.6083 19.6998 51.7584 19.9736 51.8738C20.2474 51.9878 20.5562 52.0455 20.8986 52.0455C21.2033 52.0455 21.4713 52.0025 21.7045 51.9153C21.9375 51.8282 22.1101 51.7088 22.2238 51.5573C22.3375 51.4058 22.3951 51.2408 22.3951 51.0638C22.3951 50.8841 22.3404 50.7272 22.2309 50.5917C22.1213 50.4576 21.9402 50.345 21.6875 50.2524C21.5262 50.1934 21.1682 50.0996 20.6137 49.9721C20.0593 49.8448 19.6718 49.7254 19.4499 49.6127C19.1622 49.4679 18.9489 49.2882 18.8085 49.075C18.6667 48.8617 18.5966 48.6217 18.5966 48.3575C18.5966 48.0651 18.6836 47.7929 18.8562 47.5408C19.0289 47.2874 19.2801 47.0956 19.6129 46.9641C19.9441 46.8327 20.3134 46.7669 20.719 46.7669C21.1653 46.7669 21.5598 46.8354 21.9009 46.9735C22.242 47.1103 22.5046 47.3128 22.6885 47.581C22.8724 47.8479 22.9706 48.1509 22.9846 48.4889L22.2182 48.5453C22.1774 48.1818 22.0385 47.9069 21.8012 47.7219C21.5641 47.5354 21.2131 47.4428 20.7499 47.4428C20.267 47.4428 19.9146 47.5273 19.6943 47.6963C19.4738 47.8653 19.363 48.0691 19.363 48.3078C19.363 48.5143 19.4416 48.6846 19.5974 48.8189C19.7518 48.9516 20.1519 49.0897 20.8004 49.2292C21.449 49.37 21.894 49.492 22.1354 49.5967C22.4849 49.7509 22.7446 49.9454 22.9116 50.1827C23.0787 50.4187 23.1615 50.691 23.1615 50.9994C23.1615 51.3065 23.0703 51.5936 22.8863 51.8644C22.7025 52.1352 22.44 52.3458 22.0961 52.496C21.7522 52.6463 21.3661 52.7214 20.9352 52.7214C20.3905 52.7214 19.9344 52.6449 19.5666 52.4934C19.1973 52.3419 18.9095 52.1139 18.7004 51.808C18.4898 51.5036 18.3804 51.159 18.3691 50.7741L18.3691 50.7742ZM27.1369 51.273L27.9034 51.3696C27.784 51.7946 27.5608 52.1259 27.2352 52.3606C26.9094 52.5953 26.4939 52.7133 25.9872 52.7133C25.3499 52.7133 24.8446 52.5256 24.4711 52.1501C24.0977 51.7759 23.9111 51.2489 23.9111 50.5717C23.9111 49.8716 24.0993 49.3272 24.4767 48.9409C24.8543 48.5533 25.3443 48.3602 25.9466 48.3602C26.5291 48.3602 27.0049 48.5493 27.3741 48.9289C27.7433 49.3083 27.9286 49.8421 27.9286 50.53C27.9286 50.5716 27.9273 50.6346 27.9244 50.7178H24.6691C24.6972 51.1751 24.832 51.5264 25.0762 51.7691C25.319 52.0119 25.6237 52.1339 25.9872 52.1339C26.2582 52.1339 26.4898 52.0656 26.6807 51.9287C26.873 51.792 27.0246 51.5734 27.1369 51.273ZM24.7112 50.1385H27.1453C27.1129 49.7871 27.019 49.5242 26.866 49.3485C26.6315 49.0763 26.3256 48.9396 25.9507 48.9396C25.611 48.9396 25.3261 49.0482 25.0944 49.2654C24.8642 49.4827 24.7364 49.7737 24.7112 50.1384V50.1385ZM28.8312 52.6248V48.4487H29.4965V49.0884C29.6663 48.792 29.8236 48.5962 29.9682 48.5023C30.1128 48.4071 30.2714 48.3601 30.4441 48.3601C30.694 48.3601 30.9481 48.4353 31.2063 48.5841L30.9425 49.2372C30.7627 49.1407 30.583 49.0924 30.4034 49.0924C30.2419 49.0924 30.0974 49.1393 29.9697 49.2319C29.8418 49.3244 29.7506 49.4531 29.6959 49.6181C29.6131 49.8689 29.5724 50.1438 29.5724 50.4428V52.6248H28.8312H28.8312ZM32.8389 52.6248L31.1895 48.4487H31.9826L32.9175 50.9498C33.0186 51.2193 33.1125 51.4996 33.1982 51.7906C33.2641 51.5707 33.3554 51.3065 33.4747 50.9967L34.4462 48.4487H35.2069L33.552 52.6248H32.8389ZM35.8556 47.6682V46.8635H36.5968V47.6682H35.8556ZM35.8556 52.6248V48.4487H36.5968V52.6248H35.8556ZM40.5819 51.0959L41.3062 51.1925C41.2263 51.6686 41.0241 52.0401 40.697 52.3096C40.3699 52.5792 39.9671 52.7133 39.4912 52.7133C38.8947 52.7133 38.4145 52.5269 38.0524 52.1541C37.6888 51.7813 37.5078 51.2475 37.5078 50.5528C37.5078 50.1023 37.5864 49.7093 37.7421 49.3713C37.8981 49.0347 38.1352 48.7813 38.4553 48.6137C38.7739 48.4446 39.1206 48.3601 39.4968 48.3601C39.97 48.3601 40.3587 48.4742 40.6591 48.7035C40.9609 48.9328 41.1546 49.2587 41.2388 49.6798L40.523 49.7844C40.4542 49.5041 40.3334 49.2936 40.158 49.1514C39.984 49.0106 39.7734 48.9396 39.5264 48.9396C39.153 48.9396 38.8497 49.067 38.6153 49.3217C38.3823 49.5778 38.2658 49.9802 38.2658 50.5328C38.2658 51.0933 38.3781 51.4997 38.6026 51.7531C38.8286 52.0066 39.1221 52.1339 39.4829 52.1339C39.7748 52.1339 40.0176 52.0494 40.2114 51.8791C40.4064 51.7102 40.5301 51.4487 40.5819 51.0959H40.5819ZM44.9195 51.273L45.686 51.3696C45.5667 51.7946 45.3435 52.1259 45.0178 52.3606C44.6921 52.5953 44.2766 52.7133 43.7698 52.7133C43.1326 52.7133 42.6272 52.5256 42.2538 52.1501C41.8804 51.7759 41.6938 51.2489 41.6938 50.5717C41.6938 49.8716 41.8819 49.3272 42.2594 48.9409C42.637 48.5533 43.1269 48.3602 43.7291 48.3602C44.3117 48.3602 44.7876 48.5493 45.1567 48.9289C45.5259 49.3083 45.7112 49.8421 45.7112 50.53C45.7112 50.5716 45.7098 50.6346 45.7071 50.7178H42.4518C42.4798 51.1751 42.6146 51.5264 42.8588 51.7691C43.1016 52.0119 43.4063 52.1339 43.7699 52.1339C44.0408 52.1339 44.2724 52.0656 44.4634 51.9287C44.6557 51.792 44.8072 51.5734 44.9195 51.273ZM42.4939 50.1385H44.9279C44.8956 49.7871 44.8017 49.5242 44.6486 49.3485C44.4141 49.0763 44.1081 48.9396 43.7334 48.9396C43.3937 48.9396 43.1087 49.0482 42.8771 49.2654C42.6469 49.4827 42.5191 49.7737 42.4939 50.1384V50.1385ZM46.3275 51.3776L47.0603 51.2649C47.101 51.5453 47.216 51.7598 47.4042 51.91C47.5923 52.0588 47.8562 52.1339 48.1931 52.1339C48.5341 52.1339 48.7868 52.0682 48.9525 51.9355C49.1167 51.804 49.1995 51.6484 49.1995 51.4701C49.1995 51.3105 49.1251 51.1845 48.9778 51.0933C48.8738 51.0303 48.6212 50.9511 48.2197 50.8532C47.6779 50.7231 47.3031 50.6105 47.0925 50.5153C46.8834 50.4187 46.7247 50.2873 46.6167 50.1183C46.5085 49.9506 46.4539 49.7643 46.4539 49.5604C46.4539 49.3741 46.4987 49.2024 46.5871 49.0441C46.6769 48.8859 46.7977 48.7544 46.9507 48.6499C47.0659 48.5694 47.2231 48.501 47.4209 48.4446C47.6203 48.3884 47.8323 48.3601 48.0597 48.3601C48.4022 48.3601 48.7027 48.4071 48.9609 48.5023C49.2206 48.5962 49.4114 48.725 49.535 48.8859C49.6571 49.0482 49.7428 49.264 49.7891 49.5349L49.0647 49.6315C49.0325 49.4142 48.937 49.2439 48.7798 49.1219C48.6226 48.9999 48.4008 48.9395 48.113 48.9395C47.7747 48.9395 47.5318 48.9931 47.3873 49.1004C47.2426 49.2077 47.1696 49.3337 47.1696 49.4772C47.1696 49.5684 47.1992 49.6516 47.2594 49.7253C47.3199 49.8004 47.414 49.8634 47.5431 49.913C47.6175 49.9399 47.8337 50.0002 48.1959 50.0941C48.7181 50.2269 49.083 50.3368 49.2908 50.4213C49.4985 50.5058 49.6614 50.6306 49.7792 50.7915C49.8985 50.9537 49.9575 51.1549 49.9575 51.3963C49.9575 51.631 49.8859 51.8522 49.7413 52.0601C49.5968 52.2679 49.389 52.4289 49.1181 52.5428C48.8457 52.6569 48.5384 52.7132 48.1959 52.7132C47.6287 52.7132 47.1949 52.6005 46.8974 52.3765C46.5998 52.1513 46.4103 51.8187 46.3275 51.3775V51.3776Z" fill="#FEFEFE"/>
</svg>
