<svg width="58" height="45" viewBox="0 0 58 45" fill="none" xmlns="http://www.w3.org/2000/svg">
<path d="M29.5347 44.3125C25.4339 44.2763 21.0733 43.8354 16.8758 42.3376C15.5229 41.8544 14.2304 41.2323 13.1312 40.2841C12.0924 39.3963 11.5187 38.3032 11.5791 36.8959C11.8086 31.7261 13.7654 27.3534 17.5884 23.8505C19.2252 22.3466 21.0974 21.2051 23.1751 20.4139C23.4287 20.3173 23.8152 20.3415 24.0568 20.4683C27.8678 22.4553 31.6667 22.4251 35.4897 20.5045C35.7555 20.3717 36.1662 20.2992 36.4259 20.4079C42.846 23.0472 46.6267 27.8124 47.8044 34.6432C47.9132 35.2592 47.9434 35.8873 48.0158 36.5094C48.2091 38.2186 47.5206 39.5292 46.1858 40.5438C44.3619 41.9269 42.242 42.6335 40.0617 43.1711C36.8305 43.9622 33.5088 44.3125 29.5408 44.3125H29.5347Z" fill="white"/>
<path d="M29.7944 20.0333C24.389 20.0756 19.8895 15.6607 19.7687 10.3579C19.6419 4.65657 24.2863 0.018175 29.6374 5.62587e-05C35.1999 -0.0180625 39.6752 4.34251 39.7477 9.90496C39.8201 15.4433 35.3508 19.9911 29.7944 20.0333Z" fill="white"/>
<path d="M11.0113 40.8517C7.88283 40.9544 4.95364 40.8517 2.16939 39.6861C1.85534 39.5532 1.5594 39.3781 1.25742 39.215C0.279006 38.6775 -0.107528 37.8742 0.0253429 36.7509C0.460192 33.0788 2.32642 30.4455 5.69651 28.9175C5.98037 28.7907 6.39106 28.833 6.71116 28.9115C7.5265 29.1108 8.32976 29.3705 9.18134 29.6242C8.98808 30.4697 8.69818 31.3696 8.57739 32.2937C8.40224 33.6707 8.25125 35.0658 8.27541 36.4489C8.29957 37.9588 9.15718 39.1365 10.2322 40.1511C10.4497 40.3565 10.6731 40.5498 11.0113 40.8578V40.8517Z" fill="white"/>
<path d="M47.122 42.2227C47.3877 41.9932 47.5508 41.8483 47.7139 41.7094C49.5861 40.1512 50.1538 38.1158 49.8156 35.7906C49.5801 34.1841 49.2781 32.5836 49.0244 31.0918C49.87 30.8079 50.7759 30.4939 51.6879 30.21C51.8389 30.1617 52.0382 30.1798 52.1892 30.2402C55.4807 31.5206 57.9207 35.0779 57.9993 38.6232C58.0174 39.4385 57.7094 40.0243 57.0631 40.4652C55.9881 41.196 54.7741 41.5886 53.5118 41.7456C51.5973 41.9872 49.6646 42.114 47.738 42.2831C47.581 42.2952 47.424 42.259 47.1159 42.2288L47.122 42.2227Z" fill="white"/>
<path d="M48.6439 19.0792C51.3617 19.1456 53.5299 21.3682 53.5843 24.1283C53.6326 26.7857 51.5792 29.0083 48.8976 29.2076C48.4507 29.2438 48.1608 29.1472 47.9554 28.6882C47.0616 26.6287 45.757 24.841 44.1626 23.2707C43.8364 22.9506 43.7881 22.6788 43.9451 22.2681C44.694 20.3173 46.5724 19.0309 48.6439 19.0792Z" fill="white"/>
<path d="M6.04681 24.0799C6.04681 21.6942 7.85265 19.5502 10.1779 19.1818C12.6783 18.7832 14.9854 20.13 15.8068 22.4432C15.9215 22.7693 15.8551 22.9565 15.6256 23.18C13.9828 24.7926 12.6481 26.6286 11.6878 28.7243C11.5428 29.0384 11.3496 29.1108 11.0355 29.1169C8.33581 29.1471 6.04681 26.846 6.04681 24.0859V24.0799Z" fill="white"/>
</svg>
