<svg width="46" height="50" viewBox="0 0 46 50" fill="none" xmlns="http://www.w3.org/2000/svg">
<path d="M32.5099 40.127C32.9983 39.0223 33.3937 38.0396 33.8589 37.0918C34.4752 35.8416 35.2602 34.6555 35.7835 33.3704C37.1209 30.0968 36.8825 26.8115 35.6963 23.532C35.4404 22.8168 35.3707 22.0319 35.2718 21.2701C34.5624 15.9788 30.4282 11.6643 25.2009 10.7689C18.5896 9.63504 12.4726 13.6355 10.891 20.1421C10.7863 20.5724 10.6526 21.0201 10.6701 21.4562C10.7166 22.8052 10.0363 23.9565 9.7339 25.2125C8.91985 28.5675 9.16988 31.7888 10.8561 34.8706C11.7109 36.4347 12.4319 38.0686 13.2052 39.6735C13.2518 39.7723 13.2634 39.8886 13.3332 40.1503C12.711 39.5979 12.24 39.9468 11.7516 40.1736C10.955 40.5341 10.1526 40.8829 9.36176 41.2435C9.08847 41.3656 8.89659 41.3888 8.65237 41.1388C7.39059 39.8421 6.10556 38.5687 4.81471 37.3011C4.59957 37.0918 4.56468 36.9232 4.6926 36.6499C5.15196 35.6614 5.6055 34.6729 6.01252 33.667C6.09974 33.4576 6.07649 33.132 5.97182 32.9343C5.09381 31.3702 4.37861 29.7421 3.94833 27.9919C3.86692 27.6488 3.68085 27.4802 3.36105 27.3639C2.37837 27.0034 1.40733 26.608 0.424651 26.2475C0.128104 26.1428 -0.00563315 26.0091 0.000181498 25.6718C0.0176254 23.8809 0.0176254 22.09 0.000181498 20.2991C0.000181498 19.9677 0.11066 19.8165 0.407207 19.706C1.40733 19.3397 2.41326 18.9675 3.39012 18.5489C3.61689 18.4559 3.86111 18.1942 3.92507 17.9674C4.39605 16.2288 5.088 14.5949 5.96601 13.0308C6.0823 12.8215 6.08811 12.4726 6.0009 12.2516C5.61131 11.2806 5.18103 10.3212 4.7333 9.37338C4.58794 9.07102 4.59375 8.87913 4.8496 8.62329C6.11719 7.38477 7.36734 6.13462 8.60586 4.86703C8.86751 4.59956 9.08266 4.57048 9.41409 4.72748C10.3444 5.16939 11.2806 5.59386 12.2342 5.97181C12.4784 6.06485 12.8505 6.05903 13.0773 5.93111C14.6298 5.05892 16.2579 4.39604 17.9616 3.9018C18.1942 3.83202 18.4559 3.60525 18.5489 3.3843C18.9617 2.42488 19.3339 1.4422 19.6944 0.45953C19.8107 0.139724 19.9502 -0.00564709 20.3107 0.00016756C22.1016 0.0176115 23.8926 0.0176115 25.6835 0.00016756C26.0149 0.00016756 26.1603 0.122276 26.2707 0.418823C26.6371 1.41894 27.0208 2.41906 27.4337 3.40174C27.5151 3.59944 27.7244 3.83202 27.9221 3.88436C29.6781 4.35534 31.3353 5.0531 32.9169 5.93692C33.1378 6.05903 33.5158 6.07066 33.76 5.97181C34.7311 5.58223 35.6847 5.14614 36.6383 4.70422C36.9348 4.56467 37.1209 4.60537 37.3476 4.83796C38.6036 6.11136 39.8712 7.37896 41.1504 8.63492C41.383 8.86751 41.4121 9.04195 41.2783 9.3385C40.819 10.3212 40.3713 11.3155 39.9584 12.3214C39.877 12.5133 39.8945 12.8215 39.9991 13.0017C40.9004 14.5775 41.5982 16.2347 42.0691 17.9907C42.1331 18.2175 42.3889 18.4675 42.6157 18.5663C43.5635 18.9675 44.5287 19.3281 45.494 19.6769C45.8545 19.8049 46.0057 19.9793 45.9998 20.3863C45.9766 22.1365 45.9766 23.8867 45.9998 25.6369C45.9998 25.9858 45.8894 26.1486 45.5637 26.2649C44.5578 26.6254 43.5577 27.0034 42.575 27.4162C42.3657 27.5034 42.1331 27.7477 42.075 27.9628C41.604 29.7188 40.9004 31.3702 40.0108 32.9518C39.9003 33.1436 39.8945 33.4751 39.9817 33.6844C40.441 34.795 40.9469 35.8882 41.4644 37.0453C40.0573 38.4408 38.6559 39.8363 37.2255 41.2144C37.1209 41.3132 36.8301 41.3074 36.6731 41.2435C35.7951 40.8771 34.9288 40.4817 34.0624 40.098C33.5972 39.8925 33.0874 39.9041 32.5331 40.1329L32.5099 40.127Z" fill="white"/>
<path d="M29.9979 44.4997H15.9439C15.8218 43.5345 15.7287 42.5751 15.5834 41.6215C15.2229 39.2491 14.3216 37.0744 13.0773 35.0277C12.2341 33.6438 11.5422 32.2134 11.2805 30.5795C10.3211 24.5729 14.0192 18.8281 19.9153 17.2232C26.6894 15.38 33.603 19.8863 34.6729 26.8348C35.0857 29.5212 34.6845 32.0564 33.2541 34.3997C31.9981 36.4464 30.9224 38.5688 30.5038 40.9644C30.3002 42.1273 30.1665 43.3019 29.9979 44.4997ZM31.2131 29.2305C31.2306 24.6892 27.5499 20.9795 23.0087 20.9562C18.4791 20.9388 14.781 24.6194 14.7519 29.1781C14.7286 33.731 18.3919 37.4175 22.9564 37.4233C27.5267 37.4349 31.1899 33.795 31.2131 29.2246V29.2305Z" fill="white"/>
<path d="M30.1316 46.4359C30.056 47.0348 30.0677 47.6163 29.8932 48.128C29.6141 48.9479 28.9512 49.3374 28.0849 49.3433C26.7998 49.3549 25.5148 49.3433 24.2297 49.3433C22.2818 49.3433 20.3339 49.2793 18.3918 49.3607C16.3044 49.4479 15.6531 48.064 15.9439 46.4243H30.1316V46.4359Z" fill="white"/>
<path d="M23.9274 24.3113C24.9101 24.6137 25.6834 25.1545 26.1486 26.079C26.4626 26.7012 26.3695 27.2186 25.8869 27.5036C25.381 27.8001 24.8635 27.6082 24.4972 26.9861C24.003 26.1488 23.0319 25.8173 22.2004 26.3057C21.9155 26.4744 21.619 26.8814 21.6132 27.1838C21.6015 27.4454 21.9446 27.8408 22.2237 27.9629C22.7645 28.1955 23.375 28.2711 23.9565 28.4339C24.9624 28.7072 25.8404 29.1724 26.3114 30.1725C27.0382 31.7308 26.3114 33.3008 24.567 33.9171C24.1949 34.0509 23.8983 34.1265 23.8751 34.6556C23.8518 35.1208 23.4273 35.3824 22.9447 35.3592C22.4679 35.3359 22.1074 35.0568 22.0783 34.5742C22.0609 34.1846 21.9039 34.0625 21.5725 33.9462C20.4967 33.5682 19.7583 32.8414 19.4559 31.725C19.3222 31.2249 19.5431 30.7423 19.9792 30.5679C20.456 30.376 20.9619 30.5853 21.2061 31.0621C21.7992 32.2483 22.7703 32.6495 23.9739 32.1262C24.2646 31.9983 24.631 31.632 24.6251 31.3761C24.6251 31.0738 24.3228 30.6551 24.0379 30.4981C23.6134 30.2597 23.0843 30.2016 22.6016 30.062C22.2295 29.9573 21.8457 29.8701 21.4911 29.7248C20.3921 29.2712 19.7118 28.4979 19.6827 27.2594C19.6536 25.986 20.2932 25.1254 21.398 24.5904C21.7702 24.4102 22.0958 24.3288 22.0958 23.7706C22.0958 23.3403 22.4912 23.0728 22.9622 23.067C23.4564 23.0612 23.7646 23.3287 23.8925 23.788C23.9332 23.9334 23.9158 24.0962 23.9274 24.3171V24.3113Z" fill="white"/>
</svg>
