<svg width="168" height="168" viewBox="0 0 168 168" fill="none" xmlns="http://www.w3.org/2000/svg">
<circle cx="83.9089" cy="83.9087" r="61.5" fill="white" stroke="#A53691"/>
<path d="M67.35 143.657C57.4409 140.911 48.3704 135.743 40.9552 128.619C33.5401 121.495 28.0132 112.639 24.8723 102.848C21.7313 93.0564 21.0749 82.6377 22.9622 72.5297C24.8494 62.4218 29.221 52.9419 35.6834 44.9437L38.5489 47.2589C32.4705 54.7819 28.3586 63.6985 26.5835 73.2059C24.8084 82.7133 25.4258 92.5129 28.3801 101.722C31.3344 110.932 36.5329 119.262 43.5074 125.962C50.482 132.663 59.0135 137.524 68.3339 140.107L67.35 143.657Z" fill="#502D52"/>
<path d="M73.3963 110.057H75.9902V109.342C75.9902 100.548 75.9902 91.7665 75.9902 82.9722C75.9902 81.6743 76.4137 81.2505 77.7238 81.2505C81.8 81.2505 85.8761 81.2505 89.9389 81.2505C91.2888 81.2505 91.7123 81.661 91.7123 82.9987C91.7123 91.7665 91.7123 100.534 91.7123 109.302V110.057H94.3062V109.289C94.3062 97.9384 94.3062 86.588 94.3062 75.2375C94.3062 73.7806 94.7164 73.3833 96.1722 73.3833C100.209 73.3833 104.232 73.3833 108.268 73.3833C109.645 73.3833 110.055 73.7939 110.055 75.1845C110.055 86.535 110.055 97.8854 110.055 109.236V110.097C110.505 110.097 110.889 110.097 111.272 110.097C112.093 110.123 112.675 110.68 112.688 111.421C112.688 112.15 112.106 112.719 111.286 112.759C111.127 112.759 110.955 112.759 110.796 112.759C92.824 112.759 74.8521 112.759 56.8669 112.759C56.6816 112.759 56.4963 112.759 56.3111 112.759C55.5435 112.693 54.9744 112.097 55.0009 111.395C55.0141 110.706 55.57 110.15 56.3111 110.097C56.7213 110.07 57.1316 110.097 57.6212 110.097V109.276C57.6212 103.329 57.6212 97.3954 57.6212 91.4487C57.6212 91.2632 57.6212 91.0778 57.6212 90.8924C57.6212 89.5415 58.0447 89.1176 59.3814 89.1176C62.9016 89.1176 66.4219 89.1176 69.9422 89.1176C70.551 89.1176 71.173 89.1176 71.7817 89.1176C72.9066 89.1309 73.3831 89.6209 73.3831 90.7467C73.3831 96.9186 73.3831 103.077 73.3831 109.249V110.057H73.3963ZM107.421 76.0454H97.0192V110.044H107.421V76.0454ZM89.039 110.057V83.9126H78.6635V110.057H89.039ZM70.6833 110.057V91.7798H60.3078V110.057H70.6833Z" fill="#A53691"/>
<path d="M107.884 57.6754C107.064 57.6754 106.415 57.6754 105.767 57.6754C104.232 57.6754 102.697 57.6754 101.161 57.6754C100.182 57.6754 99.5865 57.1588 99.5865 56.3377C99.5865 55.5165 100.182 55.0132 101.161 55C104.483 55 107.792 55 111.113 55C112.318 55 112.887 55.702 112.596 56.8675C111.762 60.2448 110.915 63.6089 110.081 66.9729C109.936 67.5557 109.618 67.9795 109.009 68.112C108.467 68.2179 107.937 68.059 107.699 67.5557C107.527 67.1981 107.461 66.7213 107.54 66.3372C107.95 64.5227 108.427 62.7215 108.864 60.9202C108.917 60.7216 108.956 60.5229 109.022 60.2051C108.096 60.9732 107.276 61.6619 106.442 62.3242C94.5708 71.8866 81.2308 78.4823 66.4086 81.9921C63.2589 82.7338 60.043 83.2371 56.8536 83.8198C55.8743 84.0052 55.1729 83.5549 55.0405 82.7338C54.9082 81.9656 55.5037 81.3166 56.4963 81.1842C61.115 80.5749 65.6675 79.5949 70.1539 78.3101C80.3441 75.3699 89.833 70.9065 98.5807 64.9068C101.77 62.7215 104.827 60.3507 107.898 57.6621L107.884 57.6754Z" fill="#A53691"/>
</svg>
