<svg width="87" height="86" viewBox="0 0 87 86" fill="none" xmlns="http://www.w3.org/2000/svg">
<path fill-rule="evenodd" clip-rule="evenodd" d="M34.8703 5.68984C35.6023 10.7049 33.7995 9.29751 30.1726 10.6858C28.7724 11.2217 27.0523 12.2161 25.8804 12.5152C24.3388 10.6173 21.3819 8.01907 20.2751 6.11593C17.4357 6.55815 10.0625 13.7409 7.94748 17.1749C8.59936 18.4588 9.80585 19.2982 10.865 20.4755C11.8238 21.5413 12.8787 22.7138 13.8767 23.7041C13.4185 24.9422 12.5339 26.19 11.8028 27.6544C11.1088 29.0442 10.8175 30.6788 10.0771 32.043L3.48336 31.8038C3.41216 31.7756 3.31512 31.6544 3.26945 31.7201L2.35944 31.5317C1.8961 31.4916 1.47715 31.5181 1.01918 31.5293C0.957309 32.1406 0.798576 32.7505 0.707188 33.5494C0.594005 35.6457 0.0929573 37.7334 0.0119478 40.0004C-0.0717139 42.3384 0.315633 44.9055 0.195589 46.9616L0.306696 48.1343C0.900285 48.3225 3.70321 48.6732 4.52634 48.5111L9.36938 48.6126L10.5899 52.9675C7.84825 53.2222 5.26799 52.6481 5.29279 57.9502L5.29561 77.9902C5.29561 81.2247 4.91836 84.5779 8.18388 85.1518C9.88721 85.4513 71.07 85.216 77.8248 85.2164C88.249 85.2172 86.2423 86.1596 86.2423 63.5436C86.2423 55.1845 87.9014 51.8394 76.6671 53.0804C75.395 55.5301 75.9877 55.777 73.4044 56.993C68.8116 59.1548 56.119 59.1584 51.395 57.0479C50.1568 56.4949 50.3602 56.1158 49.5436 55.6291C47.6428 59.4368 43.4282 58.3367 38.6294 57.9772C36.4933 57.8172 34.5189 57.6179 32.7981 56.6531C30.1664 55.1775 31.0896 55.4297 29.4294 53.0261L22.7815 52.9655C20.128 47.957 18.8746 42.7574 20.5493 36.2117C22.449 28.7863 28.1325 22.896 35.4929 20.7091C41.2322 19.0038 46.843 19.7687 52.0007 22.4229C55.3047 24.1229 55.4952 24.9125 57.6793 26.7068C60.1504 24.8623 70.1265 14.8475 72.1851 13.6029C71.851 12.2624 70.367 11.1888 69.3183 10.3544C68.1538 9.42794 67.5667 8.67926 66.2469 7.98466L59.5317 13.8541C56.1852 11.5638 52.5759 10.7269 51.3321 9.94976L51.7178 1.25436C48.9607 -0.630556 38.5006 0.222785 36.3261 0.0757072C36.0405 0.0524416 36.228 -0.12028 35.7106 0.150203C35.1336 0.451785 35.6019 0.0488444 35.338 0.52135C34.8967 0.672257 35.0734 0.780346 35.0247 1.54173C34.9949 2.00872 35.0006 2.48088 34.9641 2.96145C34.889 3.95154 34.6853 4.74501 34.8704 5.68996L34.8703 5.68984Z" fill="white"/>
<path fill-rule="evenodd" clip-rule="evenodd" d="M54.3726 44.2366C55.6875 44.8736 56.183 45.6725 58.2918 46.1344C61.5456 46.8473 67.6223 46.2637 69.7874 46.7027C71.8041 47.1118 71.6896 49.1942 70.6933 50.4793C68.8695 50.8307 56.9864 49.7895 54.5112 49.4701L54.3726 44.2367V44.2366ZM37.587 45.4499C39.0789 45.1433 44.2539 45.6192 46.0939 45.7206C49.3094 45.8977 51.9869 45.4077 50.342 49.6116C49.195 49.8959 38.1792 49.6092 37.4171 48.9694C36.36 48.0819 37.1003 46.178 37.587 45.4499ZM72.6766 14.7915C72.7259 15.1472 72.7877 15.0521 72.4149 14.9945C72.4478 15.3356 72.5127 15.2436 72.1543 15.1987C72.1784 15.5322 72.2454 15.4423 71.8949 15.4047C71.9074 15.7248 71.9737 15.6343 71.6317 15.6058L71.3688 15.8077L71.1089 16.01L70.8455 16.2127L70.5771 16.4076L70.3125 16.6068C70.0135 17.0045 69.9606 16.9845 69.6192 17.542C69.6465 17.8741 69.7104 17.7811 69.357 17.7448C69.3697 18.067 69.4388 17.9807 69.1014 17.9512L68.8389 18.1546L68.573 18.3515L68.3014 18.5443L68.0345 18.7433L67.7799 19.0211C67.1788 19.6526 66.631 20.0505 65.9595 20.6197L56.8176 29.1221C55.282 30.5015 54.4212 30.7759 53.5975 33.1102C52.4105 32.1952 52.3546 29.6664 48.1129 28.9245C45.9858 28.5525 35.6988 29.1199 32.1839 29.288C30.9514 29.3469 30.9114 29.2044 30.8546 30.4274C30.7199 33.3174 30.6013 37.1763 30.7078 40.0378C34.7307 39.8673 38.7914 39.6465 42.8269 39.4003C47.1814 39.1347 51.0353 37.9937 50.6299 43.4503C49.9088 43.1241 50.0138 42.2843 48.5446 41.7353C47.2475 41.2505 39.0548 40.9874 37.5355 40.9794C32.3175 40.9523 29.0793 43.3302 29.0235 48.3963C28.9668 53.5505 31.9912 55.8941 36.8674 56.4917C41.6866 57.0823 47.8274 58.1047 49.6048 54.2921C54.4456 58.4442 61.0556 56.8874 67.1744 56.7173C71.7166 56.591 75.4533 55.9437 76.5121 51.951C80.5342 36.7842 61.3625 44.6673 59.6322 41.8742C59.2328 40.2827 59.4593 39.7073 60.2216 38.888C62.9942 38.2568 71.3272 39.74 74.872 39.7033L73.3904 16.2004L72.9144 14.5674C72.9768 14.9412 73.0505 14.8607 72.6765 14.7915H72.6766Z" fill="white"/>
<path fill-rule="evenodd" clip-rule="evenodd" d="M72.6766 14.7911C72.3121 14.7236 72.3825 14.6367 72.4149 14.9941C72.0587 14.9353 72.1305 14.8499 72.1542 15.1983C71.8094 15.1525 71.8827 15.0688 71.8949 15.4043C71.5575 15.3666 71.6302 15.2821 71.6317 15.6054L71.3687 15.8073L71.1088 16.0096L70.8455 16.2123L70.5771 16.4073C70.2375 16.3774 70.3053 16.2881 70.3124 16.6064C69.954 17.1058 69.8748 17.1507 69.6192 17.5416C69.2714 17.4905 69.3444 17.4062 69.357 17.7445C69.0223 17.7073 69.0959 17.6255 69.1014 17.9508L68.8388 18.1543L68.573 18.3512L68.3013 18.5439L68.0344 18.7429C67.6774 18.7126 67.7799 18.6387 67.7799 19.0208L68.0344 18.7429L68.3013 18.5439L68.573 18.3512L68.8388 18.1543L69.1014 17.9508C69.4388 17.9803 69.3696 18.0666 69.357 17.7445C69.7104 17.7807 69.6464 17.8737 69.6192 17.5416C69.9606 16.9841 70.0135 17.0042 70.3124 16.6064L70.5771 16.4073L70.8455 16.2123L71.1088 16.0096L71.3687 15.8073L71.6317 15.6054C71.9736 15.6339 71.9073 15.7244 71.8949 15.4043C72.2453 15.4419 72.1784 15.5318 72.1542 15.1983C72.5127 15.2433 72.4478 15.3352 72.4149 14.9941C72.7877 15.0517 72.7258 15.1468 72.6766 14.7911C73.0506 14.8604 72.9769 14.9408 72.9144 14.567L73.3905 16.2001L73.3071 14.2593C72.4734 14.221 73.0917 14.2054 72.9144 14.567C72.5548 14.5092 72.6304 14.4306 72.6766 14.7911Z" fill="#B3A3B5"/>
<path d="M12.4088 68.5452L16.0427 59.4951H17.421L21.2798 68.5452H19.851L18.7551 65.8024H14.7661L13.7384 68.5452H12.4088ZM15.1342 64.8292H18.3625L17.3746 62.3203C17.0769 61.5576 16.8521 60.9277 16.6955 60.4306C16.5654 61.0204 16.3913 61.5997 16.173 62.1728L15.1342 64.8293V64.8292ZM21.6636 66.5862L22.8148 66.4091C22.8785 66.8495 23.0594 67.1864 23.355 67.4225C23.6503 67.6562 24.065 67.7742 24.594 67.7742C25.1299 67.7742 25.5268 67.671 25.7871 67.4624C26.0452 67.2559 26.1751 67.0116 26.1751 66.7314C26.1751 66.4808 26.0584 66.2828 25.8269 66.1395C25.6636 66.0405 25.2667 65.9162 24.6362 65.7624C23.7849 65.558 23.1962 65.3811 22.8654 65.2315C22.5369 65.0798 22.2877 64.8733 22.118 64.6079C21.9481 64.3446 21.8622 64.0518 21.8622 63.7316C21.8622 63.4388 21.9326 63.1691 22.0715 62.9205C22.2126 62.6719 22.4024 62.4655 22.6427 62.3013C22.8234 62.1748 23.0706 62.0673 23.3814 61.9788C23.6946 61.8904 24.0275 61.8461 24.3847 61.8461C24.9227 61.8461 25.3946 61.9198 25.8003 62.0694C26.2083 62.2169 26.5082 62.4192 26.7022 62.6719C26.8941 62.9269 27.0285 63.2659 27.1013 63.6916L25.9634 63.8432C25.9128 63.502 25.7628 63.2344 25.516 63.0427C25.2688 62.851 24.9206 62.7562 24.4684 62.7562C23.937 62.7562 23.5555 62.8404 23.3286 63.009C23.1013 63.1775 22.9866 63.3755 22.9866 63.6009C22.9866 63.7442 23.033 63.8748 23.1277 63.9906C23.2226 64.1086 23.3704 64.2076 23.5732 64.2855C23.6901 64.3276 24.0297 64.4224 24.5986 64.5699C25.4189 64.7785 25.9922 64.9512 26.3184 65.0839C26.6449 65.2166 26.9007 65.4126 27.0859 65.6654C27.2733 65.9202 27.366 66.2363 27.366 66.6154C27.366 66.9842 27.2534 67.3317 27.0264 67.6582C26.7993 67.9847 26.4729 68.2376 26.0474 68.4166C25.6195 68.5957 25.1366 68.6841 24.5986 68.6841C23.7078 68.6841 23.0263 68.5072 22.5589 68.1553C22.0914 67.8015 21.7936 67.279 21.6637 66.586L21.6636 66.5862ZM28.279 66.5862L29.4299 66.4091C29.4939 66.8495 29.6747 67.1864 29.9702 67.4225C30.2656 67.6562 30.6803 67.7742 31.2093 67.7742C31.7452 67.7742 32.142 67.671 32.4024 67.4624C32.6604 67.2559 32.7904 67.0116 32.7904 66.7314C32.7904 66.4808 32.6735 66.2828 32.4422 66.1395C32.2789 66.0405 31.882 65.9162 31.2515 65.7624C30.4002 65.558 29.8113 65.3811 29.4807 65.2315C29.1522 65.0798 28.9029 64.8733 28.7332 64.6079C28.5634 64.3446 28.4775 64.0518 28.4775 63.7316C28.4775 63.4388 28.5479 63.1691 28.6868 62.9205C28.8279 62.6719 29.0177 62.4655 29.258 62.3013C29.4387 62.1748 29.6859 62.0673 29.9966 61.9788C30.3097 61.8904 30.6428 61.8461 31 61.8461C31.538 61.8461 32.0099 61.9198 32.4156 62.0694C32.8236 62.2169 33.1234 62.4192 33.3175 62.6719C33.5092 62.9269 33.6437 63.2659 33.7166 63.6916L32.5787 63.8432C32.5281 63.502 32.3781 63.2344 32.1313 63.0427C31.8841 62.851 31.5359 62.7562 31.0837 62.7562C30.5522 62.7562 30.1708 62.8404 29.9438 63.009C29.7165 63.1775 29.6019 63.3755 29.6019 63.6009C29.6019 63.7442 29.6483 63.8748 29.7429 63.9906C29.8377 64.1086 29.9857 64.2076 30.1885 64.2855C30.3054 64.3276 30.6449 64.4224 31.2139 64.5699C32.034 64.7785 32.6075 64.9512 32.9337 65.0839C33.2602 65.2166 33.516 65.4126 33.7012 65.6654C33.8886 65.9202 33.9811 66.2363 33.9811 66.6154C33.9811 66.9842 33.8687 67.3317 33.6417 67.6582C33.4146 67.9847 33.0881 68.2376 32.6626 68.4166C32.2348 68.5957 31.7519 68.6841 31.2139 68.6841C30.323 68.6841 29.6416 68.5072 29.1742 68.1553C28.7067 67.8015 28.4089 67.279 28.279 66.586V66.5862ZM34.9207 65.2653C34.9207 64.0539 35.2735 63.1566 35.9811 62.573C36.57 62.0884 37.2911 61.8462 38.1401 61.8462C39.0817 61.8462 39.8535 62.1411 40.4532 62.731C41.0507 63.3187 41.3506 64.134 41.3506 65.1726C41.3506 66.0152 41.2184 66.6767 40.9537 67.1592C40.6892 67.6415 40.3032 68.0165 39.7961 68.284C39.2911 68.5516 38.7375 68.6843 38.1401 68.6843C37.1787 68.6843 36.4025 68.3915 35.8094 67.8038C35.2162 67.216 34.9207 66.3691 34.9207 65.2653ZM36.1114 65.2674C36.1114 66.1057 36.3033 66.7335 36.6869 67.1486C37.073 67.5657 37.5557 67.7742 38.1401 67.7742C38.7178 67.7742 39.1986 67.5657 39.5844 67.1465C39.968 66.7273 40.1598 66.0889 40.1598 65.2316C40.1598 64.4225 39.9658 63.8096 39.58 63.3946C39.194 62.9775 38.7133 62.7689 38.1401 62.7689C37.5557 62.7689 37.073 62.9754 36.6869 63.3904C36.3033 63.8054 36.1114 64.4311 36.1114 65.2674ZM47.2007 66.1437L48.3385 66.2953C48.2129 67.0432 47.8953 67.6268 47.3816 68.0502C46.8678 68.4736 46.2349 68.6843 45.4874 68.6843C44.5504 68.6843 43.796 68.3915 43.2272 67.8059C42.6562 67.2202 42.3718 66.3818 42.3718 65.2905C42.3718 64.5827 42.4952 63.9654 42.7399 63.4345C42.9848 62.9058 43.3573 62.5076 43.8601 62.2444C44.3607 61.9788 44.9053 61.8461 45.4962 61.8461C46.2395 61.8461 46.8501 62.0253 47.3221 62.3855C47.7961 62.7457 48.1003 63.2576 48.2327 63.9191L47.1082 64.0835C47.0002 63.6431 46.8104 63.3124 46.5349 63.0891C46.2615 62.8679 45.9307 62.7564 45.5427 62.7564C44.9561 62.7564 44.4798 62.9564 44.1114 63.3566C43.7454 63.7589 43.5625 64.391 43.5625 65.259C43.5625 66.1395 43.7389 66.7779 44.0916 67.176C44.4466 67.5741 44.9076 67.7742 45.4743 67.7742C45.9329 67.7742 46.3143 67.6415 46.6188 67.374C46.9251 67.1085 47.1193 66.6978 47.2008 66.1437H47.2007ZM49.331 60.7592V59.4952H50.4953V60.7592H49.331ZM49.331 68.5453V61.9853H50.4953V68.5453H49.331ZM56.7555 67.7238C56.3232 68.0755 55.9064 68.3219 55.5074 68.4674C55.1083 68.6128 54.6806 68.6843 54.2218 68.6843C53.4675 68.6843 52.8878 68.5095 52.482 68.1578C52.0763 67.808 51.8734 67.3593 51.8734 66.8137C51.8734 66.4935 51.9506 66.2006 52.1028 65.9351C52.2571 65.6697 52.4577 65.459 52.7047 65.299C52.9538 65.1388 53.2317 65.0167 53.5426 64.9345C53.772 64.8776 54.1181 64.823 54.5789 64.7682C55.5184 64.6628 56.2131 64.5343 56.6562 64.3869C56.6605 64.2353 56.6627 64.1382 56.6627 64.0982C56.6627 63.6475 56.5525 63.3294 56.3321 63.144C56.0344 62.8933 55.5911 62.7689 55.0047 62.7689C54.4555 62.7689 54.0499 62.8617 53.7896 63.045C53.5272 63.2282 53.3353 63.5527 53.2095 64.0203L52.0719 63.8686C52.1755 63.4031 52.3454 63.026 52.5835 62.7396C52.8216 62.4531 53.1655 62.2339 53.6154 62.0781C54.0629 61.9244 54.5857 61.8463 55.1766 61.8463C55.7631 61.8463 56.2416 61.9117 56.61 62.0443C56.976 62.177 57.2471 62.3414 57.4193 62.5415C57.5912 62.7417 57.7124 62.9944 57.783 63.2998C57.8206 63.4894 57.8404 63.8307 57.8404 64.3215V65.7962C57.8404 66.8263 57.8646 67.4773 57.913 67.7532C57.9594 68.0293 58.0564 68.2926 58.1975 68.5454H56.9802C56.8637 68.3116 56.7886 68.0376 56.7555 67.7238V67.7238ZM56.6628 65.259C56.2395 65.4232 55.6044 65.5624 54.7575 65.6761C54.2768 65.7413 53.9374 65.8151 53.7389 65.8972C53.5404 65.9795 53.3881 66.0995 53.2803 66.2554C53.1722 66.4133 53.1172 66.5883 53.1172 66.7821C53.1172 67.0748 53.2341 67.3213 53.4698 67.5173C53.7058 67.7131 54.0499 67.8121 54.5019 67.8121C54.9495 67.8121 55.3486 67.7194 55.6992 67.5321C56.0476 67.3466 56.3055 67.0916 56.4689 66.7693C56.5945 66.5187 56.6563 66.1501 56.6563 65.6634L56.6628 65.259ZM62.1556 67.5531L62.3144 68.5347C61.9881 68.6001 61.6948 68.6338 61.4391 68.6338C61.0179 68.6338 60.6916 68.5705 60.4578 68.4421C60.2262 68.3136 60.0632 68.1472 59.9683 67.9386C59.8735 67.73 59.8272 67.2919 59.8272 66.6241V62.8448H58.9673V61.9853H59.8272V60.3632L60.9915 59.6955V61.9854H62.1557V62.8448H60.9915V66.6874C60.9915 67.0055 61.0114 67.2099 61.0532 67.3003C61.093 67.391 61.159 67.4626 61.2517 67.5174C61.3444 67.5701 61.4767 67.5974 61.6486 67.5974C61.7765 67.5974 61.9463 67.5826 62.1557 67.5532L62.1556 67.5531ZM63.3045 60.7592V59.4952H64.4689V60.7592H63.3045ZM63.3045 68.5453V61.9853H64.4689V68.5453H63.3045ZM65.8072 65.2653C65.8072 64.054 66.1601 63.1566 66.8678 62.5731C67.4566 62.0885 68.1778 61.8462 69.0266 61.8462C69.9682 61.8462 70.7401 62.1412 71.3398 62.7311C71.9374 63.3188 72.2372 64.1341 72.2372 65.1727C72.2372 66.0153 72.105 66.6767 71.8404 67.1592C71.5759 67.6416 71.1898 68.0166 70.6827 68.2841C70.1777 68.5516 69.6242 68.6843 69.0266 68.6843C68.0652 68.6843 67.2892 68.3915 66.6959 67.8038C66.1028 67.2161 65.8072 66.3692 65.8072 65.2653H65.8072ZM66.9979 65.2674C66.9979 66.1058 67.1899 66.7335 67.5736 67.1486C67.9595 67.5657 68.4424 67.7743 69.0266 67.7743C69.6044 67.7743 70.0852 67.5657 70.4711 67.1465C70.8547 66.7273 71.0466 66.089 71.0466 65.2316C71.0466 64.4226 70.8525 63.8096 70.4666 63.3946C70.0807 62.9775 69.6001 62.7689 69.0267 62.7689C68.4424 62.7689 67.9595 62.9754 67.5736 63.3904C67.19 63.8055 66.998 64.4311 66.998 65.2674H66.9979ZM73.6023 68.5453V61.9853H74.6475V62.9164C75.1501 62.2022 75.8779 61.8461 76.8283 61.8461C77.2428 61.8461 77.622 61.9177 77.9682 62.059C78.3146 62.2001 78.5747 62.3875 78.7466 62.6172C78.9187 62.8467 79.0399 63.1207 79.1083 63.4366C79.1503 63.6431 79.1722 64.0033 79.1722 64.5173V68.5453H78.0079V64.5596C78.0079 64.1067 77.9638 63.7675 77.8733 63.5442C77.783 63.3209 77.622 63.1419 77.3926 63.0071C77.1634 62.8744 76.892 62.8068 76.5833 62.8068C76.0894 62.8068 75.664 62.9564 75.3045 63.2577C74.9452 63.5568 74.7665 64.1277 74.7665 64.9661V68.5453H73.6022H73.6023ZM13.9734 79.386C13.9734 78.1747 14.3262 77.2773 15.0339 76.6938C15.6227 76.2092 16.3439 75.9669 17.1926 75.9669C18.1343 75.9669 18.9062 76.2619 19.5059 76.8517C20.1034 77.4395 20.4033 78.2548 20.4033 79.2933C20.4033 80.136 20.2711 80.7974 20.0065 81.2799C19.7419 81.7623 19.3559 82.1373 18.8488 82.4048C18.3438 82.6723 17.7903 82.805 17.1927 82.805C16.2315 82.805 15.4553 82.5122 14.8621 81.9245C14.2688 81.3368 13.9734 80.4899 13.9734 79.386ZM15.1642 79.3881C15.1642 80.2265 15.356 80.8542 15.7397 81.2693C16.1256 81.6864 16.6084 81.895 17.1927 81.895C17.7704 81.895 18.2512 81.6864 18.6371 81.2672C19.0208 80.848 19.2126 80.2096 19.2126 79.3523C19.2126 78.5433 19.0186 77.9303 18.6327 77.5153C18.2468 77.0982 17.7662 76.8896 17.1928 76.8896C16.6085 76.8896 16.1256 77.0961 15.7397 77.5111C15.3561 77.9261 15.1642 78.5518 15.1642 79.3881H15.1642ZM22.0461 82.666V76.9654H21.0143V76.106H22.0461V75.4107C22.0461 74.9705 22.0859 74.644 22.1675 74.4311C22.2799 74.1446 22.474 73.9108 22.7564 73.7318C23.0363 73.5527 23.4311 73.4641 23.9382 73.4641C24.2668 73.4641 24.6283 73.5021 25.0252 73.5758L24.851 74.5492C24.6084 74.5092 24.3814 74.488 24.1653 74.488C23.8125 74.488 23.5634 74.5596 23.4155 74.703C23.2701 74.8461 23.1973 75.1137 23.1973 75.5055V76.106H24.5335V76.9654H23.2105V82.666H22.0461ZM28.8554 79.7589L30.0329 79.6576C30.0881 80.1127 30.218 80.4856 30.4233 80.7783C30.6283 81.0691 30.9457 81.305 31.3759 81.4863C31.8058 81.6653 32.291 81.7559 32.8289 81.7559C33.3075 81.7559 33.7286 81.6884 34.0947 81.5515C34.4608 81.4146 34.7319 81.2271 34.9105 80.9891C35.0892 80.751 35.1797 80.4918 35.1797 80.2139C35.1797 79.9316 35.0937 79.6851 34.9217 79.4722C34.7496 79.2616 34.465 79.0847 34.0682 78.9393C33.8148 78.8465 33.2524 78.6992 32.3813 78.499C31.5105 78.299 30.9018 78.1114 30.5532 77.9344C30.1012 77.7069 29.7662 77.4246 29.5456 77.0897C29.3229 76.7547 29.2127 76.3776 29.2127 75.9626C29.2127 75.5034 29.3494 75.0757 29.6205 74.6797C29.8918 74.2816 30.2865 73.9803 30.8092 73.7738C31.3295 73.5674 31.9096 73.4641 32.5467 73.4641C33.2479 73.4641 33.8676 73.5716 34.4033 73.7886C34.9392 74.0035 35.3516 74.3216 35.6405 74.7429C35.9294 75.1621 36.0837 75.6382 36.1057 76.169L34.9018 76.2576C34.8377 75.6867 34.6194 75.2548 34.2468 74.9642C33.8743 74.6713 33.3229 74.5258 32.5952 74.5258C31.8367 74.5258 31.2832 74.6585 30.937 74.9239C30.5907 75.1894 30.4166 75.5096 30.4166 75.8846C30.4166 76.209 30.5402 76.4765 30.7848 76.6874C31.0274 76.896 31.6559 77.1128 32.6746 77.332C33.6934 77.5531 34.3925 77.7448 34.7717 77.9092C35.3208 78.1515 35.7286 78.4569 35.9911 78.8298C36.2535 79.2005 36.3836 79.6282 36.3836 80.1127C36.3836 80.5952 36.2403 81.046 35.9513 81.4715C35.6626 81.8969 35.2502 82.2278 34.71 82.4637C34.1698 82.6997 33.5633 82.8176 32.8863 82.8176C32.0308 82.8176 31.3142 82.6976 30.7365 82.4595C30.1564 82.2215 29.7043 81.8634 29.3758 81.383C29.045 80.9048 28.8731 80.3633 28.8554 79.7588L28.8554 79.7589ZM42.6283 80.5425L43.8324 80.6942C43.6449 81.3619 43.2943 81.8823 42.7827 82.2509C42.271 82.6197 41.6184 82.8049 40.8223 82.8049C39.8213 82.8049 39.0274 82.5101 38.4408 81.9203C37.8542 81.3325 37.5611 80.5045 37.5611 79.4408C37.5611 78.3411 37.8566 77.4858 38.4496 76.8791C39.0427 76.2702 39.8124 75.9668 40.7585 75.9668C41.6736 75.9668 42.421 76.2639 43.0009 76.8602C43.5809 77.4562 43.872 78.2947 43.872 79.3753C43.872 79.4407 43.8699 79.5397 43.8655 79.6703H38.7518C38.7959 80.3887 39.0076 80.9406 39.3913 81.3219C39.7727 81.7032 40.2513 81.8949 40.8223 81.8949C41.248 81.8949 41.6119 81.7875 41.9117 81.5726C42.2138 81.3577 42.4519 81.0144 42.6283 80.5425ZM38.818 78.7603H42.6416C42.5907 78.2083 42.4431 77.7954 42.2028 77.5194C41.8344 77.0918 41.3539 76.877 40.765 76.877C40.2314 76.877 39.7838 77.0476 39.4199 77.3889C39.0583 77.7301 38.8576 78.1873 38.818 78.7602V78.7603ZM45.2899 82.6659V76.1059H46.335V77.1107C46.6017 76.6451 46.8488 76.3376 47.0759 76.1901C47.303 76.0405 47.5522 75.9668 47.8235 75.9668C48.2161 75.9668 48.6152 76.0848 49.0208 76.3187L48.6064 77.3445C48.3239 77.1929 48.0418 77.1171 47.7596 77.1171C47.5059 77.1171 47.2789 77.1908 47.0783 77.3362C46.8774 77.4815 46.7341 77.6837 46.6482 77.9429C46.5181 78.3369 46.4541 78.7686 46.4541 79.2384V82.6659H45.2898H45.2899ZM51.5855 82.6659L48.9944 76.1059H50.2403L51.7089 80.0347C51.8676 80.4581 52.0153 80.8985 52.1498 81.3556C52.2534 81.0102 52.3968 80.5952 52.5842 80.1085L54.1103 76.1059H55.3053L52.7056 82.6659H51.5855ZM56.3242 74.8798V73.6158H57.4886V74.8798H56.3242ZM56.3242 82.6659V76.1059H57.4886V82.6659H56.3242ZM63.7485 80.2643L64.8863 80.416C64.7608 81.1639 64.4432 81.7475 63.9294 82.1709C63.4156 82.5943 62.7828 82.8049 62.0353 82.8049C61.0982 82.8049 60.3438 82.5122 59.775 81.9265C59.204 81.3409 58.9196 80.5025 58.9196 79.4112C58.9196 78.7034 59.0431 78.0861 59.2877 77.5552C59.5326 77.0264 59.9052 76.6283 60.408 76.3651C60.9085 76.0995 61.4531 75.9668 62.0441 75.9668C62.7873 75.9668 63.398 76.1459 63.8699 76.5062C64.3439 76.8664 64.6482 77.3783 64.7806 78.0398L63.656 78.2042C63.548 77.7637 63.3583 77.4331 63.0828 77.2098C62.8094 76.9885 62.4785 76.877 62.0905 76.877C61.5039 76.877 61.0276 77.0771 60.6593 77.4773C60.2933 77.8796 60.1104 78.5117 60.1104 79.3797C60.1104 80.2602 60.2868 80.8986 60.6395 81.2967C60.9944 81.6948 61.4554 81.8949 62.0221 81.8949C62.4807 81.8949 62.8622 81.7622 63.1666 81.4946C63.4729 81.2292 63.6672 80.8185 63.7486 80.2643H63.7485ZM70.5624 80.5425L71.7665 80.6942C71.579 81.3619 71.2284 81.8823 70.7168 82.2509C70.2051 82.6197 69.5525 82.8049 68.7564 82.8049C67.7554 82.8049 66.9615 82.5101 66.3749 81.9203C65.7883 81.3325 65.4952 80.5045 65.4952 79.4408C65.4952 78.3411 65.7907 77.4858 66.3837 76.8791C66.9768 76.2702 67.7465 75.9668 68.6924 75.9668C69.6075 75.9668 70.3551 76.2639 70.935 76.8602C71.515 77.4562 71.8061 78.2947 71.8061 79.3753C71.8061 79.4407 71.8038 79.5397 71.7996 79.6703H66.6859C66.73 80.3887 66.9417 80.9406 67.3254 81.3219C67.7068 81.7032 68.1853 81.8949 68.7564 81.8949C69.1821 81.8949 69.5458 81.7875 69.8458 81.5726C70.1479 81.3577 70.386 81.0144 70.5624 80.5425ZM66.7521 78.7603H70.5756C70.5249 78.2083 70.3773 77.7954 70.1369 77.5194C69.7685 77.0918 69.2878 76.877 68.6991 76.877C68.1655 76.877 67.7179 77.0476 67.354 77.3889C66.9924 77.7301 66.7917 78.1873 66.7521 78.7602V78.7603ZM72.7741 80.7069L73.9252 80.5298C73.9892 80.9702 74.1699 81.3071 74.4654 81.5431C74.761 81.7769 75.1755 81.8949 75.7047 81.8949C76.2404 81.8949 76.6374 81.7917 76.8976 81.5831C77.1557 81.3766 77.2857 81.1323 77.2857 80.8521C77.2857 80.6014 77.1688 80.4035 76.9374 80.2602C76.774 80.1612 76.3772 80.0369 75.7466 79.883C74.8955 79.6786 74.3067 79.5017 73.9758 79.3522C73.6473 79.2005 73.3981 78.994 73.2284 78.7286C73.0585 78.4652 72.9726 78.1725 72.9726 77.8523C72.9726 77.5595 73.0431 77.2898 73.182 77.0412C73.3231 76.7926 73.5128 76.5861 73.7531 76.4219C73.934 76.2955 74.181 76.188 74.4918 76.0995C74.805 76.0111 75.1379 75.9668 75.4952 75.9668C76.0333 75.9668 76.5052 76.0405 76.9108 76.1901C77.3188 76.3376 77.6186 76.5399 77.8127 76.7926C78.0045 77.0476 78.1391 77.3866 78.2119 77.8122L77.0738 77.9639C77.0233 77.6226 76.8732 77.3551 76.6264 77.1634C76.3794 76.9717 76.031 76.8769 75.579 76.8769C75.0474 76.8769 74.666 76.9611 74.439 77.1296C74.2117 77.2982 74.097 77.4962 74.097 77.7216C74.097 77.8649 74.1434 77.9955 74.2381 78.1113C74.3331 78.2293 74.4808 78.3283 74.6836 78.4062C74.8006 78.4483 75.1401 78.5431 75.7091 78.6906C76.5294 78.8992 77.1026 79.0719 77.429 79.2046C77.7554 79.3373 78.0112 79.5333 78.1963 79.786C78.3837 80.0409 78.4764 80.3569 78.4764 80.7361C78.4764 81.1049 78.3638 81.4524 78.1368 81.7789C77.9098 82.1053 77.5833 82.3582 77.1578 82.5372C76.7299 82.7164 76.2471 82.8048 75.7091 82.8048C74.8182 82.8048 74.1367 82.6279 73.6693 82.276C73.2018 81.9222 72.9042 81.3997 72.7741 80.7067V80.7069Z" fill="#502D52"/>
</svg>
