<svg width="168" height="168" viewBox="0 0 168 168" fill="none" xmlns="http://www.w3.org/2000/svg">
<circle cx="83.9088" cy="83.9087" r="61.5" fill="white" stroke="#A53691"/>
<path d="M67.35 143.657C57.4409 140.911 48.3704 135.743 40.9552 128.619C33.5401 121.495 28.0132 112.639 24.8723 102.848C21.7313 93.0564 21.0749 82.6377 22.9622 72.5297C24.8494 62.4218 29.221 52.9419 35.6834 44.9437L38.5489 47.2589C32.4705 54.7819 28.3586 63.6985 26.5835 73.2059C24.8084 82.7133 25.4258 92.5129 28.3801 101.722C31.3344 110.932 36.5329 119.262 43.5074 125.962C50.482 132.663 59.0135 137.524 68.3339 140.107L67.35 143.657Z" fill="#502D52"/>
<path d="M84.2865 48C84.7894 48.4118 84.9837 48.9381 84.9609 49.5901C84.9266 50.4824 84.9609 51.3747 84.9494 52.2556C84.938 53.1135 84.5151 53.6283 83.8635 53.6283C83.212 53.6283 82.789 53.125 82.7776 52.2556C82.7662 51.3633 82.8005 50.471 82.7662 49.5901C82.7433 48.9381 82.9262 48.4118 83.4406 48H84.2865Z" fill="#A53691"/>
<path d="M90.642 103.379C90.642 102.041 90.642 100.748 90.642 99.4557C90.6077 96.733 91.6936 94.5824 93.9569 93.0609C95.923 91.7339 97.6834 90.2124 99.1122 88.3135C101.055 85.7281 102.244 82.8339 102.759 79.6536C102.793 79.4706 102.827 79.2876 102.884 79.1045C103.056 78.4639 103.513 78.258 104.119 78.3495C104.656 78.4296 105.022 78.9558 104.93 79.5621C104.347 83.6804 102.759 87.3525 100.072 90.5442C98.655 92.2258 96.9746 93.6215 95.1457 94.8341C93.5225 95.9094 92.7796 97.4423 92.7681 99.3642C92.7681 100.588 92.7796 101.812 92.7681 103.036C92.7681 103.414 92.8596 103.631 93.2025 103.814C94.0827 104.306 94.597 105.073 94.6085 106.091C94.6313 107.132 94.8028 108.207 94.197 109.191C94.1284 109.294 94.1512 109.523 94.2198 109.637C94.8485 110.792 94.6771 112.028 94.5285 113.218C94.3913 114.316 93.3625 115.22 92.2423 115.277C91.0535 115.345 89.8533 115.288 88.5502 115.288C88.5502 116.043 88.5502 116.695 88.5502 117.336C88.5387 119.292 87.6014 120.219 85.6467 120.219C84.3779 120.219 83.1091 120.219 81.8403 120.219C80.2514 120.219 79.2455 119.258 79.1884 117.656C79.1655 116.935 79.1884 116.203 79.1884 115.391C78.9026 115.368 78.6511 115.345 78.4111 115.345C77.428 115.322 76.4335 115.357 75.4505 115.277C74.2846 115.185 73.2672 114.19 73.1758 113.035C73.0843 111.879 72.9014 110.689 73.5301 109.591C73.6101 109.443 73.4958 109.168 73.4273 108.962C72.97 107.578 72.89 106.205 73.5073 104.855C73.6787 104.489 73.9988 104.1 74.3531 103.94C74.9475 103.665 75.0047 103.265 74.9933 102.705C74.959 101.572 74.9933 100.451 74.9933 99.3184C74.9933 97.3622 74.2274 95.8293 72.5471 94.7654C70.0323 93.1753 67.9176 91.1505 66.283 88.6681C63.3339 84.2066 62.1108 79.3104 62.8767 73.991C63.8826 67.0242 67.5175 61.8192 73.553 58.2729C75.8163 56.9345 78.2853 56.1337 80.8915 55.7676C81.8517 55.6303 82.3775 55.9278 82.4804 56.6027C82.5833 57.2776 82.1375 57.7238 81.2116 57.8725C76.7879 58.5589 73.0157 60.4922 69.9637 63.7639C67.1975 66.7268 65.46 70.2273 65.0028 74.277C64.134 82.1703 67.0032 88.3935 73.553 92.855C75.9763 94.5023 77.1994 96.6758 77.1308 99.6044C77.0965 100.851 77.1308 102.087 77.1308 103.391H90.6877L90.642 103.379ZM83.8635 108.31C86.184 108.31 88.5159 108.31 90.8363 108.31C91.9337 108.31 92.4785 107.776 92.4709 106.708C92.4709 105.645 92.3795 105.564 91.2935 105.564C86.4812 105.564 81.6574 105.564 76.8451 105.564C75.7706 105.564 75.2371 106.11 75.2447 107.2C75.2447 108.207 75.3476 108.31 76.3878 108.31C78.8797 108.31 81.3716 108.31 83.8635 108.31ZM83.795 113.195H90.8478C91.9451 113.195 92.49 112.642 92.4824 111.536C92.4824 110.552 92.4023 110.472 91.4421 110.472C86.6069 110.472 81.7603 110.472 76.9251 110.472C75.8049 110.472 75.2447 111.036 75.2447 112.165C75.2447 113.092 75.3362 113.195 76.2507 113.195C78.7654 113.195 81.2802 113.195 83.795 113.195ZM81.3145 115.391C81.3145 116.146 81.3145 116.833 81.3145 117.507C81.3145 117.919 81.5088 118.114 81.9089 118.114C83.2234 118.114 84.538 118.137 85.8525 118.091C86.0468 118.091 86.3669 117.748 86.3897 117.542C86.4583 116.844 86.4126 116.146 86.4126 115.391H81.3145Z" fill="#A53691"/>
<path d="M80.48 66.132C80.48 65.1368 80.48 64.1987 80.48 63.2607C80.48 62.0709 81.0402 61.4761 82.229 61.4418C83.3377 61.4074 84.4351 61.4074 85.5439 61.4418C86.6984 61.4761 87.2356 62.0709 87.2471 63.2263C87.2471 64.1873 87.2471 65.1482 87.2471 66.1206L89.1217 66.8985C89.7275 66.2579 90.3562 65.5944 90.9964 64.9423C91.9908 63.947 92.7338 63.947 93.7169 64.9194C94.4484 65.6401 95.1915 66.3722 95.9116 67.1158C96.7575 67.9852 96.7575 68.7631 95.9116 69.6326C95.3515 70.2045 94.8028 70.7765 94.2084 71.3256C93.9226 71.5887 93.9455 71.8061 94.0255 72.1722C94.3113 73.3619 95.0314 73.6822 96.1516 73.522C96.7003 73.442 97.2833 73.4877 97.8434 73.522C98.655 73.5792 99.2037 74.0711 99.2379 74.9177C99.2951 76.1875 99.2951 77.4573 99.2608 78.7271C99.2265 79.7223 98.6321 80.26 97.6262 80.2829C96.8032 80.3058 95.9802 80.3058 95.1572 80.2829C94.7571 80.2714 94.5971 80.4202 94.3799 80.7748C93.7512 81.77 94.0027 82.4564 94.8714 83.1085C95.2943 83.4288 95.6601 83.8521 96.0259 84.2524C96.7003 85.0075 96.7232 85.7968 96.0259 86.5175C95.2029 87.3869 94.357 88.2334 93.4883 89.0571C92.7567 89.7435 91.968 89.732 91.2364 89.0571C90.5963 88.4622 89.9904 87.8445 89.396 87.2153C89.1446 86.9522 88.9388 86.9751 88.6073 87.0552C87.4528 87.3412 87.0413 88.0161 87.2356 89.1715C87.3156 89.6748 87.2585 90.2011 87.2356 90.7159C87.2013 91.6768 86.6412 92.2716 85.7039 92.2831C84.4808 92.306 83.2577 92.306 82.0346 92.2831C81.0516 92.2602 80.4915 91.6653 80.48 90.6701C80.4686 89.8236 80.4572 88.977 80.48 88.1305C80.4915 87.7301 80.3086 87.6157 79.9885 87.4212C78.9826 86.8035 78.251 87.0094 77.5881 87.936C77.2794 88.3707 76.8565 88.7254 76.445 89.08C75.7248 89.7206 74.9476 89.732 74.2388 89.08C73.3701 88.2563 72.5242 87.4098 71.7012 86.5404C70.9696 85.7739 71.0154 84.9846 71.7812 84.1724C72.1242 83.8177 72.4785 83.4631 72.8214 83.1199C73.1529 82.7882 73.5073 82.4679 73.8616 82.1361C73.6444 81.5756 73.4616 81.0493 73.2101 80.5574C73.1301 80.4087 72.8443 80.3058 72.65 80.3058C71.827 80.2829 71.0039 80.3058 70.1809 80.2943C69.0607 80.2714 68.4777 79.7223 68.4434 78.6127C68.4092 77.4573 68.4092 76.3133 68.4434 75.1579C68.4777 74.0597 69.0264 73.5335 70.1238 73.5106C70.9468 73.4877 71.7698 73.4877 72.5928 73.5106C72.9815 73.522 73.1186 73.3619 73.3244 73.0416C73.9188 72.0578 73.793 71.3027 72.8329 70.6392C72.3985 70.3304 72.0441 69.8957 71.6784 69.4953C71.0154 68.7631 70.9925 67.9967 71.6555 67.2874C72.4899 66.3951 73.3587 65.5257 74.2503 64.6906C75.0047 63.9928 75.7706 64.0386 76.5593 64.7821C76.9251 65.1139 77.268 65.48 77.6109 65.8231C77.9538 66.1778 78.2853 66.5324 78.6283 66.887L80.48 66.1206V66.132ZM73.5759 68.3971C74.3417 69.1635 75.0504 69.8842 75.782 70.582C76.3078 71.074 76.3535 71.6002 76.0563 72.2294C75.702 72.9844 75.3819 73.7737 75.0847 74.563C74.7647 75.4096 74.5018 75.6384 73.5873 75.6384C72.6042 75.6384 71.6326 75.6384 70.6496 75.6384V78.1665C71.6669 78.1665 72.6385 78.1665 73.5987 78.1665C74.5475 78.1665 74.7761 78.361 75.0962 79.2304C75.3705 79.974 75.6677 80.7176 75.9992 81.4383C76.4107 82.3306 76.3878 82.6051 75.6906 83.3144C74.9933 84.0122 74.296 84.6871 73.6787 85.2934L75.4162 87.1696C76.1364 86.4374 76.8222 85.7396 77.5195 85.0418C78.171 84.3897 78.4797 84.3668 79.337 84.7672C80.0571 85.099 80.7887 85.4078 81.5431 85.671C82.4233 85.9913 82.6062 86.2201 82.6176 87.1581C82.6176 88.1534 82.6176 89.1601 82.6176 90.1324H85.1552C85.1552 89.0914 85.1895 88.0962 85.1552 87.1124C85.1209 86.3116 85.4867 85.9226 86.2069 85.671C86.9842 85.4078 87.7386 85.099 88.4702 84.7329C89.156 84.4012 89.7047 84.4355 90.2419 85.0075C90.9278 85.7396 91.6479 86.4374 92.3223 87.1124L94.1627 85.3392C93.4082 84.6071 92.6881 83.8749 91.9451 83.1657C91.4536 82.6966 91.3964 82.1819 91.6822 81.5756C92.0023 80.9006 92.3223 80.2257 92.5738 79.5164C93.031 78.2237 93.0882 78.1551 94.4827 78.1551C95.3629 78.1551 96.2431 78.1551 97.1118 78.1551V75.6269C96.0831 75.6269 95.1 75.6041 94.117 75.6269C93.3397 75.6498 92.9167 75.2837 92.6653 74.5745C92.3909 73.7852 92.0709 72.9958 91.7051 72.2408C91.385 71.5773 91.4536 71.0396 92.0023 70.5363C92.7453 69.8499 93.454 69.1406 94.1512 68.4657L92.3452 66.601C91.6365 67.3217 90.9278 68.031 90.2305 68.7631C89.7275 69.3008 89.2017 69.3809 88.5273 69.0491C87.7729 68.6716 86.9956 68.3513 86.1954 68.0882C85.4753 67.8365 85.1209 67.4361 85.1552 66.6354C85.201 65.6401 85.1552 64.6334 85.1552 63.6267H82.6176C82.6176 64.6677 82.5947 65.6744 82.6176 66.6697C82.6405 67.4361 82.2975 67.8251 81.6003 68.0653C80.823 68.3284 80.0685 68.6487 79.337 68.9919C78.4454 69.4038 78.1825 69.3809 77.4738 68.6716C76.7765 67.9738 76.1021 67.276 75.4276 66.5782L73.6102 68.3628L73.5759 68.3971Z" fill="#A53691"/>
<path d="M86.4583 55.7106C89.5675 56.0996 92.4366 57.0834 95.0428 58.7421C100.118 61.9681 103.319 66.544 104.645 72.4011C104.77 72.9731 104.85 73.5565 104.93 74.1285C105.033 74.792 104.679 75.3296 104.073 75.4669C103.536 75.5813 103.01 75.2267 102.85 74.5746C102.473 73.0989 102.278 71.566 101.741 70.1589C99.135 63.4438 94.2541 59.3827 87.1784 57.9871C86.8355 57.9185 86.4812 57.8842 86.1497 57.7926C85.5095 57.621 85.1552 57.1063 85.2924 56.5457C85.441 55.928 85.8868 55.6763 86.4583 55.6992V55.7106Z" fill="#A53691"/>
<path d="M57.8586 77.9371C57.2527 77.9371 56.6355 77.96 56.0297 77.9371C55.3895 77.9143 55.0123 77.5253 55.0009 76.9076C54.978 76.2784 55.401 75.8666 55.9954 75.8437C57.1842 75.7865 58.3844 75.7865 59.5732 75.8437C60.2362 75.8666 60.6363 76.3585 60.5905 76.9533C60.5448 77.6054 60.1447 77.9143 59.5389 77.9486C58.9788 77.9715 58.4187 77.9486 57.8586 77.9486V77.9371Z" fill="#A53691"/>
<path d="M109.891 77.9488C109.331 77.9488 108.771 77.9717 108.211 77.9488C107.514 77.903 107.125 77.5027 107.125 76.9078C107.125 76.2557 107.537 75.8782 108.12 75.8439C109.309 75.7867 110.509 75.7981 111.698 75.8439C112.303 75.8668 112.692 76.2672 112.726 76.8964C112.761 77.4569 112.292 77.8916 111.64 77.9602C111.572 77.9602 111.503 77.9717 111.435 77.9717C110.92 77.9717 110.406 77.9717 109.891 77.9717V77.9488Z" fill="#A53691"/>
<path d="M64.0655 97.6938C63.8484 97.5222 63.4483 97.3506 63.3111 97.0646C63.1739 96.7786 63.1511 96.2409 63.334 96.035C64.2256 95.0398 65.1743 94.1017 66.1459 93.198C66.5117 92.8548 67.0718 92.9349 67.3462 93.3238C67.5634 93.6327 67.7577 94.3076 67.5976 94.4907C66.6603 95.5546 65.6201 96.5384 64.6028 97.5222C64.5113 97.6137 64.3399 97.6023 64.0655 97.6938Z" fill="#A53691"/>
<path d="M104.588 96.493C104.565 97.4082 103.627 97.9801 103.022 97.4654C102.016 96.6074 101.078 95.635 100.187 94.6512C99.8095 94.2394 99.9467 93.7131 100.358 93.3242C100.747 92.9696 101.238 92.8666 101.638 93.2441C102.599 94.1364 103.502 95.0859 104.416 96.024C104.542 96.1612 104.565 96.4015 104.599 96.493H104.588Z" fill="#A53691"/>
<path d="M64.0998 56.0193C64.4999 56.2366 64.8199 56.351 65.0371 56.5569C65.8144 57.3005 66.5803 58.0555 67.3233 58.8334C67.8491 59.3825 67.8605 60.0003 67.3919 60.4464C66.9689 60.8468 66.3288 60.8239 65.8259 60.332C65.0371 59.5655 64.2255 58.8105 63.5168 57.9754C63.2768 57.7009 63.1853 57.1403 63.2768 56.7857C63.3454 56.4883 63.7912 56.2824 64.0998 56.0078V56.0193Z" fill="#A53691"/>
<path d="M104.736 57.1858C104.496 57.5633 104.359 57.8722 104.142 58.0895C103.41 58.856 102.667 59.5996 101.913 60.3317C101.387 60.8465 100.724 60.8694 100.29 60.4232C99.8667 59.9771 99.8781 59.3822 100.381 58.856C101.158 58.0438 101.936 57.2201 102.782 56.4994C103.056 56.2706 103.616 56.202 103.982 56.3049C104.279 56.3965 104.462 56.8426 104.725 57.1744L104.736 57.1858Z" fill="#A53691"/>
<path d="M89.5217 76.8619C89.5446 79.9735 87.0413 82.5246 83.9321 82.5589C80.8001 82.5932 78.2396 80.065 78.2167 76.9191C78.1938 73.7847 80.7429 71.2222 83.8749 71.2222C86.9841 71.2222 89.5103 73.7389 89.5217 76.8505V76.8619ZM83.8749 73.3843C81.9203 73.3843 80.3428 74.9629 80.3428 76.9191C80.3428 78.8181 81.9317 80.4197 83.8406 80.454C85.7382 80.4883 87.3956 78.8524 87.407 76.9191C87.407 74.9629 85.8296 73.3843 83.8749 73.3843Z" fill="#A53691"/>
</svg>
