<svg width="168" height="168" viewBox="0 0 168 168" fill="none" xmlns="http://www.w3.org/2000/svg">
<circle cx="83.9089" cy="83.9087" r="61.5" fill="white" stroke="#A53691"/>
<path d="M67.35 143.657C57.4409 140.911 48.3704 135.743 40.9552 128.619C33.5401 121.495 28.0132 112.639 24.8723 102.848C21.7313 93.0564 21.0749 82.6377 22.9622 72.5297C24.8494 62.4218 29.221 52.9419 35.6834 44.9437L38.5489 47.2589C32.4705 54.7819 28.3586 63.6985 26.5835 73.2059C24.8084 82.7133 25.4258 92.5129 28.3801 101.722C31.3344 110.932 36.5329 119.262 43.5074 125.962C50.482 132.663 59.0135 137.524 68.3339 140.107L67.35 143.657Z" fill="#502D52"/>
<path d="M48.0132 65.3036C48.3441 64.1911 48.6882 63.0918 49.4822 62.1912C50.6468 60.8535 52.1026 60.1383 53.8495 60.0059C54.0348 59.9926 54.22 60.0059 54.4053 60.0059C74.005 60.0059 93.6047 60.0059 113.204 60.0059C115.851 60.0059 117.836 61.1581 118.988 63.5421C119.372 64.3368 119.597 65.2904 119.597 66.1645C119.636 78.0845 119.636 90.0045 119.61 101.924C119.61 105.434 116.91 108.043 113.31 108.149C113.072 108.149 112.847 108.149 112.609 108.149C93.3136 108.149 74.0182 108.149 54.7097 108.149C51.9835 108.149 49.8792 107.09 48.622 104.6C48.3441 104.044 48.1985 103.434 48 102.838V65.3036H48.0132ZM83.8247 105.951C93.565 105.951 103.305 105.924 113.059 105.977C115.494 105.99 117.519 104.361 117.519 101.527C117.506 89.8588 117.519 78.2037 117.519 66.5354C117.519 63.807 115.825 62.125 113.099 62.125C93.5915 62.125 74.0844 62.125 54.5774 62.125C51.8511 62.125 50.1704 63.8203 50.1704 66.5354C50.1704 78.2037 50.1704 89.8588 50.1836 101.527C50.1836 102.256 50.3292 103.037 50.6336 103.686C51.4276 105.355 52.8701 105.964 54.6965 105.964C64.4103 105.937 74.1374 105.964 83.8512 105.964L83.8247 105.951Z" fill="#A53691"/>
<path d="M78.7693 96.5339V70.6808H56.2581C56.2581 71.1046 56.2581 71.5417 56.2581 71.9788C56.2316 72.7072 55.8478 73.1443 55.2391 73.1708C54.5774 73.1972 54.1539 72.8132 54.1009 72.0317C54.0612 71.3298 54.0745 70.6278 54.0877 69.9391C54.1009 68.8663 54.4582 68.522 55.517 68.522C60.2945 68.522 65.072 68.522 69.8495 68.522C73.0389 68.522 76.2416 68.522 79.431 68.522C80.5956 68.522 80.9132 68.8398 80.9132 70.0186C80.9132 79.091 80.9132 88.1634 80.9132 97.2491C80.9132 98.4543 80.5824 98.7722 79.3648 98.7722C71.4641 98.7722 63.5633 98.7722 55.6626 98.7722C54.4318 98.7722 54.0877 98.4278 54.0877 97.1961C54.0877 90.4282 54.0877 83.6603 54.0877 76.9057C54.0877 76.6805 54.1142 76.4421 54.1539 76.217C54.2465 75.6342 54.6435 75.3693 55.1861 75.3561C55.7287 75.3561 56.0993 75.6739 56.2184 76.217C56.2713 76.4686 56.2581 76.7335 56.2581 76.9851C56.2581 83.21 56.2581 89.4481 56.2581 95.673V96.5604H78.7693V96.5339Z" fill="#A53691"/>
<path d="M63.5236 87.8587C59.1431 84.8125 59.1563 79.3426 62.2531 76.2302C65.1646 73.2899 70.048 73.3429 72.8536 76.2831C75.9107 79.475 75.8181 84.9185 71.4773 87.8852C71.9537 88.2958 72.4434 88.6666 72.8801 89.1037C74.1241 90.3884 74.799 91.938 74.9579 93.7128C75.0373 94.6796 74.7461 95.2226 74.0315 95.3021C73.3036 95.3816 72.8669 94.9048 72.8007 93.9512C72.7213 92.7459 72.2846 91.6996 71.5038 90.7858C70.1274 89.1699 67.8909 88.5739 65.7866 89.2626C63.8677 89.8984 62.4384 91.7393 62.2796 93.8055C62.2796 93.9512 62.2531 94.0836 62.2267 94.2161C62.0811 94.9975 61.6708 95.3683 61.0356 95.3021C60.4136 95.2359 60.043 94.7591 60.0695 93.9909C60.1489 92.3353 60.665 90.8387 61.7502 89.5673C62.2796 88.958 62.9016 88.4282 63.5236 87.8322V87.8587ZM67.4938 86.7859C70.4186 86.8124 72.7875 84.4549 72.8007 81.5279C72.8139 78.6141 70.5112 76.2566 67.6129 76.2169C64.6352 76.1772 62.2531 78.5082 62.2267 81.4749C62.2002 84.3887 64.5426 86.7595 67.4806 86.7859H67.4938Z" fill="#A53691"/>
<path d="M99.4014 73.1311C95.14 73.1311 90.8786 73.1311 86.604 73.1311C86.3128 73.1311 85.9952 73.1046 85.7173 73.0119C85.2409 72.8529 84.9497 72.4556 85.082 71.992C85.1747 71.6477 85.4791 71.3033 85.7834 71.0649C85.9687 70.9192 86.3128 70.9457 86.5907 70.9457C95.14 70.9457 103.689 70.9457 112.238 70.9457C112.543 70.9457 112.9 70.9192 113.112 71.0782C113.403 71.2901 113.747 71.6477 113.747 71.9523C113.747 72.2967 113.469 72.7205 113.191 72.9456C112.953 73.1311 112.53 73.1046 112.186 73.1178C107.924 73.1178 103.663 73.1178 99.3881 73.1178L99.4014 73.1311Z" fill="#A53691"/>
<path d="M99.4278 88.5474C95.1664 88.5474 90.9051 88.5474 86.6305 88.5474C86.4187 88.5474 86.207 88.5607 86.0084 88.5474C85.4129 88.468 85.0688 88.1104 85.0556 87.5276C85.0424 86.9449 85.3467 86.5475 85.9423 86.4681C86.1937 86.4283 86.4584 86.4416 86.7099 86.4416C95.1929 86.4416 103.676 86.4416 112.146 86.4416C113.297 86.4416 113.787 86.7462 113.8 87.4746C113.827 88.2296 113.31 88.5739 112.133 88.5739C107.898 88.5739 103.649 88.5739 99.4146 88.5739L99.4278 88.5474Z" fill="#A53691"/>
<path d="M94.2533 80.839C91.6859 80.839 89.1317 80.839 86.5643 80.839C86.2863 80.839 85.9952 80.839 85.7437 80.7463C85.2408 80.5741 85.0026 80.19 85.0556 79.6603C85.0953 79.1702 85.36 78.8391 85.8629 78.7464C86.1408 78.6934 86.4187 78.6802 86.6966 78.6802C91.7785 78.6802 96.8472 78.6802 101.929 78.6802C102.114 78.6802 102.3 78.6802 102.485 78.6934C103.2 78.7729 103.61 79.1835 103.597 79.7927C103.583 80.3887 103.12 80.8125 102.432 80.839C102.008 80.8523 101.598 80.839 101.175 80.839C98.872 80.839 96.5692 80.839 94.2533 80.839Z" fill="#A53691"/>
<path d="M93.3797 94.1494C95.6824 94.1494 97.9984 94.1494 100.301 94.1494C101.175 94.1494 101.625 94.5335 101.611 95.2355C101.598 95.8977 101.161 96.2685 100.314 96.2685C95.6559 96.2685 90.9975 96.2685 86.3391 96.2685C85.5186 96.2685 85.0554 95.8844 85.0554 95.2222C85.0554 94.56 85.5186 94.1627 86.3259 94.1627C88.6816 94.1627 91.0372 94.1627 93.3797 94.1627V94.1494Z" fill="#A53691"/>
<path d="M109.764 80.8393C108.85 80.8393 107.951 80.8393 107.037 80.8393C106.23 80.8393 105.767 80.4287 105.754 79.7797C105.754 79.1175 106.177 78.6937 107.011 78.6937C108.85 78.6672 110.69 78.6672 112.516 78.6937C113.35 78.6937 113.8 79.1043 113.8 79.7532C113.8 80.4287 113.31 80.8393 112.463 80.8393C111.55 80.8393 110.65 80.8393 109.737 80.8393H109.764Z" fill="#A53691"/>
</svg>
