<svg width="168" height="168" viewBox="0 0 168 168" fill="none" xmlns="http://www.w3.org/2000/svg">
<circle cx="83.9089" cy="83.9087" r="61.5" fill="white" stroke="#A53691"/>
<path d="M67.35 143.657C57.4409 140.911 48.3704 135.743 40.9552 128.619C33.5401 121.495 28.0132 112.639 24.8723 102.848C21.7313 93.0564 21.0749 82.6377 22.9622 72.5297C24.8494 62.4218 29.221 52.9419 35.6834 44.9437L38.5489 47.2589C32.4705 54.7819 28.3586 63.6985 26.5835 73.2059C24.8084 82.7133 25.4258 92.5129 28.3801 101.722C31.3344 110.932 36.5329 119.262 43.5074 125.962C50.482 132.663 59.0135 137.524 68.3339 140.107L67.35 143.657Z" fill="#502D52"/>
<path d="M90.1182 48C90.5054 48.4238 90.941 48.8114 91.2798 49.2594C93.4821 52.2748 95.6602 55.3023 97.8383 58.3298C98.395 59.0928 98.4676 59.8557 97.923 60.3522C97.6084 60.6428 97.1244 60.8245 96.7009 60.8608C95.8054 60.9335 94.8979 60.885 93.9177 60.885V61.7085C93.9177 65.7169 93.9177 69.7374 93.9298 73.7458C93.9298 74.1213 94.1477 74.5209 94.3292 74.86C94.4865 75.1627 94.7648 75.4049 94.9826 75.6834C95.7328 76.7007 95.6723 77.7906 94.7648 78.7109C93.7241 79.7766 92.6714 80.8423 91.5944 81.8717C91.2798 82.1744 91.2193 82.4166 91.425 82.8283C91.788 83.5549 92.1026 84.3179 92.3568 85.0808C92.502 85.5289 92.6956 85.6984 93.1917 85.6863C94.547 85.65 95.8901 85.6742 97.2454 85.6742C99.0484 85.6742 99.7865 86.316 100.016 88.1083C100.065 88.4716 100.077 88.847 100.101 89.2466H101.771V74.1334C100.912 74.1334 100.053 74.1213 99.2057 74.1334C98.4797 74.1455 97.8504 73.988 97.4995 73.2857C97.1365 72.5833 97.4269 72.002 97.8504 71.4207C100.15 68.3085 102.437 65.1841 104.736 62.0718C105.619 60.8729 106.672 60.8729 107.555 62.096C109.806 65.2083 112.057 68.3327 114.319 71.445C114.743 72.0262 114.997 72.6317 114.634 73.322C114.283 73.988 113.678 74.1455 112.976 74.1334C112.165 74.1213 111.355 74.1334 110.447 74.1334C110.447 74.4361 110.447 74.6904 110.447 74.9326C110.447 76.7976 110.447 78.6625 110.447 80.5274C110.447 81.3388 110.024 81.8232 109.37 81.799C108.753 81.7748 108.342 81.2904 108.342 80.5396C108.342 78.2265 108.342 75.9256 108.342 73.6126C108.342 72.6196 108.886 72.0626 109.878 71.9899C110.229 71.9657 110.58 71.9899 110.931 71.9899C111.258 71.9899 111.585 71.9899 112.081 71.9899L106.151 63.7672L100.113 71.9899C100.876 71.9899 101.481 71.9899 102.074 71.9899C103.453 72.002 103.985 72.5348 103.985 73.9033C103.985 78.8684 103.985 83.8456 103.985 88.8107C103.985 89.2951 104.07 89.5131 104.627 89.6463C105.861 89.949 107.059 90.3971 108.317 90.7967C108.317 90.6756 108.354 90.5061 108.366 90.3365C108.366 88.847 108.366 87.3454 108.366 85.8558C108.366 85.0687 108.801 84.5722 109.443 84.5843C110.072 84.5964 110.459 85.0566 110.471 85.8316C110.471 87.7692 110.483 89.7068 110.471 91.6444C110.471 92.0804 110.592 92.371 110.931 92.6495C114.924 95.9677 116.812 100.255 116.594 105.438C116.316 112.11 110.967 118.202 104.409 119.388C96.9913 120.733 90.2029 117.027 87.2866 110.052C87.1777 109.797 87.0325 109.555 86.8389 109.361C86.0282 108.526 85.1811 107.714 84.3825 106.879C84.1042 106.588 83.8985 106.588 83.5475 106.746C82.7489 107.121 81.9261 107.46 81.1032 107.751C80.7523 107.872 80.6434 108.041 80.6434 108.405C80.6555 109.87 80.6434 111.347 80.6434 112.813C80.6434 114.363 79.8569 115.259 78.3443 115.307C76.4445 115.368 74.5326 115.368 72.6207 115.307C71.2533 115.259 70.4547 114.363 70.4426 112.994C70.4426 111.311 70.4426 109.64 70.4426 107.993L66.9939 106.564C65.9049 107.654 64.7916 108.78 63.6663 109.894C62.4441 111.117 61.4035 111.226 60.1329 110.064C58.7534 108.816 57.4466 107.484 56.2002 106.104C55.1717 104.953 55.2806 103.863 56.3696 102.774C57.5192 101.623 58.6808 100.473 59.782 99.3706C59.3585 98.2807 58.9834 97.2635 58.5356 96.2583C58.4509 96.0767 58.1242 95.9193 57.9064 95.9071C56.4422 95.8708 54.966 95.9071 53.5018 95.8829C51.9529 95.8829 51.0938 95.0958 51.0454 93.5578C50.9849 91.7171 50.9849 89.8764 51.0454 88.0478C51.0938 86.4856 52.0013 85.6863 53.5623 85.6863C54.9902 85.6863 56.4059 85.6621 57.8338 85.6863C58.3178 85.6863 58.5114 85.5289 58.6687 85.0808C58.9955 84.1362 59.4069 83.228 59.8183 82.2471C58.7413 81.1693 57.6281 80.0794 56.5269 78.9774C55.2564 77.7058 55.1354 76.7007 56.3212 75.3928C57.5918 73.9759 58.9713 72.6438 60.387 71.3723C61.3914 70.464 62.5288 70.573 63.509 71.5297C64.5738 72.5712 65.6266 73.6247 66.6672 74.7025C66.9576 75.0053 67.1876 75.0537 67.5748 74.86C68.3492 74.4846 69.1479 74.1576 69.9586 73.8791C70.3579 73.7337 70.491 73.5521 70.4789 73.1282C70.4547 71.6387 70.4668 70.1371 70.4789 68.6475C70.4789 67.267 71.1807 66.492 72.5481 66.3103C74.5689 66.0439 76.5897 66.0439 78.6105 66.3103C79.9053 66.492 80.6555 67.3033 80.6676 68.6112C80.6797 70.1007 80.6918 71.6024 80.6676 73.0919C80.6676 73.54 80.7886 73.7458 81.2121 73.8912C81.9987 74.1697 82.7731 74.4967 83.5233 74.8479C83.8864 75.0174 84.1042 75.0174 84.4309 74.7268C85.1206 74.1213 85.411 73.4552 85.3989 72.4864C85.3263 68.8292 85.3747 65.1599 85.3747 61.5026C85.3747 61.321 85.3384 61.1393 85.3142 60.885C84.3825 60.885 83.4749 60.8729 82.5795 60.885C81.914 60.8971 81.3815 60.7034 81.0669 60.0979C80.7281 59.4561 80.9096 58.899 81.321 58.3419C83.6443 55.1933 85.9556 52.0326 88.291 48.884C88.4483 48.5571 88.8234 48.3027 89.138 48H90.1182ZM86.1613 105.668C85.9919 101.841 86.9599 98.4623 89.1743 95.4591C91.3887 92.4679 94.3534 90.5666 98.0077 89.6463L97.8141 87.854C96.1321 87.854 94.5228 87.854 92.9134 87.854C91.6065 87.854 90.941 87.3575 90.5054 86.2313C90.1303 85.2503 89.7188 84.2937 89.2953 83.337C88.8718 82.3682 88.9928 81.5326 89.743 80.7696C90.6385 79.8493 91.546 78.941 92.4657 78.0449C92.7803 77.7421 93.1554 77.5121 93.6273 77.1609L89.259 72.8013C88.049 74.0123 86.9599 75.1022 85.883 76.1921C84.6729 77.4031 84.0316 77.4999 82.5311 76.7612C82.035 76.519 81.5267 76.2647 80.9943 76.1073C78.3322 75.2838 78.4411 74.533 78.4653 72.3895C78.4653 71.7598 78.4653 71.1301 78.4653 70.5004V68.3932H72.4997C72.4997 70.1371 72.4997 71.7598 72.4997 73.3947C72.4997 74.7268 71.9915 75.3928 70.7451 75.8409C69.9102 76.1436 69.0994 76.4706 68.3008 76.846C66.9939 77.4636 66.2558 77.3667 65.2273 76.3374C64.0898 75.199 62.9523 74.0607 61.8028 72.8981C60.2176 74.1455 58.8019 75.5018 57.5918 77.1488C58.7655 78.3113 59.8909 79.4254 61.0042 80.5517C62.0206 81.5689 62.1295 82.3561 61.5245 83.6397C61.1615 84.4148 60.8226 85.214 60.5322 86.0254C60.0361 87.3938 59.4069 87.8661 57.9306 87.8782C56.5269 87.8782 55.1354 87.8903 53.7317 87.8782C53.2719 87.8782 53.042 87.9993 53.042 88.4958C53.042 88.9318 52.9452 89.3799 52.9573 89.8158C52.9694 91.1358 53.0178 92.4558 53.0541 93.8242C54.8571 93.8242 56.5148 93.8242 58.1605 93.8242C59.3343 93.8242 60.0361 94.345 60.4475 95.4106C60.8105 96.3673 61.1978 97.3119 61.6092 98.2444C62.069 99.2858 61.9722 100.109 61.1736 100.933C60.2539 101.889 59.3101 102.822 58.3541 103.754C58.0879 104.009 57.7733 104.202 57.3377 104.517L61.706 108.865C63.025 107.545 64.2108 106.358 65.3846 105.171C66.0985 104.445 66.9334 104.263 67.8773 104.638C68.9542 105.074 70.0191 105.535 71.096 105.983C72.0157 106.37 72.4755 107.048 72.4876 108.041C72.4876 109.228 72.4876 110.427 72.4876 111.614C72.4876 112.147 72.4876 112.667 72.4876 113.297C74.3148 113.297 76.0573 113.285 77.7998 113.297C78.3201 113.297 78.4895 113.128 78.4774 112.607C78.4411 111.142 78.4532 109.664 78.4774 108.199C78.4895 106.915 78.9856 106.285 80.1836 105.862C80.7765 105.656 81.3936 105.486 81.9382 105.183C83.4749 104.311 84.9028 104.021 86.1855 105.716L86.1613 105.668ZM88.3031 104.457C88.3031 111.65 94.1718 117.572 101.347 117.584C108.523 117.608 114.44 111.711 114.465 104.529C114.489 97.3482 108.596 91.4264 101.42 91.4022C94.2445 91.378 88.3152 97.2756 88.3152 104.457H88.3031ZM91.8122 72.1715C91.8122 71.9051 91.8122 71.6629 91.8122 71.4086C91.8122 67.7877 91.8122 64.179 91.8122 60.5581C91.8122 59.3228 92.3568 58.7779 93.6031 58.7779C94.1961 58.7779 94.789 58.7779 95.5513 58.7779L89.6099 50.5552L83.5596 58.7779C84.2978 58.7779 84.8786 58.7779 85.4473 58.7779C86.9115 58.7779 87.4318 59.2865 87.4318 60.7397C87.4318 64.07 87.4318 67.4123 87.4318 70.7426C87.4318 70.9727 87.4318 71.2149 87.4318 71.5903C88.1942 70.8516 88.9807 70.573 89.7551 70.8758C90.4691 71.1543 91.0741 71.6872 91.8001 72.1594L91.8122 72.1715Z" fill="#A53691"/>
<path d="M75.416 103.779C68.8212 103.706 63.4485 98.9106 62.5894 92.3228C61.6818 85.3353 66.9819 78.6627 74.0244 77.9603C80.8613 77.27 86.8752 81.7023 88.1821 88.387C88.3515 89.2468 88.0853 89.7676 87.4198 89.9129C86.7663 90.0582 86.2702 89.6586 86.1129 88.7988C85.5684 85.9892 84.1405 83.7368 81.8414 82.0535C75.295 77.2458 65.8565 81.2542 64.7796 89.2832C63.8357 96.2464 69.4262 102.156 76.4203 101.623C80.6797 101.296 84.5277 98.2203 85.7983 94.1272C85.8588 93.9334 85.9072 93.7154 85.9798 93.5217C86.2097 92.904 86.7179 92.6134 87.2867 92.7708C87.8675 92.9404 88.1579 93.4127 88.0248 94.0787C87.9643 94.3936 87.8554 94.7084 87.7465 95.0112C85.9919 100.243 80.946 103.827 75.4402 103.767L75.416 103.779Z" fill="#A53691"/>
<path d="M75.5009 82.5377C80.0628 82.5619 83.7656 86.2918 83.7535 90.8331C83.7414 95.4349 79.9781 99.1284 75.3315 99.0921C70.83 99.0679 67.1515 95.2653 67.1878 90.6999C67.2241 86.207 70.9873 82.5135 75.5009 82.5377ZM81.6117 90.821C81.6117 87.3817 78.889 84.657 75.4404 84.6691C72.0764 84.6691 69.3175 87.4423 69.3054 90.8088C69.3054 94.1875 72.1369 97.0092 75.5009 96.9849C78.8769 96.9607 81.6117 94.1996 81.6117 90.8088V90.821Z" fill="#A53691"/>
<path d="M89.7068 104.433C89.7068 98.4502 94.2687 93.4245 100.246 92.8311C106.212 92.2378 111.742 96.4036 112.867 102.325C113.013 103.088 112.686 103.645 112.032 103.766C111.427 103.888 110.955 103.536 110.786 102.749C110.12 99.6733 108.438 97.3482 105.631 95.9192C99.835 92.9522 92.744 96.7185 91.897 103.173C91.1347 109.071 95.7934 114.29 101.638 114.06C105.595 113.903 109.007 111.432 110.362 107.714C110.411 107.581 110.447 107.448 110.508 107.327C110.786 106.697 111.27 106.443 111.839 106.637C112.432 106.83 112.698 107.387 112.48 108.041C111.718 110.391 110.375 112.365 108.378 113.806C104.784 116.421 100.851 116.954 96.7614 115.198C92.623 113.418 90.336 110.124 89.7189 105.668C89.7068 105.571 89.7068 105.486 89.7068 105.389C89.7068 105.062 89.7068 104.735 89.7068 104.408V104.433Z" fill="#A53691"/>
<path d="M102.425 102.544C103.477 101.853 104.409 101.211 105.389 100.642C105.716 100.461 106.212 100.352 106.551 100.449C107.325 100.679 107.434 101.769 106.72 102.253C105.123 103.343 103.501 104.396 101.856 105.402C101.154 105.825 100.343 105.329 100.331 104.493C100.307 101.999 100.319 99.5039 100.331 97.0093C100.331 96.3675 100.803 95.9315 101.384 95.9436C101.965 95.9436 102.412 96.4038 102.412 97.0456C102.425 98.6078 102.412 100.17 102.412 101.732C102.412 101.962 102.412 102.18 102.412 102.544H102.425Z" fill="#A53691"/>
<path d="M75.4281 94.9022C73.1895 94.9022 71.3744 93.0494 71.3865 90.7848C71.3865 88.5444 73.2379 86.7158 75.4886 86.7158C77.7272 86.7158 79.5786 88.5686 79.5907 90.809C79.5907 93.0736 77.7272 94.9022 75.4281 94.8901V94.9022ZM75.4523 88.8714C74.3754 88.8714 73.492 89.7796 73.5041 90.8332C73.5041 91.8868 74.4238 92.795 75.4765 92.8071C76.5656 92.8071 77.4489 91.8989 77.4368 90.7848C77.4247 89.6828 76.5656 88.8593 75.4644 88.8714H75.4523Z" fill="#A53691"/>
</svg>
