<svg width="57" height="44" viewBox="0 0 57 44" fill="none" xmlns="http://www.w3.org/2000/svg">
<path d="M56.5628 41.8662C56.1446 42.8127 55.4127 43.0988 54.4002 43.0933C45.3424 43.0658 36.2847 43.0768 27.2324 43.0768H26.55V0.0222168H43.3064V0.600022C43.3064 4.15489 43.3064 7.70425 43.3064 11.2591C43.3064 12.6073 43.9502 13.2512 45.2984 13.2567C49.0514 13.2567 52.8098 13.2567 56.5628 13.2567V41.8717V41.8662ZM39.8836 19.8821C42.646 19.8821 45.403 19.8877 48.1654 19.8821C49.1779 19.8821 49.9373 19.1448 49.9318 18.2203C49.9318 17.2958 49.1724 16.5694 48.1544 16.5694C42.635 16.5639 37.1156 16.5584 31.5962 16.5804C31.2495 16.5804 30.8643 16.707 30.5672 16.8886C29.9508 17.2573 29.7142 17.9947 29.9123 18.6605C30.1434 19.4254 30.7488 19.8821 31.6072 19.8821C34.3697 19.8877 37.1266 19.8821 39.8891 19.8821H39.8836ZM39.9386 23.1949C37.1596 23.1949 34.3807 23.1949 31.6017 23.1949C30.7212 23.1949 30.1104 23.6681 29.8903 24.4661C29.7087 25.1154 29.9784 25.8913 30.6057 26.216C30.9634 26.4031 31.4091 26.4966 31.8108 26.4966C37.1816 26.5131 42.558 26.5076 47.9288 26.5076C48.0774 26.5076 48.2259 26.5131 48.369 26.5021C49.6182 26.3701 50.317 25.0659 49.6842 24.0203C49.3155 23.415 48.7432 23.1894 48.0498 23.1894C45.3479 23.1949 42.6405 23.1894 39.9386 23.1894V23.1949ZM39.8725 33.1441C42.635 33.1441 45.3919 33.1551 48.1544 33.1441C49.4311 33.1386 50.24 32.027 49.8163 30.9044C49.5521 30.2056 48.9248 29.8314 48.0058 29.8314C42.5965 29.8314 37.1871 29.8314 31.7778 29.8314C31.6512 29.8314 31.5192 29.8259 31.3926 29.8369C30.6002 29.9194 29.9894 30.4807 29.8518 31.2621C29.7362 31.917 30.1434 32.6984 30.8038 32.9625C31.1009 33.0836 31.4421 33.1386 31.7668 33.1386C34.4687 33.1496 37.1761 33.1441 39.8781 33.1441H39.8725ZM34.8979 13.2567C35.9655 13.2567 37.0331 13.2567 38.0951 13.2567C39.2012 13.2567 39.9771 12.5743 39.9881 11.6113C39.9991 10.6483 39.2122 9.94393 38.1171 9.94393C35.982 9.94393 33.8524 9.94393 31.7173 9.94393C30.6112 9.94393 29.8353 10.6263 29.8243 11.5893C29.8188 12.5468 30.6002 13.2512 31.6953 13.2567C32.7628 13.2567 33.8304 13.2567 34.8924 13.2567H34.8979Z" fill="white"/>
<path d="M23.1713 0V10.0373C19.1432 9.61355 15.6984 10.7967 12.9579 13.7737C10.9274 15.9749 9.94235 18.6273 9.94785 21.6209C9.95335 23.8605 10.5807 25.9351 11.8078 27.8226C13.046 29.7211 14.6913 31.1519 16.7494 32.0929C18.7855 33.0229 20.9206 33.3255 23.1658 33.0284V43.0491C23.0282 43.0601 22.8851 43.0876 22.7476 43.0876C21.2728 43.0876 19.8035 43.0876 18.3287 43.0876C17.2502 43.0876 16.5788 42.4108 16.5678 41.3322C16.5678 40.7049 16.5843 40.0775 16.5513 39.4557C16.5458 39.3016 16.4082 39.0705 16.2762 39.0155C15.0765 38.5202 13.8604 38.0525 12.5287 37.5297C12.105 37.9754 11.6097 38.5147 11.0869 39.032C10.289 39.8244 9.34803 39.8299 8.55562 39.043C7.03682 37.5407 5.52903 36.0274 4.02674 34.5086C3.26734 33.7382 3.27284 32.7917 4.03775 32.0158C4.55502 31.493 5.0888 30.9868 5.54554 30.5355C5.03377 29.2259 4.56052 27.9987 4.05976 26.7771C4.00473 26.6505 3.7626 26.5349 3.60302 26.5294C2.95918 26.5019 2.31534 26.5294 1.6715 26.5184C0.702994 26.5019 0.00963006 25.8141 0.00412717 24.84C-0.00137572 22.6499 -0.00137572 20.4597 0.00412717 18.2641C0.00412717 17.2626 0.702994 16.5857 1.72103 16.5802C2.36487 16.5747 3.00871 16.5912 3.65254 16.5692C3.79562 16.5637 4.01023 16.4481 4.05976 16.3271C4.56052 15.1054 5.03377 13.8728 5.54554 12.5631C5.10531 12.1339 4.58803 11.6386 4.08177 11.1268C3.26734 10.3069 3.25634 9.36592 4.05976 8.557C5.55104 7.05471 7.04783 5.55792 8.55012 4.06664C9.34803 3.27422 10.2835 3.27972 11.0869 4.06664C11.5877 4.55639 12.083 5.05165 12.5782 5.54141C12.6002 5.56342 12.6388 5.57443 12.5837 5.54141C13.8714 5.03514 15.1041 4.5674 16.3257 4.06664C16.4413 4.01711 16.5513 3.79699 16.5568 3.64841C16.5788 2.96606 16.5568 2.2837 16.5733 1.60684C16.5953 0.775907 17.2337 0.0440248 18.0481 0.0275161C19.7375 -0.00550121 21.4324 0.016508 23.1713 0.016508V0Z" fill="white"/>
<path d="M23.1658 13.4381V16.8059C20.673 16.1951 18.6149 16.8279 17.2667 19.0621C16.2156 20.8065 16.2927 22.6445 17.4538 24.3119C18.8405 26.3094 20.8161 26.8597 23.1658 26.2599V29.6166C20.607 30.3155 17.0411 29.3415 14.917 26.535C12.8149 23.7561 12.6828 19.9481 14.5813 17.0205C16.4413 14.159 19.9576 12.6843 23.1603 13.4326L23.1658 13.4381Z" fill="white"/>
<path d="M55.3797 9.9108H46.6577V1.18872C49.5412 4.07224 52.4742 6.99977 55.3797 9.9108Z" fill="white"/>
<path d="M23.1933 21.5276C23.1933 22.4631 22.4559 23.2004 21.5204 23.1894C20.6124 23.1839 19.8916 22.452 19.886 21.5441C19.886 20.6086 20.6234 19.8712 21.5589 19.8822C22.4669 19.8877 23.1933 20.6141 23.1933 21.5276Z" fill="white"/>
</svg>
