<svg width="168" height="168" viewBox="0 0 168 168" fill="none" xmlns="http://www.w3.org/2000/svg">
<circle cx="83.9088" cy="83.9087" r="61.5" fill="white" stroke="#A53691"/>
<path d="M67.35 143.657C57.4409 140.911 48.3704 135.743 40.9552 128.619C33.5401 121.495 28.0132 112.639 24.8723 102.848C21.7313 93.0564 21.0749 82.6377 22.9622 72.5297C24.8494 62.4218 29.221 52.9419 35.6834 44.9437L38.5489 47.2589C32.4705 54.7819 28.3586 63.6985 26.5835 73.2059C24.8084 82.7133 25.4258 92.5129 28.3801 101.722C31.3344 110.932 36.5329 119.262 43.5074 125.962C50.482 132.663 59.0135 137.524 68.3339 140.107L67.35 143.657Z" fill="#502D52"/>
<path d="M83.911 114.885C81.8043 113.483 79.7103 112.082 77.6037 110.693C77.4397 110.592 77.1874 110.567 76.9855 110.567C74.7906 110.681 72.5956 110.782 70.4007 110.946C69.4167 111.022 68.8112 110.668 68.3823 109.772C67.4615 107.84 66.4775 105.947 65.4936 104.053C65.3296 103.75 65.0394 103.46 64.7367 103.296C62.8066 102.286 60.8766 101.301 58.9213 100.341C58.177 99.9753 57.8238 99.4703 57.8869 98.6118C58.0383 96.3773 58.1518 94.1428 58.2401 91.9082C58.2527 91.6053 58.1518 91.2391 57.9752 90.974C56.802 89.1435 55.6163 87.3129 54.3926 85.5076C53.8754 84.7502 53.8628 84.1063 54.3926 83.3362C55.6289 81.5183 56.8273 79.6751 58.0257 77.8319C58.177 77.6047 58.278 77.2891 58.2654 77.0113C58.1644 74.7768 58.0509 72.5423 57.8995 70.3077C57.8365 69.4114 58.1897 68.8685 58.9844 68.4772C60.9523 67.5177 62.9076 66.5204 64.8502 65.5104C65.1025 65.3716 65.3548 65.1317 65.4936 64.8666C66.5154 62.8972 67.5119 60.9277 68.4832 58.9331C68.8491 58.1882 69.3789 57.8474 70.2241 57.8979C72.4316 58.0494 74.6518 58.163 76.8594 58.2514C77.2 58.264 77.6037 58.1504 77.8938 57.961C79.7103 56.7995 81.5142 55.6128 83.2929 54.3883C84.0624 53.858 84.7057 53.8833 85.4626 54.3883C87.2287 55.6002 89.0073 56.7743 90.8112 57.9231C91.114 58.1251 91.5429 58.2513 91.8961 58.2261C94.0532 58.1377 96.2103 58.0367 98.3548 57.8852C99.2883 57.8221 99.8812 58.1251 100.297 58.9836C101.231 60.9277 102.215 62.8467 103.211 64.753C103.375 65.0686 103.691 65.3842 104.019 65.5483C105.949 66.5583 107.879 67.543 109.834 68.5024C110.616 68.8812 110.919 69.4493 110.856 70.3077C110.692 72.5549 110.578 74.8147 110.465 77.0745C110.465 77.327 110.566 77.6173 110.717 77.8319C111.916 79.7004 113.139 81.5435 114.363 83.3993C114.817 84.0937 114.817 84.7375 114.363 85.4319C113.114 87.2877 111.89 89.1561 110.667 91.0372C110.541 91.2265 110.427 91.4664 110.44 91.681C110.553 93.9534 110.679 96.2258 110.818 98.5108C110.881 99.4577 110.692 99.849 109.859 100.278C107.866 101.288 105.873 102.286 103.893 103.321C103.64 103.46 103.388 103.7 103.249 103.965C102.215 105.947 101.206 107.941 100.222 109.949C99.856 110.693 99.3261 110.984 98.5188 110.933C96.2608 110.794 94.0154 110.668 91.7573 110.555C91.505 110.555 91.2023 110.618 90.9878 110.757C88.9064 112.12 86.825 113.496 84.7562 114.872H83.9236L83.911 114.885ZM108.068 73.8426C108.106 73.2871 108.144 72.2393 108.232 71.1915C108.27 70.7875 108.182 70.5602 107.791 70.3709C105.999 69.4998 104.233 68.5656 102.442 67.6818C101.849 67.3915 101.42 66.9875 101.13 66.3815C100.26 64.5888 99.3261 62.8214 98.4431 61.0287C98.2413 60.6248 98.0142 60.5111 97.5853 60.5364C95.5165 60.6753 93.4351 60.8015 91.3663 60.8646C90.9121 60.8772 90.3823 60.7258 89.9913 60.4733C88.2504 59.3749 86.5348 58.2261 84.8319 57.0773C84.4787 56.8374 84.239 56.8627 83.8984 57.0773C82.208 58.2135 80.5176 59.3623 78.7894 60.4354C78.3858 60.6879 77.8307 60.852 77.364 60.8394C75.3078 60.7762 73.2516 60.65 71.1954 60.5111C70.7539 60.4859 70.5016 60.5616 70.2745 61.0035C69.3789 62.8593 68.458 64.6898 67.4867 66.5078C67.2722 66.9118 66.8812 67.3031 66.4775 67.5177C64.7241 68.4646 62.9328 69.3609 61.1415 70.2194C60.5991 70.4845 60.4603 70.7875 60.4981 71.3556C60.6369 73.3755 60.7757 75.3828 60.8387 77.4027C60.8514 77.8572 60.6874 78.3874 60.4477 78.7788C59.3502 80.521 58.2149 82.2379 57.0543 83.9422C56.8147 84.2957 56.8273 84.5355 57.0543 84.889C58.1644 86.5302 59.2241 88.1966 60.3468 89.8378C60.7378 90.4059 60.9018 90.9867 60.864 91.6684C60.7252 93.6883 60.6369 95.7082 60.4981 97.7155C60.4729 98.1069 60.5865 98.3089 60.9523 98.4856C62.7688 99.3693 64.5601 100.291 66.364 101.187C66.919 101.465 67.3227 101.831 67.6002 102.399C68.4959 104.23 69.442 106.035 70.3376 107.866C70.5142 108.232 70.716 108.333 71.1071 108.307C73.2011 108.169 75.2952 108.042 77.3892 107.967C77.8307 107.954 78.3353 108.093 78.7137 108.333C80.442 109.418 82.1323 110.555 83.8227 111.703C84.2137 111.969 84.4913 112.006 84.9076 111.716C86.5853 110.567 88.2883 109.444 90.0165 108.358C90.3949 108.118 90.8995 107.967 91.341 107.979C93.4351 108.055 95.5291 108.181 97.6232 108.32C98.0268 108.345 98.2539 108.257 98.4431 107.853C99.3387 106.022 100.272 104.217 101.18 102.387C101.433 101.869 101.799 101.503 102.316 101.238C104.158 100.329 105.987 99.3819 107.828 98.473C108.119 98.3341 108.295 98.1952 108.27 97.8165C108.131 95.6956 107.992 93.5873 107.929 91.4664C107.917 90.9867 108.068 90.4438 108.32 90.0272C109.393 88.3103 110.503 86.6312 111.651 84.9648C111.928 84.5608 111.953 84.2957 111.663 83.8791C110.515 82.2 109.38 80.4957 108.308 78.7661C108.068 78.3748 107.942 77.8446 107.929 77.3775C107.917 76.3549 108.018 75.3197 108.093 73.8047L108.068 73.8426Z" fill="#A53691"/>
<path d="M84.3525 103.409C73.6931 103.283 65.4053 94.8118 65.4431 84.3966C65.481 73.5648 74.2229 65.4346 84.4408 65.4851C95.2011 65.5356 103.388 74.3096 103.325 84.5102C103.262 95.0138 94.8101 103.359 84.3651 103.409H84.3525ZM100.739 83.7654C100.436 74.4359 92.161 67.0884 82.5865 68.1362C73.8823 69.0831 67.3606 76.784 68.0417 85.6969C68.7482 94.837 76.8594 101.781 86.2321 100.72C95.0245 99.7227 101.13 92.0597 100.739 83.7654Z" fill="#A53691"/>
<path d="M82.2333 87.1995C83.8227 85.6972 85.5635 84.056 87.3044 82.4148C88.528 81.2533 89.7516 80.1045 90.9752 78.9431C91.3537 78.5896 91.77 78.3749 92.3124 78.4886C93.1576 78.6779 93.5739 79.6122 93.1197 80.3444C92.981 80.559 92.7918 80.7484 92.6151 80.9251C89.4741 83.8919 86.333 86.8586 83.192 89.8254C82.2585 90.7091 81.653 90.6964 80.7574 89.7875C79.1805 88.1715 77.5911 86.5682 76.0395 84.9271C75.7619 84.6367 75.5601 84.2075 75.4718 83.8035C75.3709 83.3111 75.661 82.8566 76.1278 82.7178C76.5062 82.6042 76.9603 82.6546 77.3514 82.7556C77.5911 82.8188 77.7677 83.0965 77.9821 83.2859C79.3824 84.5736 80.77 85.8613 82.2207 87.2121L82.2333 87.1995Z" fill="#A53691"/>
</svg>
