<svg width="180" height="180" viewBox="0 0 180 180" fill="none" xmlns="http://www.w3.org/2000/svg">
<circle cx="90" cy="90" r="89" fill="#FFF6FD" stroke="white" stroke-width="2"/>
<path d="M138.923 165.542C128.849 172.066 117.571 176.509 105.754 178.61C93.9372 180.711 81.8193 180.427 70.1136 177.775C58.408 175.123 47.351 170.157 37.5934 163.168C27.8358 156.179 19.5747 147.309 13.2961 137.08C7.01761 126.851 2.84852 115.469 1.03421 103.605C-0.780102 91.7403 -0.202983 79.6329 2.7316 67.9948C5.66619 56.3568 10.899 45.4233 18.122 35.8377C25.345 26.2521 34.4124 18.2081 44.7905 12.179L54.638 29.13C46.5205 33.8458 39.4282 40.1377 33.7785 47.6353C28.1287 55.133 24.0358 63.685 21.7404 72.788C19.445 81.891 18.9936 91.3612 20.4127 100.641C21.8318 109.921 25.0928 118.824 30.0038 126.825C34.9147 134.826 41.3764 141.764 49.0086 147.231C56.6408 152.697 65.2894 156.582 74.4453 158.656C83.6012 160.731 93.0796 160.953 102.323 159.309C111.566 157.666 120.387 154.19 128.266 149.087L138.923 165.542Z" fill="#502D52"/>
<path d="M104.378 1.15583C125.828 4.62719 145.299 15.7423 159.194 32.4488C173.09 49.1553 180.471 70.3251 179.977 92.0493L175.692 91.9518C176.163 71.262 169.133 51.1005 155.899 35.1895C142.665 19.2786 124.122 8.6929 103.693 5.38686L104.378 1.15583Z" fill="#A53691"/>
<path d="M147.49 100.096C146.786 100.096 146.114 99.9999 145.474 99.8079C144.844 99.6159 144.348 99.3813 143.986 99.1039L144.626 97.8879C144.988 98.1333 145.436 98.3413 145.97 98.5119C146.503 98.6826 147.047 98.7679 147.602 98.7679C148.316 98.7679 148.828 98.6666 149.138 98.4639C149.458 98.2613 149.618 97.9786 149.618 97.6159C149.618 97.3493 149.522 97.1413 149.33 96.9919C149.138 96.8426 148.882 96.7306 148.562 96.6559C148.252 96.5813 147.906 96.5173 147.522 96.4639C147.138 96.3999 146.754 96.3253 146.37 96.2399C145.986 96.1439 145.634 96.0159 145.314 95.8559C144.994 95.6853 144.738 95.4559 144.546 95.1679C144.354 94.8693 144.258 94.4746 144.258 93.9839C144.258 93.4719 144.402 93.0239 144.69 92.6399C144.978 92.2559 145.383 91.9626 145.906 91.7599C146.439 91.5466 147.068 91.4399 147.794 91.4399C148.348 91.4399 148.908 91.5093 149.474 91.6479C150.05 91.7759 150.519 91.9626 150.882 92.2079L150.226 93.4239C149.842 93.1679 149.442 92.9919 149.026 92.8959C148.61 92.7999 148.194 92.7519 147.778 92.7519C147.106 92.7519 146.604 92.8639 146.274 93.0879C145.943 93.3013 145.778 93.5786 145.778 93.9199C145.778 94.2079 145.874 94.4319 146.066 94.5919C146.268 94.7413 146.524 94.8586 146.834 94.9439C147.154 95.0293 147.506 95.1039 147.89 95.1679C148.274 95.2213 148.658 95.2959 149.042 95.3919C149.426 95.4773 149.772 95.5999 150.082 95.7599C150.402 95.9199 150.658 96.1439 150.85 96.4319C151.052 96.7199 151.154 97.1039 151.154 97.5839C151.154 98.0959 151.004 98.5386 150.706 98.9119C150.407 99.2853 149.986 99.5786 149.442 99.7919C148.898 99.9946 148.247 100.096 147.49 100.096Z" fill="black"/>
<path d="M140.589 100V91.5202H142.125V100H140.589ZM141.357 89.8882C141.058 89.8882 140.807 89.7922 140.605 89.6002C140.413 89.4082 140.317 89.1735 140.317 88.8962C140.317 88.6082 140.413 88.3682 140.605 88.1762C140.807 87.9842 141.058 87.8882 141.357 87.8882C141.655 87.8882 141.901 87.9842 142.093 88.1762C142.295 88.3575 142.397 88.5868 142.397 88.8642C142.397 89.1522 142.301 89.3975 142.109 89.6002C141.917 89.7922 141.666 89.8882 141.357 89.8882Z" fill="black"/>
<path d="M135.005 100.096C134.301 100.096 133.629 99.9999 132.989 99.8079C132.36 99.6159 131.864 99.3813 131.501 99.1039L132.141 97.8879C132.504 98.1333 132.952 98.3413 133.485 98.5119C134.019 98.6826 134.563 98.7679 135.117 98.7679C135.832 98.7679 136.344 98.6666 136.653 98.4639C136.973 98.2613 137.133 97.9786 137.133 97.6159C137.133 97.3493 137.037 97.1413 136.845 96.9919C136.653 96.8426 136.397 96.7306 136.077 96.6559C135.768 96.5813 135.421 96.5173 135.037 96.4639C134.653 96.3999 134.269 96.3253 133.885 96.2399C133.501 96.1439 133.149 96.0159 132.829 95.8559C132.509 95.6853 132.253 95.4559 132.061 95.1679C131.869 94.8693 131.773 94.4746 131.773 93.9839C131.773 93.4719 131.917 93.0239 132.205 92.6399C132.493 92.2559 132.899 91.9626 133.421 91.7599C133.955 91.5466 134.584 91.4399 135.309 91.4399C135.864 91.4399 136.424 91.5093 136.989 91.6479C137.565 91.7759 138.035 91.9626 138.397 92.2079L137.741 93.4239C137.357 93.1679 136.957 92.9919 136.541 92.8959C136.125 92.7999 135.709 92.7519 135.293 92.7519C134.621 92.7519 134.12 92.8639 133.789 93.0879C133.459 93.3013 133.293 93.5786 133.293 93.9199C133.293 94.2079 133.389 94.4319 133.581 94.5919C133.784 94.7413 134.04 94.8586 134.349 94.9439C134.669 95.0293 135.021 95.1039 135.405 95.1679C135.789 95.2213 136.173 95.2959 136.557 95.3919C136.941 95.4773 137.288 95.5999 137.597 95.7599C137.917 95.9199 138.173 96.1439 138.365 96.4319C138.568 96.7199 138.669 97.1039 138.669 97.5839C138.669 98.0959 138.52 98.5386 138.221 98.9119C137.923 99.2853 137.501 99.5786 136.957 99.7919C136.413 99.9946 135.763 100.096 135.005 100.096Z" fill="black"/>
<path d="M124.113 103.2C123.708 103.2 123.313 103.131 122.929 102.992C122.545 102.864 122.214 102.672 121.937 102.416L122.593 101.264C122.806 101.467 123.041 101.621 123.297 101.728C123.553 101.835 123.825 101.888 124.113 101.888C124.486 101.888 124.796 101.792 125.041 101.6C125.286 101.408 125.516 101.067 125.729 100.576L126.257 99.408L126.417 99.216L129.745 91.52H131.249L127.137 100.848C126.892 101.445 126.614 101.915 126.305 102.256C126.006 102.597 125.676 102.837 125.313 102.976C124.95 103.125 124.55 103.2 124.113 103.2ZM126.129 100.272L122.257 91.52H123.857L127.153 99.072L126.129 100.272Z" fill="black"/>
<path d="M119.276 99.9999V88.1279H120.812V99.9999H119.276Z" fill="black"/>
<path d="M114.978 99.9999V98.2079L114.898 97.8719V94.8159C114.898 94.1653 114.706 93.6639 114.322 93.3119C113.949 92.9493 113.383 92.7679 112.626 92.7679C112.125 92.7679 111.634 92.8533 111.154 93.0239C110.674 93.1839 110.269 93.4026 109.938 93.6799L109.298 92.5279C109.735 92.1759 110.258 91.9093 110.866 91.7279C111.485 91.5359 112.13 91.4399 112.802 91.4399C113.965 91.4399 114.861 91.7226 115.49 92.2879C116.119 92.8533 116.434 93.7173 116.434 94.8799V99.9999H114.978ZM112.194 100.096C111.565 100.096 111.01 99.9893 110.53 99.7759C110.061 99.5626 109.698 99.2693 109.442 98.8959C109.186 98.5119 109.058 98.0799 109.058 97.5999C109.058 97.1413 109.165 96.7253 109.378 96.3519C109.602 95.9786 109.959 95.6799 110.45 95.4559C110.951 95.2319 111.623 95.1199 112.466 95.1199H115.154V96.2239H112.53C111.762 96.2239 111.245 96.3519 110.978 96.6079C110.711 96.8639 110.578 97.1733 110.578 97.5359C110.578 97.9519 110.743 98.2879 111.074 98.5439C111.405 98.7893 111.863 98.9119 112.45 98.9119C113.026 98.9119 113.527 98.7839 113.954 98.5279C114.391 98.2719 114.706 97.8986 114.898 97.4079L115.202 98.4639C114.999 98.9653 114.642 99.3653 114.13 99.6639C113.618 99.9519 112.973 100.096 112.194 100.096Z" fill="black"/>
<path d="M103.351 91.4399C104.045 91.4399 104.653 91.5733 105.175 91.8399C105.709 92.1066 106.125 92.5119 106.423 93.0559C106.722 93.5999 106.871 94.2879 106.871 95.1199V99.9999H105.335V95.2959C105.335 94.4746 105.133 93.8559 104.727 93.4399C104.333 93.0239 103.773 92.8159 103.047 92.8159C102.503 92.8159 102.029 92.9226 101.623 93.1359C101.218 93.3493 100.903 93.6639 100.679 94.0799C100.466 94.4959 100.359 95.0133 100.359 95.6319V99.9999H98.8232V91.5199H100.295V93.8079L100.055 93.1999C100.333 92.6453 100.759 92.2133 101.335 91.9039C101.911 91.5946 102.583 91.4399 103.351 91.4399Z" fill="black"/>
<path d="M85.6324 99.9998L90.7044 88.7998H92.2884L97.3764 99.9998H95.6964L91.1684 89.6958H91.8084L87.2804 99.9998H85.6324ZM87.7924 97.1998L88.2244 95.9198H94.5284L94.9924 97.1998H87.7924Z" fill="black"/>
<path d="M78.5091 99.9999V98.2079L78.4291 97.8719V94.8159C78.4291 94.1653 78.2371 93.6639 77.8531 93.3119C77.4798 92.9493 76.9144 92.7679 76.1571 92.7679C75.6558 92.7679 75.1651 92.8533 74.6851 93.0239C74.2051 93.1839 73.7998 93.4026 73.4691 93.6799L72.8291 92.5279C73.2664 92.1759 73.7891 91.9093 74.3971 91.7279C75.0158 91.5359 75.6611 91.4399 76.3331 91.4399C77.4958 91.4399 78.3918 91.7226 79.0211 92.2879C79.6504 92.8533 79.9651 93.7173 79.9651 94.8799V99.9999H78.5091ZM75.7251 100.096C75.0958 100.096 74.5411 99.9893 74.0611 99.7759C73.5918 99.5626 73.2291 99.2693 72.9731 98.8959C72.7171 98.5119 72.5891 98.0799 72.5891 97.5999C72.5891 97.1413 72.6958 96.7253 72.9091 96.3519C73.1331 95.9786 73.4904 95.6799 73.9811 95.4559C74.4824 95.2319 75.1544 95.1199 75.9971 95.1199H78.6851V96.2239H76.0611C75.2931 96.2239 74.7758 96.3519 74.5091 96.6079C74.2424 96.8639 74.1091 97.1733 74.1091 97.5359C74.1091 97.9519 74.2744 98.2879 74.6051 98.5439C74.9358 98.7893 75.3944 98.9119 75.9811 98.9119C76.5571 98.9119 77.0584 98.7839 77.4851 98.5279C77.9224 98.2719 78.2371 97.8986 78.4291 97.4079L78.7331 98.4639C78.5304 98.9653 78.1731 99.3653 77.6611 99.6639C77.1491 99.9519 76.5038 100.096 75.7251 100.096Z" fill="black"/>
<path d="M69.5321 100.096C68.6787 100.096 68.0174 99.8667 67.5481 99.4081C67.0787 98.9494 66.8441 98.2934 66.8441 97.4401V89.6641H68.3801V97.3761C68.3801 97.8347 68.4921 98.1867 68.7161 98.4321C68.9507 98.6774 69.2814 98.8001 69.7081 98.8001C70.1881 98.8001 70.5881 98.6667 70.9081 98.4001L71.3881 99.5041C71.1534 99.7067 70.8707 99.8561 70.5401 99.9521C70.2201 100.048 69.8841 100.096 69.5321 100.096ZM65.4041 92.7841V91.5201H70.8121V92.7841H65.4041Z" fill="black"/>
<path d="M62.3216 99.9999V98.2079L62.2416 97.8719V94.8159C62.2416 94.1653 62.0496 93.6639 61.6656 93.3119C61.2923 92.9493 60.7269 92.7679 59.9696 92.7679C59.4683 92.7679 58.9776 92.8533 58.4976 93.0239C58.0176 93.1839 57.6123 93.4026 57.2816 93.6799L56.6416 92.5279C57.0789 92.1759 57.6016 91.9093 58.2096 91.7279C58.8283 91.5359 59.4736 91.4399 60.1456 91.4399C61.3083 91.4399 62.2043 91.7226 62.8336 92.2879C63.4629 92.8533 63.7776 93.7173 63.7776 94.8799V99.9999H62.3216ZM59.5376 100.096C58.9083 100.096 58.3536 99.9893 57.8736 99.7759C57.4043 99.5626 57.0416 99.2693 56.7856 98.8959C56.5296 98.5119 56.4016 98.0799 56.4016 97.5999C56.4016 97.1413 56.5083 96.7253 56.7216 96.3519C56.9456 95.9786 57.3029 95.6799 57.7936 95.4559C58.2949 95.2319 58.9669 95.1199 59.8096 95.1199H62.4976V96.2239H59.8736C59.1056 96.2239 58.5883 96.3519 58.3216 96.6079C58.0549 96.8639 57.9216 97.1733 57.9216 97.5359C57.9216 97.9519 58.0869 98.2879 58.4176 98.5439C58.7483 98.7893 59.2069 98.9119 59.7936 98.9119C60.3696 98.9119 60.8709 98.7839 61.2976 98.5279C61.7349 98.2719 62.0496 97.8986 62.2416 97.4079L62.5456 98.4639C62.3429 98.9653 61.9856 99.3653 61.4736 99.6639C60.9616 99.9519 60.3163 100.096 59.5376 100.096Z" fill="black"/>
<path d="M44.0629 99.9998V88.7998H48.7829C49.9775 88.7998 51.0282 89.0345 51.9349 89.5038C52.8522 89.9731 53.5615 90.6291 54.0629 91.4718C54.5749 92.3145 54.8309 93.2905 54.8309 94.3998C54.8309 95.5091 54.5749 96.4851 54.0629 97.3278C53.5615 98.1705 52.8522 98.8265 51.9349 99.2958C51.0282 99.7651 49.9775 99.9998 48.7829 99.9998H44.0629ZM45.6629 98.6078H48.6869C49.6149 98.6078 50.4149 98.4318 51.0869 98.0798C51.7695 97.7278 52.2975 97.2371 52.6709 96.6078C53.0442 95.9678 53.2309 95.2318 53.2309 94.3998C53.2309 93.5571 53.0442 92.8211 52.6709 92.1918C52.2975 91.5625 51.7695 91.0718 51.0869 90.7198C50.4149 90.3678 49.6149 90.1918 48.6869 90.1918H45.6629V98.6078Z" fill="black"/>
<path d="M129.287 80.0959C128.38 80.0959 127.58 79.9093 126.887 79.5359C126.204 79.1626 125.671 78.6506 125.287 77.9999C124.913 77.3493 124.727 76.6026 124.727 75.7599C124.727 74.9173 124.908 74.1706 125.271 73.5199C125.644 72.8693 126.151 72.3626 126.791 71.9999C127.441 71.6266 128.172 71.4399 128.983 71.4399C129.804 71.4399 130.529 71.6213 131.159 71.9839C131.788 72.3466 132.279 72.8586 132.631 73.5199C132.993 74.1706 133.175 74.9333 133.175 75.8079C133.175 75.8719 133.169 75.9466 133.159 76.0319C133.159 76.1173 133.153 76.1973 133.143 76.2719H125.927V75.1679H132.343L131.719 75.5519C131.729 75.0079 131.617 74.5226 131.383 74.0959C131.148 73.6693 130.823 73.3386 130.407 73.1039C130.001 72.8586 129.527 72.7359 128.983 72.7359C128.449 72.7359 127.975 72.8586 127.559 73.1039C127.143 73.3386 126.817 73.6746 126.583 74.1119C126.348 74.5386 126.231 75.0293 126.231 75.5839V75.8399C126.231 76.4053 126.359 76.9119 126.615 77.3599C126.881 77.7973 127.249 78.1386 127.719 78.3839C128.188 78.6293 128.727 78.7519 129.335 78.7519C129.836 78.7519 130.289 78.6666 130.695 78.4959C131.111 78.3253 131.473 78.0693 131.783 77.7279L132.631 78.7199C132.247 79.1679 131.767 79.5093 131.191 79.7439C130.625 79.9786 129.991 80.0959 129.287 80.0959Z" fill="black"/>
<path d="M122.079 80.0961C121.226 80.0961 120.564 79.8667 120.095 79.4081C119.626 78.9494 119.391 78.2934 119.391 77.4401V69.6641H120.927V77.3761C120.927 77.8347 121.039 78.1867 121.263 78.4321C121.498 78.6774 121.828 78.8001 122.255 78.8001C122.735 78.8001 123.135 78.6667 123.455 78.4001L123.935 79.5041C123.7 79.7067 123.418 79.8561 123.087 79.9521C122.767 80.0481 122.431 80.0961 122.079 80.0961ZM117.951 72.7841V71.5201H123.359V72.7841H117.951Z" fill="black"/>
<path d="M113.146 80.0959C112.239 80.0959 111.439 79.9093 110.746 79.5359C110.063 79.1626 109.53 78.6506 109.146 77.9999C108.773 77.3493 108.586 76.6026 108.586 75.7599C108.586 74.9173 108.767 74.1706 109.13 73.5199C109.503 72.8693 110.01 72.3626 110.65 71.9999C111.301 71.6266 112.031 71.4399 112.842 71.4399C113.663 71.4399 114.389 71.6213 115.018 71.9839C115.647 72.3466 116.138 72.8586 116.49 73.5199C116.853 74.1706 117.034 74.9333 117.034 75.8079C117.034 75.8719 117.029 75.9466 117.018 76.0319C117.018 76.1173 117.013 76.1973 117.002 76.2719H109.786V75.1679H116.202L115.578 75.5519C115.589 75.0079 115.477 74.5226 115.242 74.0959C115.007 73.6693 114.682 73.3386 114.266 73.1039C113.861 72.8586 113.386 72.7359 112.842 72.7359C112.309 72.7359 111.834 72.8586 111.418 73.1039C111.002 73.3386 110.677 73.6746 110.442 74.1119C110.207 74.5386 110.09 75.0293 110.09 75.5839V75.8399C110.09 76.4053 110.218 76.9119 110.474 77.3599C110.741 77.7973 111.109 78.1386 111.578 78.3839C112.047 78.6293 112.586 78.7519 113.194 78.7519C113.695 78.7519 114.149 78.6666 114.554 78.4959C114.97 78.3253 115.333 78.0693 115.642 77.7279L116.49 78.7199C116.106 79.1679 115.626 79.5093 115.05 79.7439C114.485 79.9786 113.85 80.0959 113.146 80.0959Z" fill="black"/>
<path d="M102.995 79.9999V71.5199H104.467V73.8239L104.323 73.2479C104.558 72.6613 104.952 72.2133 105.507 71.9039C106.062 71.5946 106.744 71.4399 107.555 71.4399V72.9279C107.491 72.9173 107.427 72.9119 107.363 72.9119C107.31 72.9119 107.256 72.9119 107.203 72.9119C106.382 72.9119 105.731 73.1573 105.251 73.6479C104.771 74.1386 104.531 74.8479 104.531 75.7759V79.9999H102.995Z" fill="black"/>
<path d="M97.5504 80.0959C96.6864 80.0959 95.9131 79.9093 95.2304 79.5359C94.5584 79.1626 94.0304 78.6506 93.6464 77.9999C93.2624 77.3493 93.0704 76.6026 93.0704 75.7599C93.0704 74.9173 93.2624 74.1706 93.6464 73.5199C94.0304 72.8693 94.5584 72.3626 95.2304 71.9999C95.9131 71.6266 96.6864 71.4399 97.5504 71.4399C98.3184 71.4399 99.0011 71.5946 99.5984 71.9039C100.206 72.2026 100.676 72.6506 101.006 73.2479L99.8384 73.9999C99.5611 73.5839 99.2198 73.2799 98.8144 73.0879C98.4198 72.8853 97.9931 72.7839 97.5344 72.7839C96.9798 72.7839 96.4838 72.9066 96.0464 73.1519C95.6091 73.3973 95.2624 73.7439 95.0064 74.1919C94.7504 74.6293 94.6224 75.1519 94.6224 75.7599C94.6224 76.3679 94.7504 76.8959 95.0064 77.3439C95.2624 77.7919 95.6091 78.1386 96.0464 78.3839C96.4838 78.6293 96.9798 78.7519 97.5344 78.7519C97.9931 78.7519 98.4198 78.6559 98.8144 78.4639C99.2198 78.2613 99.5611 77.9519 99.8384 77.5359L101.006 78.2719C100.676 78.8586 100.206 79.3119 99.5984 79.6319C99.0011 79.9413 98.3184 80.0959 97.5504 80.0959Z" fill="black"/>
<path d="M87.4919 71.4399C88.1852 71.4399 88.7932 71.5733 89.3159 71.8399C89.8492 72.1066 90.2652 72.5119 90.5639 73.0559C90.8625 73.5999 91.0119 74.2879 91.0119 75.1199V79.9999H89.4759V75.2959C89.4759 74.4746 89.2732 73.8559 88.8679 73.4399C88.4732 73.0239 87.9132 72.8159 87.1879 72.8159C86.6439 72.8159 86.1692 72.9226 85.7639 73.1359C85.3585 73.3493 85.0439 73.6639 84.8199 74.0799C84.6065 74.4959 84.4999 75.0133 84.4999 75.6319V79.9999H82.9639V71.5199H84.4359V73.8079L84.1959 73.1999C84.4732 72.6453 84.8999 72.2133 85.4759 71.9039C86.0519 71.5946 86.7239 71.4399 87.4919 71.4399Z" fill="black"/>
<path d="M76.4396 80.0959C75.5862 80.0959 74.8289 79.9093 74.1676 79.5359C73.5062 79.1626 72.9836 78.6506 72.5996 77.9999C72.2156 77.3386 72.0236 76.5919 72.0236 75.7599C72.0236 74.9173 72.2156 74.1706 72.5996 73.5199C72.9836 72.8693 73.5062 72.3626 74.1676 71.9999C74.8289 71.6266 75.5862 71.4399 76.4396 71.4399C77.2822 71.4399 78.0342 71.6266 78.6956 71.9999C79.3676 72.3626 79.8902 72.8693 80.2636 73.5199C80.6476 74.1599 80.8396 74.9066 80.8396 75.7599C80.8396 76.6026 80.6476 77.3493 80.2636 77.9999C79.8902 78.6506 79.3676 79.1626 78.6956 79.5359C78.0342 79.9093 77.2822 80.0959 76.4396 80.0959ZM76.4396 78.7519C76.9836 78.7519 77.4689 78.6293 77.8956 78.3839C78.3329 78.1386 78.6742 77.7919 78.9196 77.3439C79.1649 76.8853 79.2876 76.3573 79.2876 75.7599C79.2876 75.1519 79.1649 74.6293 78.9196 74.1919C78.6742 73.7439 78.3329 73.3973 77.8956 73.1519C77.4689 72.9066 76.9836 72.7839 76.4396 72.7839C75.8956 72.7839 75.4102 72.9066 74.9836 73.1519C74.5569 73.3973 74.2156 73.7439 73.9596 74.1919C73.7036 74.6293 73.5756 75.1519 73.5756 75.7599C73.5756 76.3573 73.7036 76.8853 73.9596 77.3439C74.2156 77.7919 74.5569 78.1386 74.9836 78.3839C75.4102 78.6293 75.8956 78.7519 76.4396 78.7519Z" fill="black"/>
<path d="M66.8364 80.1279C65.983 80.1279 65.1937 79.9892 64.4684 79.7119C63.7537 79.4239 63.1297 79.0239 62.5964 78.5119C62.0737 77.9892 61.663 77.3812 61.3644 76.6879C61.0657 75.9945 60.9164 75.2319 60.9164 74.3999C60.9164 73.5679 61.0657 72.8052 61.3644 72.1119C61.663 71.4185 62.079 70.8159 62.6124 70.3039C63.1457 69.7812 63.7697 69.3812 64.4844 69.1039C65.2097 68.8159 65.999 68.6719 66.8524 68.6719C67.7164 68.6719 68.511 68.8212 69.2364 69.1199C69.9724 69.4079 70.5964 69.8399 71.1084 70.4159L70.0684 71.4239C69.6417 70.9759 69.1617 70.6452 68.6284 70.4319C68.095 70.2079 67.5244 70.0959 66.9164 70.0959C66.287 70.0959 65.7004 70.2025 65.1564 70.4159C64.623 70.6292 64.159 70.9279 63.7644 71.3119C63.3697 71.6959 63.0604 72.1545 62.8364 72.6879C62.623 73.2105 62.5164 73.7812 62.5164 74.3999C62.5164 75.0185 62.623 75.5945 62.8364 76.1279C63.0604 76.6505 63.3697 77.1039 63.7644 77.4879C64.159 77.8719 64.623 78.1705 65.1564 78.3839C65.7004 78.5972 66.287 78.7039 66.9164 78.7039C67.5244 78.7039 68.095 78.5972 68.6284 78.3839C69.1617 78.1599 69.6417 77.8185 70.0684 77.3599L71.1084 78.3679C70.5964 78.9439 69.9724 79.3812 69.2364 79.6799C68.511 79.9785 67.711 80.1279 66.8364 80.1279Z" fill="black"/>
</svg>
