<svg width="180" height="180" viewBox="0 0 180 180" fill="none" xmlns="http://www.w3.org/2000/svg">
<circle cx="90" cy="90" r="89" fill="#FFF6FD" stroke="white" stroke-width="2"/>
<path d="M138.923 165.542C128.849 172.066 117.571 176.509 105.754 178.61C93.9372 180.711 81.8193 180.427 70.1136 177.775C58.408 175.123 47.351 170.157 37.5934 163.168C27.8358 156.179 19.5747 147.309 13.2961 137.08C7.01761 126.851 2.84852 115.469 1.03421 103.605C-0.780102 91.7403 -0.202983 79.6329 2.7316 67.9948C5.66619 56.3568 10.899 45.4233 18.122 35.8377C25.345 26.2521 34.4124 18.2081 44.7905 12.179L54.638 29.13C46.5205 33.8458 39.4282 40.1377 33.7785 47.6353C28.1287 55.133 24.0358 63.685 21.7404 72.788C19.445 81.891 18.9936 91.3612 20.4127 100.641C21.8318 109.921 25.0928 118.824 30.0038 126.825C34.9147 134.826 41.3764 141.764 49.0086 147.231C56.6408 152.697 65.2894 156.582 74.4453 158.656C83.6012 160.731 93.0796 160.953 102.323 159.309C111.566 157.666 120.387 154.19 128.266 149.087L138.923 165.542Z" fill="#502D52"/>
<path d="M104.378 1.15583C125.828 4.62719 145.299 15.7423 159.194 32.4488C173.09 49.1553 180.471 70.3251 179.977 92.0493L175.692 91.9518C176.163 71.262 169.133 51.1005 155.899 35.1895C142.665 19.2786 124.122 8.6929 103.693 5.38686L104.378 1.15583Z" fill="#A53691"/>
<path d="M66.8364 80.128C65.9831 80.128 65.1938 79.9893 64.4684 79.712C63.7538 79.424 63.1298 79.024 62.5964 78.512C62.0738 77.9893 61.6631 77.3813 61.3644 76.688C61.0658 75.9947 60.9164 75.232 60.9164 74.4C60.9164 73.568 61.0658 72.8053 61.3644 72.112C61.6631 71.4187 62.0791 70.816 62.6124 70.304C63.1458 69.7813 63.7698 69.3813 64.4844 69.104C65.2098 68.816 65.9991 68.672 66.8524 68.672C67.7164 68.672 68.5111 68.8213 69.2364 69.12C69.9724 69.408 70.5964 69.84 71.1084 70.416L70.0684 71.424C69.6418 70.976 69.1618 70.6453 68.6284 70.432C68.0951 70.208 67.5244 70.096 66.9164 70.096C66.2871 70.096 65.7004 70.2027 65.1564 70.416C64.6231 70.6293 64.1591 70.928 63.7644 71.312C63.3698 71.696 63.0604 72.1547 62.8364 72.688C62.6231 73.2107 62.5164 73.7813 62.5164 74.4C62.5164 75.0187 62.6231 75.5947 62.8364 76.128C63.0604 76.6507 63.3698 77.104 63.7644 77.488C64.1591 77.872 64.6231 78.1707 65.1564 78.384C65.7004 78.5973 66.2871 78.704 66.9164 78.704C67.5244 78.704 68.0951 78.5973 68.6284 78.384C69.1618 78.16 69.6418 77.8187 70.0684 77.36L71.1084 78.368C70.5964 78.944 69.9724 79.3813 69.2364 79.68C68.5111 79.9787 67.7111 80.128 66.8364 80.128ZM76.4396 80.096C75.5862 80.096 74.8289 79.9093 74.1676 79.536C73.5062 79.1627 72.9836 78.6507 72.5996 78C72.2156 77.3387 72.0236 76.592 72.0236 75.76C72.0236 74.9173 72.2156 74.1707 72.5996 73.52C72.9836 72.8693 73.5062 72.3627 74.1676 72C74.8289 71.6267 75.5862 71.44 76.4396 71.44C77.2822 71.44 78.0342 71.6267 78.6956 72C79.3676 72.3627 79.8902 72.8693 80.2636 73.52C80.6476 74.16 80.8396 74.9067 80.8396 75.76C80.8396 76.6027 80.6476 77.3493 80.2636 78C79.8902 78.6507 79.3676 79.1627 78.6956 79.536C78.0342 79.9093 77.2822 80.096 76.4396 80.096ZM76.4396 78.752C76.9836 78.752 77.4689 78.6293 77.8956 78.384C78.3329 78.1387 78.6742 77.792 78.9196 77.344C79.1649 76.8853 79.2876 76.3573 79.2876 75.76C79.2876 75.152 79.1649 74.6293 78.9196 74.192C78.6742 73.744 78.3329 73.3973 77.8956 73.152C77.4689 72.9067 76.9836 72.784 76.4396 72.784C75.8956 72.784 75.4102 72.9067 74.9836 73.152C74.5569 73.3973 74.2156 73.744 73.9596 74.192C73.7036 74.6293 73.5756 75.152 73.5756 75.76C73.5756 76.3573 73.7036 76.8853 73.9596 77.344C74.2156 77.792 74.5569 78.1387 74.9836 78.384C75.4102 78.6293 75.8956 78.752 76.4396 78.752ZM87.4918 71.44C88.1851 71.44 88.7931 71.5733 89.3158 71.84C89.8491 72.1067 90.2651 72.512 90.5638 73.056C90.8625 73.6 91.0118 74.288 91.0118 75.12V80H89.4758V75.296C89.4758 74.4747 89.2731 73.856 88.8678 73.44C88.4731 73.024 87.9131 72.816 87.1878 72.816C86.6438 72.816 86.1691 72.9227 85.7638 73.136C85.3585 73.3493 85.0438 73.664 84.8198 74.08C84.6065 74.496 84.4998 75.0133 84.4998 75.632V80H82.9638V71.52H84.4358V73.808L84.1958 73.2C84.4731 72.6453 84.8998 72.2133 85.4758 71.904C86.0518 71.5947 86.7238 71.44 87.4918 71.44ZM97.5504 80.096C96.6864 80.096 95.9131 79.9093 95.2304 79.536C94.5584 79.1627 94.0304 78.6507 93.6464 78C93.2624 77.3493 93.0704 76.6027 93.0704 75.76C93.0704 74.9173 93.2624 74.1707 93.6464 73.52C94.0304 72.8693 94.5584 72.3627 95.2304 72C95.9131 71.6267 96.6864 71.44 97.5504 71.44C98.3184 71.44 99.0011 71.5947 99.5984 71.904C100.206 72.2027 100.676 72.6507 101.006 73.248L99.8384 74C99.5611 73.584 99.2198 73.28 98.8144 73.088C98.4198 72.8853 97.9931 72.784 97.5344 72.784C96.9798 72.784 96.4838 72.9067 96.0464 73.152C95.6091 73.3973 95.2624 73.744 95.0064 74.192C94.7504 74.6293 94.6224 75.152 94.6224 75.76C94.6224 76.368 94.7504 76.896 95.0064 77.344C95.2624 77.792 95.6091 78.1387 96.0464 78.384C96.4838 78.6293 96.9798 78.752 97.5344 78.752C97.9931 78.752 98.4198 78.656 98.8144 78.464C99.2198 78.2613 99.5611 77.952 99.8384 77.536L101.006 78.272C100.676 78.8587 100.206 79.312 99.5984 79.632C99.0011 79.9413 98.3184 80.096 97.5504 80.096ZM102.995 80V71.52H104.467V73.824L104.323 73.248C104.558 72.6613 104.952 72.2133 105.507 71.904C106.062 71.5947 106.744 71.44 107.555 71.44V72.928C107.491 72.9173 107.427 72.912 107.363 72.912C107.31 72.912 107.256 72.912 107.203 72.912C106.382 72.912 105.731 73.1573 105.251 73.648C104.771 74.1387 104.531 74.848 104.531 75.776V80H102.995ZM113.146 80.096C112.239 80.096 111.439 79.9093 110.746 79.536C110.063 79.1627 109.53 78.6507 109.146 78C108.773 77.3493 108.586 76.6027 108.586 75.76C108.586 74.9173 108.767 74.1707 109.13 73.52C109.503 72.8693 110.01 72.3627 110.65 72C111.301 71.6267 112.031 71.44 112.842 71.44C113.663 71.44 114.389 71.6213 115.018 71.984C115.647 72.3467 116.138 72.8587 116.49 73.52C116.853 74.1707 117.034 74.9333 117.034 75.808C117.034 75.872 117.029 75.9467 117.018 76.032C117.018 76.1173 117.013 76.1973 117.002 76.272H109.786V75.168H116.202L115.578 75.552C115.589 75.008 115.477 74.5227 115.242 74.096C115.007 73.6693 114.682 73.3387 114.266 73.104C113.861 72.8587 113.386 72.736 112.842 72.736C112.309 72.736 111.834 72.8587 111.418 73.104C111.002 73.3387 110.677 73.6747 110.442 74.112C110.207 74.5387 110.09 75.0293 110.09 75.584V75.84C110.09 76.4053 110.218 76.912 110.474 77.36C110.741 77.7973 111.109 78.1387 111.578 78.384C112.047 78.6293 112.586 78.752 113.194 78.752C113.695 78.752 114.149 78.6667 114.554 78.496C114.97 78.3253 115.333 78.0693 115.642 77.728L116.49 78.72C116.106 79.168 115.626 79.5093 115.05 79.744C114.485 79.9787 113.85 80.096 113.146 80.096ZM122.079 80.096C121.226 80.096 120.564 79.8667 120.095 79.408C119.626 78.9493 119.391 78.2933 119.391 77.44V69.664H120.927V77.376C120.927 77.8347 121.039 78.1867 121.263 78.432C121.498 78.6773 121.828 78.8 122.255 78.8C122.735 78.8 123.135 78.6667 123.455 78.4L123.935 79.504C123.7 79.7067 123.418 79.856 123.087 79.952C122.767 80.048 122.431 80.096 122.079 80.096ZM117.951 72.784V71.52H123.359V72.784H117.951ZM129.287 80.096C128.38 80.096 127.58 79.9093 126.887 79.536C126.204 79.1627 125.671 78.6507 125.287 78C124.913 77.3493 124.727 76.6027 124.727 75.76C124.727 74.9173 124.908 74.1707 125.271 73.52C125.644 72.8693 126.151 72.3627 126.791 72C127.441 71.6267 128.172 71.44 128.983 71.44C129.804 71.44 130.529 71.6213 131.159 71.984C131.788 72.3467 132.279 72.8587 132.631 73.52C132.993 74.1707 133.175 74.9333 133.175 75.808C133.175 75.872 133.169 75.9467 133.159 76.032C133.159 76.1173 133.153 76.1973 133.143 76.272H125.927V75.168H132.343L131.719 75.552C131.729 75.008 131.617 74.5227 131.383 74.096C131.148 73.6693 130.823 73.3387 130.407 73.104C130.001 72.8587 129.527 72.736 128.983 72.736C128.449 72.736 127.975 72.8587 127.559 73.104C127.143 73.3387 126.817 73.6747 126.583 74.112C126.348 74.5387 126.231 75.0293 126.231 75.584V75.84C126.231 76.4053 126.359 76.912 126.615 77.36C126.881 77.7973 127.249 78.1387 127.719 78.384C128.188 78.6293 128.727 78.752 129.335 78.752C129.836 78.752 130.289 78.6667 130.695 78.496C131.111 78.3253 131.473 78.0693 131.783 77.728L132.631 78.72C132.247 79.168 131.767 79.5093 131.191 79.744C130.625 79.9787 129.991 80.096 129.287 80.096ZM44.0628 100V88.8H48.7828C49.9775 88.8 51.0281 89.0347 51.9348 89.504C52.8521 89.9733 53.5615 90.6293 54.0628 91.472C54.5748 92.3147 54.8308 93.2907 54.8308 94.4C54.8308 95.5093 54.5748 96.4853 54.0628 97.328C53.5615 98.1707 52.8521 98.8267 51.9348 99.296C51.0281 99.7653 49.9775 100 48.7828 100H44.0628ZM45.6628 98.608H48.6868C49.6148 98.608 50.4148 98.432 51.0868 98.08C51.7695 97.728 52.2975 97.2373 52.6708 96.608C53.0441 95.968 53.2308 95.232 53.2308 94.4C53.2308 93.5573 53.0441 92.8213 52.6708 92.192C52.2975 91.5627 51.7695 91.072 51.0868 90.72C50.4148 90.368 49.6148 90.192 48.6868 90.192H45.6628V98.608ZM62.3216 100V98.208L62.2416 97.872V94.816C62.2416 94.1653 62.0496 93.664 61.6656 93.312C61.2922 92.9493 60.7269 92.768 59.9696 92.768C59.4682 92.768 58.9776 92.8533 58.4976 93.024C58.0176 93.184 57.6122 93.4027 57.2816 93.68L56.6416 92.528C57.0789 92.176 57.6016 91.9093 58.2096 91.728C58.8282 91.536 59.4736 91.44 60.1456 91.44C61.3082 91.44 62.2042 91.7227 62.8336 92.288C63.4629 92.8533 63.7776 93.7173 63.7776 94.88V100H62.3216ZM59.5376 100.096C58.9082 100.096 58.3536 99.9893 57.8736 99.776C57.4042 99.5627 57.0416 99.2693 56.7856 98.896C56.5296 98.512 56.4016 98.08 56.4016 97.6C56.4016 97.1413 56.5082 96.7253 56.7216 96.352C56.9456 95.9787 57.3029 95.68 57.7936 95.456C58.2949 95.232 58.9669 95.12 59.8096 95.12H62.4976V96.224H59.8736C59.1056 96.224 58.5882 96.352 58.3216 96.608C58.0549 96.864 57.9216 97.1733 57.9216 97.536C57.9216 97.952 58.0869 98.288 58.4176 98.544C58.7482 98.7893 59.2069 98.912 59.7936 98.912C60.3696 98.912 60.8709 98.784 61.2976 98.528C61.7349 98.272 62.0496 97.8987 62.2416 97.408L62.5456 98.464C62.3429 98.9653 61.9856 99.3653 61.4736 99.664C60.9616 99.952 60.3162 100.096 59.5376 100.096ZM69.5321 100.096C68.6787 100.096 68.0174 99.8667 67.5481 99.408C67.0787 98.9493 66.8441 98.2933 66.8441 97.44V89.664H68.3801V97.376C68.3801 97.8347 68.4921 98.1867 68.7161 98.432C68.9507 98.6773 69.2814 98.8 69.7081 98.8C70.1881 98.8 70.5881 98.6667 70.9081 98.4L71.3881 99.504C71.1534 99.7067 70.8707 99.856 70.5401 99.952C70.2201 100.048 69.8841 100.096 69.5321 100.096ZM65.4041 92.784V91.52H70.8121V92.784H65.4041ZM78.5091 100V98.208L78.4291 97.872V94.816C78.4291 94.1653 78.2371 93.664 77.8531 93.312C77.4797 92.9493 76.9144 92.768 76.1571 92.768C75.6557 92.768 75.1651 92.8533 74.6851 93.024C74.2051 93.184 73.7997 93.4027 73.4691 93.68L72.8291 92.528C73.2664 92.176 73.7891 91.9093 74.3971 91.728C75.0157 91.536 75.6611 91.44 76.3331 91.44C77.4957 91.44 78.3917 91.7227 79.0211 92.288C79.6504 92.8533 79.9651 93.7173 79.9651 94.88V100H78.5091ZM75.7251 100.096C75.0957 100.096 74.5411 99.9893 74.0611 99.776C73.5917 99.5627 73.2291 99.2693 72.9731 98.896C72.7171 98.512 72.5891 98.08 72.5891 97.6C72.5891 97.1413 72.6957 96.7253 72.9091 96.352C73.1331 95.9787 73.4904 95.68 73.9811 95.456C74.4824 95.232 75.1544 95.12 75.9971 95.12H78.6851V96.224H76.0611C75.2931 96.224 74.7757 96.352 74.5091 96.608C74.2424 96.864 74.1091 97.1733 74.1091 97.536C74.1091 97.952 74.2744 98.288 74.6051 98.544C74.9357 98.7893 75.3944 98.912 75.9811 98.912C76.5571 98.912 77.0584 98.784 77.4851 98.528C77.9224 98.272 78.2371 97.8987 78.4291 97.408L78.7331 98.464C78.5304 98.9653 78.1731 99.3653 77.6611 99.664C77.1491 99.952 76.5037 100.096 75.7251 100.096ZM85.6324 100L90.7044 88.8H92.2884L97.3764 100H95.6964L91.1684 89.696H91.8084L87.2804 100H85.6324ZM87.7924 97.2L88.2244 95.92H94.5284L94.9924 97.2H87.7924ZM103.351 91.44C104.045 91.44 104.653 91.5733 105.175 91.84C105.709 92.1067 106.125 92.512 106.423 93.056C106.722 93.6 106.871 94.288 106.871 95.12V100H105.335V95.296C105.335 94.4747 105.133 93.856 104.727 93.44C104.333 93.024 103.773 92.816 103.047 92.816C102.503 92.816 102.029 92.9227 101.623 93.136C101.218 93.3493 100.903 93.664 100.679 94.08C100.466 94.496 100.359 95.0133 100.359 95.632V100H98.8232V91.52H100.295V93.808L100.055 93.2C100.333 92.6453 100.759 92.2133 101.335 91.904C101.911 91.5947 102.583 91.44 103.351 91.44ZM114.978 100V98.208L114.898 97.872V94.816C114.898 94.1653 114.706 93.664 114.322 93.312C113.948 92.9493 113.383 92.768 112.626 92.768C112.124 92.768 111.634 92.8533 111.154 93.024C110.674 93.184 110.268 93.4027 109.938 93.68L109.298 92.528C109.735 92.176 110.258 91.9093 110.866 91.728C111.484 91.536 112.13 91.44 112.802 91.44C113.964 91.44 114.86 91.7227 115.49 92.288C116.119 92.8533 116.434 93.7173 116.434 94.88V100H114.978ZM112.194 100.096C111.564 100.096 111.01 99.9893 110.53 99.776C110.06 99.5627 109.698 99.2693 109.442 98.896C109.186 98.512 109.058 98.08 109.058 97.6C109.058 97.1413 109.164 96.7253 109.378 96.352C109.602 95.9787 109.959 95.68 110.45 95.456C110.951 95.232 111.623 95.12 112.466 95.12H115.154V96.224H112.53C111.762 96.224 111.244 96.352 110.978 96.608C110.711 96.864 110.578 97.1733 110.578 97.536C110.578 97.952 110.743 98.288 111.074 98.544C111.404 98.7893 111.863 98.912 112.45 98.912C113.026 98.912 113.527 98.784 113.954 98.528C114.391 98.272 114.706 97.8987 114.898 97.408L115.202 98.464C114.999 98.9653 114.642 99.3653 114.13 99.664C113.618 99.952 112.972 100.096 112.194 100.096ZM119.276 100V88.128H120.812V100H119.276ZM124.113 103.2C123.708 103.2 123.313 103.131 122.929 102.992C122.545 102.864 122.214 102.672 121.937 102.416L122.593 101.264C122.806 101.467 123.041 101.621 123.297 101.728C123.553 101.835 123.825 101.888 124.113 101.888C124.486 101.888 124.796 101.792 125.041 101.6C125.286 101.408 125.516 101.067 125.729 100.576L126.257 99.408L126.417 99.216L129.745 91.52H131.249L127.137 100.848C126.892 101.445 126.614 101.915 126.305 102.256C126.006 102.597 125.676 102.837 125.313 102.976C124.95 103.125 124.55 103.2 124.113 103.2ZM126.129 100.272L122.257 91.52H123.857L127.153 99.072L126.129 100.272ZM135.005 100.096C134.301 100.096 133.629 100 132.989 99.808C132.36 99.616 131.864 99.3813 131.501 99.104L132.141 97.888C132.504 98.1333 132.952 98.3413 133.485 98.512C134.019 98.6827 134.563 98.768 135.117 98.768C135.832 98.768 136.344 98.6667 136.653 98.464C136.973 98.2613 137.133 97.9787 137.133 97.616C137.133 97.3493 137.037 97.1413 136.845 96.992C136.653 96.8427 136.397 96.7307 136.077 96.656C135.768 96.5813 135.421 96.5173 135.037 96.464C134.653 96.4 134.269 96.3253 133.885 96.24C133.501 96.144 133.149 96.016 132.829 95.856C132.509 95.6853 132.253 95.456 132.061 95.168C131.869 94.8693 131.773 94.4747 131.773 93.984C131.773 93.472 131.917 93.024 132.205 92.64C132.493 92.256 132.899 91.9627 133.421 91.76C133.955 91.5467 134.584 91.44 135.309 91.44C135.864 91.44 136.424 91.5093 136.989 91.648C137.565 91.776 138.035 91.9627 138.397 92.208L137.741 93.424C137.357 93.168 136.957 92.992 136.541 92.896C136.125 92.8 135.709 92.752 135.293 92.752C134.621 92.752 134.12 92.864 133.789 93.088C133.459 93.3013 133.293 93.5787 133.293 93.92C133.293 94.208 133.389 94.432 133.581 94.592C133.784 94.7413 134.04 94.8587 134.349 94.944C134.669 95.0293 135.021 95.104 135.405 95.168C135.789 95.2213 136.173 95.296 136.557 95.392C136.941 95.4773 137.288 95.6 137.597 95.76C137.917 95.92 138.173 96.144 138.365 96.432C138.568 96.72 138.669 97.104 138.669 97.584C138.669 98.096 138.52 98.5387 138.221 98.912C137.923 99.2853 137.501 99.5787 136.957 99.792C136.413 99.9947 135.763 100.096 135.005 100.096ZM140.589 100V91.52H142.125V100H140.589ZM141.357 89.888C141.058 89.888 140.807 89.792 140.605 89.6C140.413 89.408 140.317 89.1733 140.317 88.896C140.317 88.608 140.413 88.368 140.605 88.176C140.807 87.984 141.058 87.888 141.357 87.888C141.655 87.888 141.901 87.984 142.093 88.176C142.295 88.3573 142.397 88.5867 142.397 88.864C142.397 89.152 142.301 89.3973 142.109 89.6C141.917 89.792 141.666 89.888 141.357 89.888ZM147.49 100.096C146.786 100.096 146.114 100 145.474 99.808C144.844 99.616 144.348 99.3813 143.986 99.104L144.626 97.888C144.988 98.1333 145.436 98.3413 145.97 98.512C146.503 98.6827 147.047 98.768 147.602 98.768C148.316 98.768 148.828 98.6667 149.138 98.464C149.458 98.2613 149.618 97.9787 149.618 97.616C149.618 97.3493 149.522 97.1413 149.33 96.992C149.138 96.8427 148.882 96.7307 148.562 96.656C148.252 96.5813 147.906 96.5173 147.522 96.464C147.138 96.4 146.754 96.3253 146.37 96.24C145.986 96.144 145.634 96.016 145.314 95.856C144.994 95.6853 144.738 95.456 144.546 95.168C144.354 94.8693 144.258 94.4747 144.258 93.984C144.258 93.472 144.402 93.024 144.69 92.64C144.978 92.256 145.383 91.9627 145.906 91.76C146.439 91.5467 147.068 91.44 147.794 91.44C148.348 91.44 148.908 91.5093 149.474 91.648C150.05 91.776 150.519 91.9627 150.882 92.208L150.226 93.424C149.842 93.168 149.442 92.992 149.026 92.896C148.61 92.8 148.194 92.752 147.778 92.752C147.106 92.752 146.604 92.864 146.274 93.088C145.943 93.3013 145.778 93.5787 145.778 93.92C145.778 94.208 145.874 94.432 146.066 94.592C146.268 94.7413 146.524 94.8587 146.834 94.944C147.154 95.0293 147.506 95.104 147.89 95.168C148.274 95.2213 148.658 95.296 149.042 95.392C149.426 95.4773 149.772 95.6 150.082 95.76C150.402 95.92 150.658 96.144 150.85 96.432C151.052 96.72 151.154 97.104 151.154 97.584C151.154 98.096 151.004 98.5387 150.706 98.912C150.407 99.2853 149.986 99.5787 149.442 99.792C148.898 99.9947 148.247 100.096 147.49 100.096Z" fill="black"/>
</svg>
