<svg width="180" height="180" viewBox="0 0 180 180" fill="none" xmlns="http://www.w3.org/2000/svg">
<circle cx="90" cy="90" r="89" fill="#FFF6FD" stroke="white" stroke-width="2"/>
<path d="M138.923 165.542C128.849 172.066 117.571 176.509 105.754 178.61C93.9372 180.711 81.8193 180.427 70.1136 177.775C58.408 175.123 47.351 170.157 37.5934 163.168C27.8358 156.179 19.5747 147.309 13.2961 137.08C7.01761 126.851 2.84852 115.469 1.03421 103.605C-0.780102 91.7403 -0.202983 79.6329 2.7316 67.9948C5.66619 56.3568 10.899 45.4233 18.122 35.8377C25.345 26.2521 34.4124 18.2081 44.7905 12.179L54.638 29.13C46.5205 33.8458 39.4282 40.1377 33.7785 47.6353C28.1287 55.133 24.0358 63.685 21.7404 72.788C19.445 81.891 18.9936 91.3612 20.4127 100.641C21.8318 109.921 25.0928 118.824 30.0038 126.825C34.9147 134.826 41.3764 141.764 49.0086 147.231C56.6408 152.697 65.2894 156.582 74.4453 158.656C83.6012 160.731 93.0796 160.953 102.323 159.309C111.566 157.666 120.387 154.19 128.266 149.087L138.923 165.542Z" fill="#502D52"/>
<path d="M70.0628 80V68.8H71.6628V78.608H77.7268V80H70.0628ZM82.8614 80.096C82.0081 80.096 81.2508 79.9093 80.5894 79.536C79.9281 79.1627 79.4054 78.6507 79.0214 78C78.6374 77.3387 78.4454 76.592 78.4454 75.76C78.4454 74.9173 78.6374 74.1707 79.0214 73.52C79.4054 72.8693 79.9281 72.3627 80.5894 72C81.2508 71.6267 82.0081 71.44 82.8614 71.44C83.7041 71.44 84.4561 71.6267 85.1174 72C85.7894 72.3627 86.3121 72.8693 86.6854 73.52C87.0694 74.16 87.2614 74.9067 87.2614 75.76C87.2614 76.6027 87.0694 77.3493 86.6854 78C86.3121 78.6507 85.7894 79.1627 85.1174 79.536C84.4561 79.9093 83.7041 80.096 82.8614 80.096ZM82.8614 78.752C83.4054 78.752 83.8908 78.6293 84.3174 78.384C84.7548 78.1387 85.0961 77.792 85.3414 77.344C85.5868 76.8853 85.7094 76.3573 85.7094 75.76C85.7094 75.152 85.5868 74.6293 85.3414 74.192C85.0961 73.744 84.7548 73.3973 84.3174 73.152C83.8908 72.9067 83.4054 72.784 82.8614 72.784C82.3174 72.784 81.8321 72.9067 81.4054 73.152C80.9788 73.3973 80.6374 73.744 80.3814 74.192C80.1254 74.6293 79.9974 75.152 79.9974 75.76C79.9974 76.3573 80.1254 76.8853 80.3814 77.344C80.6374 77.792 80.9788 78.1387 81.4054 78.384C81.8321 78.6293 82.3174 78.752 82.8614 78.752ZM93.0977 83.2C92.319 83.2 91.5617 83.088 90.8257 82.864C90.1004 82.6507 89.5084 82.3413 89.0497 81.936L89.7857 80.752C90.1804 81.0933 90.6657 81.36 91.2417 81.552C91.8177 81.7547 92.4204 81.856 93.0497 81.856C94.0524 81.856 94.7884 81.6213 95.2577 81.152C95.727 80.6827 95.9617 79.968 95.9617 79.008V77.216L96.1217 75.536L96.0417 73.84V71.52H97.4977V78.848C97.4977 80.3413 97.1244 81.44 96.3777 82.144C95.631 82.848 94.5377 83.2 93.0977 83.2ZM92.9057 79.648C92.0844 79.648 91.3484 79.4773 90.6977 79.136C90.0577 78.784 89.5457 78.2987 89.1617 77.68C88.7884 77.0613 88.6017 76.3467 88.6017 75.536C88.6017 74.7147 88.7884 74 89.1617 73.392C89.5457 72.7733 90.0577 72.2933 90.6977 71.952C91.3484 71.6107 92.0844 71.44 92.9057 71.44C93.631 71.44 94.2924 71.5893 94.8897 71.888C95.487 72.176 95.9617 72.624 96.3137 73.232C96.6764 73.84 96.8577 74.608 96.8577 75.536C96.8577 76.4533 96.6764 77.216 96.3137 77.824C95.9617 78.432 95.487 78.8907 94.8897 79.2C94.2924 79.4987 93.631 79.648 92.9057 79.648ZM93.0817 78.304C93.647 78.304 94.1484 78.1867 94.5857 77.952C95.023 77.7173 95.3644 77.392 95.6097 76.976C95.8657 76.56 95.9937 76.08 95.9937 75.536C95.9937 74.992 95.8657 74.512 95.6097 74.096C95.3644 73.68 95.023 73.36 94.5857 73.136C94.1484 72.9013 93.647 72.784 93.0817 72.784C92.5164 72.784 92.0097 72.9013 91.5617 73.136C91.1244 73.36 90.7777 73.68 90.5217 74.096C90.2764 74.512 90.1537 74.992 90.1537 75.536C90.1537 76.08 90.2764 76.56 90.5217 76.976C90.7777 77.392 91.1244 77.7173 91.5617 77.952C92.0097 78.1867 92.5164 78.304 93.0817 78.304ZM100.433 80V71.52H101.969V80H100.433ZM101.201 69.888C100.902 69.888 100.651 69.792 100.449 69.6C100.257 69.408 100.161 69.1733 100.161 68.896C100.161 68.608 100.257 68.368 100.449 68.176C100.651 67.984 100.902 67.888 101.201 67.888C101.499 67.888 101.745 67.984 101.937 68.176C102.139 68.3573 102.241 68.5867 102.241 68.864C102.241 69.152 102.145 69.3973 101.953 69.6C101.761 69.792 101.51 69.888 101.201 69.888ZM108.597 80.096C107.733 80.096 106.96 79.9093 106.277 79.536C105.605 79.1627 105.077 78.6507 104.693 78C104.309 77.3493 104.117 76.6027 104.117 75.76C104.117 74.9173 104.309 74.1707 104.693 73.52C105.077 72.8693 105.605 72.3627 106.277 72C106.96 71.6267 107.733 71.44 108.597 71.44C109.365 71.44 110.048 71.5947 110.645 71.904C111.253 72.2027 111.723 72.6507 112.053 73.248L110.885 74C110.608 73.584 110.267 73.28 109.861 73.088C109.467 72.8853 109.04 72.784 108.581 72.784C108.027 72.784 107.531 72.9067 107.093 73.152C106.656 73.3973 106.309 73.744 106.053 74.192C105.797 74.6293 105.669 75.152 105.669 75.76C105.669 76.368 105.797 76.896 106.053 77.344C106.309 77.792 106.656 78.1387 107.093 78.384C107.531 78.6293 108.027 78.752 108.581 78.752C109.04 78.752 109.467 78.656 109.861 78.464C110.267 78.2613 110.608 77.952 110.885 77.536L112.053 78.272C111.723 78.8587 111.253 79.312 110.645 79.632C110.048 79.9413 109.365 80.096 108.597 80.096ZM119.306 80V78.208L119.226 77.872V74.816C119.226 74.1653 119.034 73.664 118.65 73.312C118.277 72.9493 117.711 72.768 116.954 72.768C116.453 72.768 115.962 72.8533 115.482 73.024C115.002 73.184 114.597 73.4027 114.266 73.68L113.626 72.528C114.063 72.176 114.586 71.9093 115.194 71.728C115.813 71.536 116.458 71.44 117.13 71.44C118.293 71.44 119.189 71.7227 119.818 72.288C120.447 72.8533 120.762 73.7173 120.762 74.88V80H119.306ZM116.522 80.096C115.893 80.096 115.338 79.9893 114.858 79.776C114.389 79.5627 114.026 79.2693 113.77 78.896C113.514 78.512 113.386 78.08 113.386 77.6C113.386 77.1413 113.493 76.7253 113.706 76.352C113.93 75.9787 114.287 75.68 114.778 75.456C115.279 75.232 115.951 75.12 116.794 75.12H119.482V76.224H116.858C116.09 76.224 115.573 76.352 115.306 76.608C115.039 76.864 114.906 77.1733 114.906 77.536C114.906 77.952 115.071 78.288 115.402 78.544C115.733 78.7893 116.191 78.912 116.778 78.912C117.354 78.912 117.855 78.784 118.282 78.528C118.719 78.272 119.034 77.8987 119.226 77.408L119.53 78.464C119.327 78.9653 118.97 79.3653 118.458 79.664C117.946 79.952 117.301 80.096 116.522 80.096ZM123.604 80V68.128H125.14V80H123.604ZM60.1438 93.632H65.9038V94.992H60.1438V93.632ZM60.2878 98.608H66.8158V100H58.6878V88.8H66.5918V90.192H60.2878V98.608ZM67.7631 100L71.4111 95.264L71.3951 96.048L67.9231 91.52H69.6351L72.2911 95.008H71.6351L74.2911 91.52H75.9711L72.4511 96.08L72.4671 95.264L76.1471 100H74.4031L71.6031 96.288L72.2271 96.384L69.4751 100H67.7631ZM81.3179 100.096C80.4113 100.096 79.6113 99.9093 78.9179 99.536C78.2353 99.1627 77.7019 98.6507 77.3179 98C76.9446 97.3493 76.7579 96.6027 76.7579 95.76C76.7579 94.9173 76.9393 94.1707 77.3019 93.52C77.6753 92.8693 78.1819 92.3627 78.8219 92C79.4726 91.6267 80.2033 91.44 81.0139 91.44C81.8353 91.44 82.5606 91.6213 83.1899 91.984C83.8193 92.3467 84.3099 92.8587 84.6619 93.52C85.0246 94.1707 85.2059 94.9333 85.2059 95.808C85.2059 95.872 85.2006 95.9467 85.1899 96.032C85.1899 96.1173 85.1846 96.1973 85.1739 96.272H77.9579V95.168H84.3739L83.7499 95.552C83.7606 95.008 83.6486 94.5227 83.4139 94.096C83.1793 93.6693 82.8539 93.3387 82.4379 93.104C82.0326 92.8587 81.5579 92.736 81.0139 92.736C80.4806 92.736 80.0059 92.8587 79.5899 93.104C79.1739 93.3387 78.8486 93.6747 78.6139 94.112C78.3793 94.5387 78.2619 95.0293 78.2619 95.584V95.84C78.2619 96.4053 78.3899 96.912 78.6459 97.36C78.9126 97.7973 79.2806 98.1387 79.7499 98.384C80.2193 98.6293 80.7579 98.752 81.3659 98.752C81.8673 98.752 82.3206 98.6667 82.7259 98.496C83.1419 98.3253 83.5046 98.0693 83.8139 97.728L84.6619 98.72C84.2779 99.168 83.7979 99.5093 83.2219 99.744C82.6566 99.9787 82.0219 100.096 81.3179 100.096ZM91.0348 100.096C90.1708 100.096 89.3975 99.9093 88.7148 99.536C88.0428 99.1627 87.5148 98.6507 87.1308 98C86.7468 97.3493 86.5548 96.6027 86.5548 95.76C86.5548 94.9173 86.7468 94.1707 87.1308 93.52C87.5148 92.8693 88.0428 92.3627 88.7148 92C89.3975 91.6267 90.1708 91.44 91.0348 91.44C91.8028 91.44 92.4855 91.5947 93.0828 91.904C93.6908 92.2027 94.1601 92.6507 94.4908 93.248L93.3228 94C93.0455 93.584 92.7041 93.28 92.2988 93.088C91.9041 92.8853 91.4775 92.784 91.0188 92.784C90.4641 92.784 89.9681 92.9067 89.5308 93.152C89.0935 93.3973 88.7468 93.744 88.4908 94.192C88.2348 94.6293 88.1068 95.152 88.1068 95.76C88.1068 96.368 88.2348 96.896 88.4908 97.344C88.7468 97.792 89.0935 98.1387 89.5308 98.384C89.9681 98.6293 90.4641 98.752 91.0188 98.752C91.4775 98.752 91.9041 98.656 92.2988 98.464C92.7041 98.2613 93.0455 97.952 93.3228 97.536L94.4908 98.272C94.1601 98.8587 93.6908 99.312 93.0828 99.632C92.4855 99.9413 91.8028 100.096 91.0348 100.096ZM100.047 100.096C99.3221 100.096 98.6821 99.9627 98.1274 99.696C97.5834 99.4293 97.1568 99.024 96.8474 98.48C96.5488 97.9253 96.3994 97.232 96.3994 96.4V91.52H97.9354V96.224C97.9354 97.056 98.1328 97.68 98.5274 98.096C98.9328 98.512 99.4981 98.72 100.223 98.72C100.757 98.72 101.221 98.6133 101.615 98.4C102.01 98.176 102.314 97.856 102.527 97.44C102.741 97.0133 102.847 96.5013 102.847 95.904V91.52H104.383V100H102.927V97.712L103.167 98.32C102.89 98.8853 102.474 99.3227 101.919 99.632C101.365 99.9413 100.741 100.096 100.047 100.096ZM110.22 100.096C109.366 100.096 108.705 99.8667 108.236 99.408C107.766 98.9493 107.532 98.2933 107.532 97.44V89.664H109.068V97.376C109.068 97.8347 109.18 98.1867 109.404 98.432C109.638 98.6773 109.969 98.8 110.396 98.8C110.876 98.8 111.276 98.6667 111.596 98.4L112.076 99.504C111.841 99.7067 111.558 99.856 111.228 99.952C110.908 100.048 110.572 100.096 110.22 100.096ZM106.092 92.784V91.52H111.5V92.784H106.092ZM113.933 100V91.52H115.469V100H113.933ZM114.701 89.888C114.402 89.888 114.151 89.792 113.949 89.6C113.757 89.408 113.661 89.1733 113.661 88.896C113.661 88.608 113.757 88.368 113.949 88.176C114.151 87.984 114.402 87.888 114.701 87.888C114.999 87.888 115.245 87.984 115.437 88.176C115.639 88.3573 115.741 88.5867 115.741 88.864C115.741 89.152 115.645 89.3973 115.453 89.6C115.261 89.792 115.01 89.888 114.701 89.888ZM122.033 100.096C121.18 100.096 120.423 99.9093 119.761 99.536C119.1 99.1627 118.577 98.6507 118.193 98C117.809 97.3387 117.617 96.592 117.617 95.76C117.617 94.9173 117.809 94.1707 118.193 93.52C118.577 92.8693 119.1 92.3627 119.761 92C120.423 91.6267 121.18 91.44 122.033 91.44C122.876 91.44 123.628 91.6267 124.289 92C124.961 92.3627 125.484 92.8693 125.857 93.52C126.241 94.16 126.433 94.9067 126.433 95.76C126.433 96.6027 126.241 97.3493 125.857 98C125.484 98.6507 124.961 99.1627 124.289 99.536C123.628 99.9093 122.876 100.096 122.033 100.096ZM122.033 98.752C122.577 98.752 123.063 98.6293 123.489 98.384C123.927 98.1387 124.268 97.792 124.513 97.344C124.759 96.8853 124.881 96.3573 124.881 95.76C124.881 95.152 124.759 94.6293 124.513 94.192C124.268 93.744 123.927 93.3973 123.489 93.152C123.063 92.9067 122.577 92.784 122.033 92.784C121.489 92.784 121.004 92.9067 120.577 93.152C120.151 93.3973 119.809 93.744 119.553 94.192C119.297 94.6293 119.169 95.152 119.169 95.76C119.169 96.3573 119.297 96.8853 119.553 97.344C119.809 97.792 120.151 98.1387 120.577 98.384C121.004 98.6293 121.489 98.752 122.033 98.752ZM133.086 91.44C133.779 91.44 134.387 91.5733 134.91 91.84C135.443 92.1067 135.859 92.512 136.158 93.056C136.456 93.6 136.606 94.288 136.606 95.12V100H135.07V95.296C135.07 94.4747 134.867 93.856 134.462 93.44C134.067 93.024 133.507 92.816 132.782 92.816C132.238 92.816 131.763 92.9227 131.358 93.136C130.952 93.3493 130.638 93.664 130.414 94.08C130.2 94.496 130.094 95.0133 130.094 95.632V100H128.558V91.52H130.03V93.808L129.79 93.2C130.067 92.6453 130.494 92.2133 131.07 91.904C131.646 91.5947 132.318 91.44 133.086 91.44Z" fill="black"/>
</svg>
