<svg width="180" height="180" viewBox="0 0 180 180" fill="none" xmlns="http://www.w3.org/2000/svg">
<circle cx="90" cy="90" r="89" fill="#FFF6FD" stroke="white" stroke-width="2"/>
<path d="M138.923 165.542C128.849 172.066 117.571 176.509 105.754 178.61C93.9372 180.711 81.8193 180.427 70.1136 177.775C58.408 175.123 47.351 170.157 37.5934 163.168C27.8358 156.179 19.5747 147.309 13.2961 137.08C7.01761 126.851 2.84852 115.469 1.03421 103.605C-0.780102 91.7403 -0.202983 79.6329 2.7316 67.9948C5.66619 56.3568 10.899 45.4233 18.122 35.8377C25.345 26.2521 34.4124 18.2081 44.7905 12.179L54.638 29.13C46.5205 33.8458 39.4282 40.1377 33.7785 47.6353C28.1287 55.133 24.0358 63.685 21.7404 72.788C19.445 81.891 18.9936 91.3612 20.4127 100.641C21.8318 109.921 25.0928 118.824 30.0038 126.825C34.9147 134.826 41.3764 141.764 49.0086 147.231C56.6408 152.697 65.2894 156.582 74.4453 158.656C83.6012 160.731 93.0796 160.953 102.323 159.309C111.566 157.666 120.387 154.19 128.266 149.087L138.923 165.542Z" fill="#502D52"/>
<path d="M132.277 129.2C131.499 129.2 130.741 129.088 130.005 128.864C129.28 128.651 128.688 128.341 128.229 127.936L128.965 126.752C129.36 127.093 129.845 127.36 130.421 127.552C130.997 127.755 131.6 127.856 132.229 127.856C133.232 127.856 133.968 127.621 134.437 127.152C134.907 126.683 135.141 125.968 135.141 125.008V123.216L135.301 121.536L135.221 119.84V117.52H136.677V124.848C136.677 126.341 136.304 127.44 135.557 128.144C134.811 128.848 133.717 129.2 132.277 129.2ZM132.085 125.648C131.264 125.648 130.528 125.477 129.877 125.136C129.237 124.784 128.725 124.299 128.341 123.68C127.968 123.061 127.781 122.347 127.781 121.536C127.781 120.715 127.968 120 128.341 119.392C128.725 118.773 129.237 118.293 129.877 117.952C130.528 117.611 131.264 117.44 132.085 117.44C132.811 117.44 133.472 117.589 134.069 117.888C134.667 118.176 135.141 118.624 135.493 119.232C135.856 119.84 136.037 120.608 136.037 121.536C136.037 122.453 135.856 123.216 135.493 123.824C135.141 124.432 134.667 124.891 134.069 125.2C133.472 125.499 132.811 125.648 132.085 125.648ZM132.261 124.304C132.827 124.304 133.328 124.187 133.765 123.952C134.203 123.717 134.544 123.392 134.789 122.976C135.045 122.56 135.173 122.08 135.173 121.536C135.173 120.992 135.045 120.512 134.789 120.096C134.544 119.68 134.203 119.36 133.765 119.136C133.328 118.901 132.827 118.784 132.261 118.784C131.696 118.784 131.189 118.901 130.741 119.136C130.304 119.36 129.957 119.68 129.701 120.096C129.456 120.512 129.333 120.992 129.333 121.536C129.333 122.08 129.456 122.56 129.701 122.976C129.957 123.392 130.304 123.717 130.741 123.952C131.189 124.187 131.696 124.304 132.261 124.304Z" fill="black"/>
<path d="M122.203 117.44C122.896 117.44 123.504 117.573 124.027 117.84C124.56 118.107 124.976 118.512 125.275 119.056C125.573 119.6 125.723 120.288 125.723 121.12V126H124.187V121.296C124.187 120.475 123.984 119.856 123.579 119.44C123.184 119.024 122.624 118.816 121.899 118.816C121.355 118.816 120.88 118.923 120.475 119.136C120.069 119.349 119.755 119.664 119.531 120.08C119.317 120.496 119.211 121.013 119.211 121.632V126H117.675V117.52H119.147V119.808L118.907 119.2C119.184 118.645 119.611 118.213 120.187 117.904C120.763 117.595 121.435 117.44 122.203 117.44Z" fill="black"/>
<path d="M113.206 126V117.52H114.742V126H113.206ZM113.974 115.888C113.675 115.888 113.425 115.792 113.222 115.6C113.03 115.408 112.934 115.174 112.934 114.896C112.934 114.608 113.03 114.368 113.222 114.176C113.425 113.984 113.675 113.888 113.974 113.888C114.273 113.888 114.518 113.984 114.71 114.176C114.913 114.358 115.014 114.587 115.014 114.864C115.014 115.152 114.918 115.398 114.726 115.6C114.534 115.792 114.283 115.888 113.974 115.888Z" fill="black"/>
<path d="M109.493 126.096C108.64 126.096 107.978 125.867 107.509 125.408C107.04 124.949 106.805 124.293 106.805 123.44V115.664H108.341V123.376C108.341 123.835 108.453 124.187 108.677 124.432C108.912 124.677 109.242 124.8 109.669 124.8C110.149 124.8 110.549 124.667 110.869 124.4L111.349 125.504C111.114 125.707 110.832 125.856 110.501 125.952C110.181 126.048 109.845 126.096 109.493 126.096ZM105.365 118.784V117.52H110.773V118.784H105.365Z" fill="black"/>
<path d="M99.7841 126V117.52H101.256V119.824L101.112 119.248C101.347 118.661 101.741 118.213 102.296 117.904C102.851 117.595 103.533 117.44 104.344 117.44V118.928C104.28 118.917 104.216 118.912 104.152 118.912C104.099 118.912 104.045 118.912 103.992 118.912C103.171 118.912 102.52 119.157 102.04 119.648C101.56 120.139 101.32 120.848 101.32 121.776V126H99.7841Z" fill="black"/>
<path d="M93.2599 126.096C92.4065 126.096 91.6492 125.909 90.9879 125.536C90.3265 125.163 89.8039 124.651 89.4199 124C89.0359 123.339 88.8439 122.592 88.8439 121.76C88.8439 120.917 89.0359 120.171 89.4199 119.52C89.8039 118.869 90.3265 118.363 90.9879 118C91.6492 117.627 92.4065 117.44 93.2599 117.44C94.1025 117.44 94.8545 117.627 95.5159 118C96.1879 118.363 96.7105 118.869 97.0839 119.52C97.4679 120.16 97.6599 120.907 97.6599 121.76C97.6599 122.603 97.4679 123.349 97.0839 124C96.7105 124.651 96.1879 125.163 95.5159 125.536C94.8545 125.909 94.1025 126.096 93.2599 126.096ZM93.2599 124.752C93.8039 124.752 94.2892 124.629 94.7159 124.384C95.1532 124.139 95.4945 123.792 95.7399 123.344C95.9852 122.885 96.1079 122.357 96.1079 121.76C96.1079 121.152 95.9852 120.629 95.7399 120.192C95.4945 119.744 95.1532 119.397 94.7159 119.152C94.2892 118.907 93.8039 118.784 93.2599 118.784C92.7159 118.784 92.2305 118.907 91.8039 119.152C91.3772 119.397 91.0359 119.744 90.7799 120.192C90.5239 120.629 90.3959 121.152 90.3959 121.76C90.3959 122.357 90.5239 122.885 90.7799 123.344C91.0359 123.792 91.3772 124.139 91.8039 124.384C92.2305 124.629 92.7159 124.752 93.2599 124.752Z" fill="black"/>
<path d="M83.2176 126.096C82.5136 126.096 81.8683 125.936 81.2816 125.616C80.7056 125.285 80.2416 124.8 79.8896 124.16C79.5483 123.52 79.3776 122.72 79.3776 121.76C79.3776 120.8 79.543 120 79.8736 119.36C80.215 118.72 80.6736 118.24 81.2496 117.92C81.8363 117.6 82.4923 117.44 83.2176 117.44C84.0496 117.44 84.7856 117.621 85.4256 117.984C86.0656 118.347 86.5723 118.853 86.9456 119.504C87.319 120.144 87.5056 120.896 87.5056 121.76C87.5056 122.624 87.319 123.381 86.9456 124.032C86.5723 124.683 86.0656 125.189 85.4256 125.552C84.7856 125.915 84.0496 126.096 83.2176 126.096ZM78.7216 129.104V117.52H80.1936V119.808L80.0976 121.776L80.2576 123.744V129.104H78.7216ZM83.0896 124.752C83.6336 124.752 84.119 124.629 84.5456 124.384C84.983 124.139 85.3243 123.792 85.5696 123.344C85.8256 122.885 85.9536 122.357 85.9536 121.76C85.9536 121.152 85.8256 120.629 85.5696 120.192C85.3243 119.744 84.983 119.397 84.5456 119.152C84.119 118.907 83.6336 118.784 83.0896 118.784C82.5563 118.784 82.071 118.907 81.6336 119.152C81.207 119.397 80.8656 119.744 80.6096 120.192C80.3643 120.629 80.2416 121.152 80.2416 121.76C80.2416 122.357 80.3643 122.885 80.6096 123.344C80.8656 123.792 81.207 124.139 81.6336 124.384C82.071 124.629 82.5563 124.752 83.0896 124.752Z" fill="black"/>
<path d="M72.7007 126.096C71.7941 126.096 70.9941 125.909 70.3007 125.536C69.6181 125.163 69.0847 124.651 68.7007 124C68.3274 123.349 68.1407 122.603 68.1407 121.76C68.1407 120.917 68.3221 120.171 68.6847 119.52C69.0581 118.869 69.5647 118.363 70.2047 118C70.8554 117.627 71.5861 117.44 72.3967 117.44C73.2181 117.44 73.9434 117.621 74.5727 117.984C75.2021 118.347 75.6927 118.859 76.0447 119.52C76.4074 120.171 76.5887 120.933 76.5887 121.808C76.5887 121.872 76.5834 121.947 76.5727 122.032C76.5727 122.117 76.5674 122.197 76.5567 122.272H69.3407V121.168H75.7567L75.1327 121.552C75.1434 121.008 75.0314 120.523 74.7967 120.096C74.5621 119.669 74.2367 119.339 73.8207 119.104C73.4154 118.859 72.9407 118.736 72.3967 118.736C71.8634 118.736 71.3887 118.859 70.9727 119.104C70.5567 119.339 70.2314 119.675 69.9967 120.112C69.7621 120.539 69.6447 121.029 69.6447 121.584V121.84C69.6447 122.405 69.7727 122.912 70.0287 123.36C70.2954 123.797 70.6634 124.139 71.1327 124.384C71.6021 124.629 72.1407 124.752 72.7487 124.752C73.2501 124.752 73.7034 124.667 74.1087 124.496C74.5247 124.325 74.8874 124.069 75.1967 123.728L76.0447 124.72C75.6607 125.168 75.1807 125.509 74.6047 125.744C74.0394 125.979 73.4047 126.096 72.7007 126.096Z" fill="black"/>
<path d="M57.5237 126V114.8H61.8917C62.8731 114.8 63.7104 114.954 64.4037 115.264C65.0971 115.573 65.6304 116.021 66.0037 116.608C66.3771 117.194 66.5637 117.893 66.5637 118.704C66.5637 119.514 66.3771 120.213 66.0037 120.8C65.6304 121.376 65.0971 121.818 64.4037 122.128C63.7104 122.437 62.8731 122.592 61.8917 122.592H58.4037L59.1237 121.856V126H57.5237ZM65.0117 126L62.1637 121.936H63.8757L66.7557 126H65.0117ZM59.1237 122.016L58.4037 121.232H61.8437C62.8677 121.232 63.6411 121.013 64.1637 120.576C64.6971 120.128 64.9637 119.504 64.9637 118.704C64.9637 117.904 64.6971 117.285 64.1637 116.848C63.6411 116.41 62.8677 116.192 61.8437 116.192H58.4037L59.1237 115.392V122.016Z" fill="black"/>
<path d="M104.585 106.096C103.764 106.096 103.028 105.915 102.377 105.552C101.737 105.189 101.23 104.683 100.857 104.032C100.484 103.381 100.297 102.624 100.297 101.76C100.297 100.896 100.484 100.144 100.857 99.5039C101.23 98.8533 101.737 98.3466 102.377 97.9839C103.028 97.6213 103.764 97.4399 104.585 97.4399C105.3 97.4399 105.945 97.5999 106.521 97.9199C107.097 98.2399 107.556 98.7199 107.897 99.3599C108.249 99.9999 108.425 100.8 108.425 101.76C108.425 102.72 108.254 103.52 107.913 104.16C107.582 104.8 107.129 105.285 106.553 105.616C105.977 105.936 105.321 106.096 104.585 106.096ZM104.713 104.752C105.246 104.752 105.726 104.629 106.153 104.384C106.59 104.139 106.932 103.792 107.177 103.344C107.433 102.885 107.561 102.357 107.561 101.76C107.561 101.152 107.433 100.629 107.177 100.192C106.932 99.7439 106.59 99.3973 106.153 99.1519C105.726 98.9066 105.246 98.7839 104.713 98.7839C104.169 98.7839 103.684 98.9066 103.257 99.1519C102.83 99.3973 102.489 99.7439 102.233 100.192C101.977 100.629 101.849 101.152 101.849 101.76C101.849 102.357 101.977 102.885 102.233 103.344C102.489 103.792 102.83 104.139 103.257 104.384C103.684 104.629 104.169 104.752 104.713 104.752ZM107.609 106V103.712L107.705 101.744L107.545 99.7759V94.1279H109.081V106H107.609Z" fill="black"/>
<path d="M94.7184 97.4399C95.4117 97.4399 96.0197 97.5733 96.5424 97.8399C97.0757 98.1066 97.4917 98.5119 97.7904 99.0559C98.089 99.5999 98.2384 100.288 98.2384 101.12V106H96.7024V101.296C96.7024 100.475 96.4997 99.8559 96.0944 99.4399C95.6997 99.0239 95.1397 98.8159 94.4144 98.8159C93.8704 98.8159 93.3957 98.9226 92.9904 99.1359C92.585 99.3493 92.2704 99.6639 92.0464 100.08C91.833 100.496 91.7264 101.013 91.7264 101.632V106H90.1904V97.5199H91.6624V99.8079L91.4224 99.1999C91.6997 98.6453 92.1264 98.2133 92.7024 97.9039C93.2784 97.5946 93.9504 97.4399 94.7184 97.4399Z" fill="black"/>
<path d="M85.8919 106V104.208L85.8119 103.872V100.816C85.8119 100.165 85.6199 99.6639 85.2359 99.3119C84.8625 98.9493 84.2972 98.7679 83.5399 98.7679C83.0385 98.7679 82.5479 98.8533 82.0679 99.0239C81.5879 99.1839 81.1825 99.4026 80.8519 99.6799L80.2119 98.5279C80.6492 98.1759 81.1719 97.9093 81.7799 97.7279C82.3985 97.5359 83.0439 97.4399 83.7159 97.4399C84.8785 97.4399 85.7745 97.7226 86.4039 98.2879C87.0332 98.8533 87.3479 99.7173 87.3479 100.88V106H85.8919ZM83.1079 106.096C82.4785 106.096 81.9239 105.989 81.4439 105.776C80.9745 105.563 80.6119 105.269 80.3559 104.896C80.0999 104.512 79.9719 104.08 79.9719 103.6C79.9719 103.141 80.0785 102.725 80.2919 102.352C80.5159 101.979 80.8732 101.68 81.3639 101.456C81.8652 101.232 82.5372 101.12 83.3799 101.12H86.0679V102.224H83.4439C82.6759 102.224 82.1585 102.352 81.8919 102.608C81.6252 102.864 81.4919 103.173 81.4919 103.536C81.4919 103.952 81.6572 104.288 81.9879 104.544C82.3185 104.789 82.7772 104.912 83.3639 104.912C83.9399 104.912 84.4412 104.784 84.8679 104.528C85.3052 104.272 85.6199 103.899 85.8119 103.408L86.1159 104.464C85.9132 104.965 85.5559 105.365 85.0439 105.664C84.5319 105.952 83.8865 106.096 83.1079 106.096Z" fill="black"/>
<path d="M129.904 86.0959C129.2 86.0959 128.528 85.9999 127.888 85.8079C127.258 85.6159 126.762 85.3813 126.4 85.1039L127.04 83.8879C127.402 84.1333 127.85 84.3413 128.384 84.5119C128.917 84.6826 129.461 84.7679 130.016 84.7679C130.73 84.7679 131.242 84.6666 131.552 84.4639C131.872 84.2613 132.032 83.9786 132.032 83.6159C132.032 83.3493 131.936 83.1413 131.744 82.9919C131.552 82.8426 131.296 82.7306 130.976 82.6559C130.666 82.5813 130.32 82.5173 129.936 82.4639C129.552 82.3999 129.168 82.3253 128.784 82.2399C128.4 82.1439 128.048 82.0159 127.728 81.8559C127.408 81.6853 127.152 81.4559 126.96 81.1679C126.768 80.8693 126.672 80.4746 126.672 79.9839C126.672 79.4719 126.816 79.0239 127.104 78.6399C127.392 78.2559 127.797 77.9626 128.32 77.7599C128.853 77.5466 129.482 77.4399 130.208 77.4399C130.762 77.4399 131.322 77.5093 131.888 77.6479C132.464 77.7759 132.933 77.9626 133.296 78.2079L132.64 79.4239C132.256 79.1679 131.856 78.9919 131.44 78.8959C131.024 78.7999 130.608 78.7519 130.192 78.7519C129.52 78.7519 129.018 78.8639 128.688 79.0879C128.357 79.3013 128.192 79.5786 128.192 79.9199C128.192 80.2079 128.288 80.4319 128.48 80.5919C128.682 80.7413 128.938 80.8586 129.248 80.9439C129.568 81.0293 129.92 81.1039 130.304 81.1679C130.688 81.2213 131.072 81.2959 131.456 81.3919C131.84 81.4773 132.186 81.5999 132.496 81.7599C132.816 81.9199 133.072 82.1439 133.264 82.4319C133.466 82.7199 133.568 83.1039 133.568 83.5839C133.568 84.0959 133.418 84.5386 133.12 84.9119C132.821 85.2853 132.4 85.5786 131.856 85.7919C131.312 85.9946 130.661 86.0959 129.904 86.0959Z" fill="black"/>
<path d="M122.027 86.0959C121.163 86.0959 120.39 85.9093 119.707 85.5359C119.035 85.1626 118.507 84.6506 118.123 83.9999C117.739 83.3493 117.547 82.6026 117.547 81.7599C117.547 80.9173 117.739 80.1706 118.123 79.5199C118.507 78.8693 119.035 78.3626 119.707 77.9999C120.39 77.6266 121.163 77.4399 122.027 77.4399C122.795 77.4399 123.478 77.5946 124.075 77.9039C124.683 78.2026 125.152 78.6506 125.483 79.2479L124.315 79.9999C124.038 79.5839 123.696 79.2799 123.291 79.0879C122.896 78.8853 122.47 78.7839 122.011 78.7839C121.456 78.7839 120.96 78.9066 120.523 79.1519C120.086 79.3973 119.739 79.7439 119.483 80.1919C119.227 80.6293 119.099 81.1519 119.099 81.7599C119.099 82.3679 119.227 82.8959 119.483 83.3439C119.739 83.7919 120.086 84.1386 120.523 84.3839C120.96 84.6293 121.456 84.7519 122.011 84.7519C122.47 84.7519 122.896 84.6559 123.291 84.4639C123.696 84.2613 124.038 83.9519 124.315 83.5359L125.483 84.2719C125.152 84.8586 124.683 85.3119 124.075 85.6319C123.478 85.9413 122.795 86.0959 122.027 86.0959Z" fill="black"/>
<path d="M113.862 86.0002V77.5202H115.398V86.0002H113.862ZM114.63 75.8882C114.332 75.8882 114.081 75.7922 113.878 75.6002C113.686 75.4082 113.59 75.1735 113.59 74.8962C113.59 74.6082 113.686 74.3682 113.878 74.1762C114.081 73.9842 114.332 73.8882 114.63 73.8882C114.929 73.8882 115.174 73.9842 115.366 74.1762C115.569 74.3575 115.67 74.5868 115.67 74.8642C115.67 75.1522 115.574 75.3975 115.382 75.6002C115.19 75.7922 114.94 75.8882 114.63 75.8882Z" fill="black"/>
<path d="M110.149 86.0961C109.296 86.0961 108.635 85.8667 108.165 85.4081C107.696 84.9494 107.461 84.2934 107.461 83.4401V75.6641H108.997V83.3761C108.997 83.8347 109.109 84.1867 109.333 84.4321C109.568 84.6774 109.899 84.8001 110.325 84.8001C110.805 84.8001 111.205 84.6667 111.525 84.4001L112.005 85.5041C111.771 85.7067 111.488 85.8561 111.157 85.9521C110.837 86.0481 110.501 86.0961 110.149 86.0961ZM106.021 78.7841V77.5201H111.429V78.7841H106.021Z" fill="black"/>
<path d="M98.4334 89.2C98.0281 89.2 97.6334 89.1307 97.2494 88.992C96.8654 88.864 96.5347 88.672 96.2574 88.416L96.9134 87.264C97.1267 87.4667 97.3614 87.6214 97.6174 87.728C97.8734 87.8347 98.1454 87.888 98.4334 87.888C98.8067 87.888 99.1161 87.792 99.3614 87.6C99.6067 87.408 99.8361 87.0667 100.049 86.576L100.577 85.408L100.737 85.216L104.065 77.52H105.569L101.457 86.848C101.212 87.4454 100.935 87.9147 100.625 88.256C100.327 88.5974 99.9961 88.8374 99.6334 88.976C99.2707 89.1254 98.8707 89.2 98.4334 89.2ZM100.449 86.272L96.5774 77.52H98.1774L101.473 85.072L100.449 86.272Z" fill="black"/>
<path d="M93.5966 85.9999V74.1279H95.1326V85.9999H93.5966Z" fill="black"/>
<path d="M89.2981 85.9999V84.2079L89.2181 83.8719V80.8159C89.2181 80.1653 89.0261 79.6639 88.6421 79.3119C88.2688 78.9493 87.7034 78.7679 86.9461 78.7679C86.4448 78.7679 85.9541 78.8533 85.4741 79.0239C84.9941 79.1839 84.5888 79.4026 84.2581 79.6799L83.6181 78.5279C84.0554 78.1759 84.5781 77.9093 85.1861 77.7279C85.8048 77.5359 86.4501 77.4399 87.1221 77.4399C88.2848 77.4399 89.1808 77.7226 89.8101 78.2879C90.4394 78.8533 90.7541 79.7173 90.7541 80.8799V85.9999H89.2981ZM86.5141 86.0959C85.8848 86.0959 85.3301 85.9893 84.8501 85.7759C84.3808 85.5626 84.0181 85.2693 83.7621 84.8959C83.5061 84.5119 83.3781 84.0799 83.3781 83.5999C83.3781 83.1413 83.4848 82.7253 83.6981 82.3519C83.9221 81.9786 84.2794 81.6799 84.7701 81.4559C85.2714 81.2319 85.9434 81.1199 86.7861 81.1199H89.4741V82.2239H86.8501C86.0821 82.2239 85.5648 82.3519 85.2981 82.6079C85.0314 82.8639 84.8981 83.1733 84.8981 83.5359C84.8981 83.9519 85.0634 84.2879 85.3941 84.5439C85.7248 84.7893 86.1834 84.9119 86.7701 84.9119C87.3461 84.9119 87.8474 84.7839 88.2741 84.5279C88.7114 84.2719 89.0261 83.8986 89.2181 83.4079L89.5221 84.4639C89.3194 84.9653 88.9621 85.3653 88.4501 85.6639C87.9381 85.9519 87.2928 86.0959 86.5141 86.0959Z" fill="black"/>
<path d="M77.6715 77.4399C78.3648 77.4399 78.9728 77.5733 79.4955 77.8399C80.0288 78.1066 80.4448 78.5119 80.7435 79.0559C81.0422 79.5999 81.1915 80.2879 81.1915 81.1199V85.9999H79.6555V81.2959C79.6555 80.4746 79.4528 79.8559 79.0475 79.4399C78.6528 79.0239 78.0928 78.8159 77.3675 78.8159C76.8235 78.8159 76.3488 78.9226 75.9435 79.1359C75.5382 79.3493 75.2235 79.6639 74.9995 80.0799C74.7862 80.4959 74.6795 81.0133 74.6795 81.6319V85.9999H73.1435V77.5199H74.6155V79.8079L74.3755 79.1999C74.6528 78.6453 75.0795 78.2133 75.6555 77.9039C76.2315 77.5946 76.9035 77.4399 77.6715 77.4399Z" fill="black"/>
<path d="M59.9528 85.9998L65.0248 74.7998H66.6088L71.6968 85.9998H70.0168L65.4888 75.6958H66.1288L61.6008 85.9998H59.9528ZM62.1128 83.1998L62.5448 81.9198H68.8488L69.3128 83.1998H62.1128Z" fill="black"/>
<path d="M132.941 69.1999C132.163 69.1999 131.405 69.0879 130.669 68.8639C129.944 68.6506 129.352 68.3413 128.893 67.9359L129.629 66.7519C130.024 67.0933 130.509 67.3599 131.085 67.5519C131.661 67.7546 132.264 67.8559 132.893 67.8559C133.896 67.8559 134.632 67.6213 135.101 67.1519C135.571 66.6826 135.805 65.9679 135.805 65.0079V63.2159L135.965 61.5359L135.885 59.8399V57.5199H137.341V64.8479C137.341 66.3413 136.968 67.4399 136.221 68.1439C135.475 68.8479 134.381 69.1999 132.941 69.1999ZM132.749 65.6479C131.928 65.6479 131.192 65.4773 130.541 65.1359C129.901 64.7839 129.389 64.2986 129.005 63.6799C128.632 63.0613 128.445 62.3466 128.445 61.5359C128.445 60.7146 128.632 59.9999 129.005 59.3919C129.389 58.7733 129.901 58.2933 130.541 57.9519C131.192 57.6106 131.928 57.4399 132.749 57.4399C133.475 57.4399 134.136 57.5893 134.733 57.8879C135.331 58.1759 135.805 58.6239 136.157 59.2319C136.52 59.8399 136.701 60.6079 136.701 61.5359C136.701 62.4533 136.52 63.2159 136.157 63.8239C135.805 64.4319 135.331 64.8906 134.733 65.1999C134.136 65.4986 133.475 65.6479 132.749 65.6479ZM132.925 64.3039C133.491 64.3039 133.992 64.1866 134.429 63.9519C134.867 63.7173 135.208 63.3919 135.453 62.9759C135.709 62.5599 135.837 62.0799 135.837 61.5359C135.837 60.9919 135.709 60.5119 135.453 60.0959C135.208 59.6799 134.867 59.3599 134.429 59.1359C133.992 58.9013 133.491 58.7839 132.925 58.7839C132.36 58.7839 131.853 58.9013 131.405 59.1359C130.968 59.3599 130.621 59.6799 130.365 60.0959C130.12 60.5119 129.997 60.9919 129.997 61.5359C129.997 62.0799 130.12 62.5599 130.365 62.9759C130.621 63.3919 130.968 63.7173 131.405 63.9519C131.853 64.1866 132.36 64.3039 132.925 64.3039Z" fill="black"/>
<path d="M122.867 57.4399C123.56 57.4399 124.168 57.5733 124.691 57.8399C125.224 58.1066 125.64 58.5119 125.939 59.0559C126.237 59.5999 126.387 60.2879 126.387 61.1199V65.9999H124.851V61.2959C124.851 60.4746 124.648 59.8559 124.243 59.4399C123.848 59.0239 123.288 58.8159 122.563 58.8159C122.019 58.8159 121.544 58.9226 121.139 59.1359C120.733 59.3493 120.419 59.6639 120.195 60.0799C119.981 60.4959 119.875 61.0133 119.875 61.6319V65.9999H118.339V57.5199H119.811V59.8079L119.571 59.1999C119.848 58.6453 120.275 58.2133 120.851 57.9039C121.427 57.5946 122.099 57.4399 122.867 57.4399Z" fill="black"/>
<path d="M113.87 66.0002V57.5202H115.406V66.0002H113.87ZM114.638 55.8882C114.339 55.8882 114.089 55.7922 113.886 55.6002C113.694 55.4082 113.598 55.1735 113.598 54.8962C113.598 54.6082 113.694 54.3682 113.886 54.1762C114.089 53.9842 114.339 53.8882 114.638 53.8882C114.937 53.8882 115.182 53.9842 115.374 54.1762C115.577 54.3575 115.678 54.5868 115.678 54.8642C115.678 55.1522 115.582 55.3975 115.39 55.6002C115.198 55.7922 114.947 55.8882 114.638 55.8882Z" fill="black"/>
<path d="M110.157 66.0961C109.304 66.0961 108.642 65.8667 108.173 65.4081C107.704 64.9494 107.469 64.2934 107.469 63.4401V55.6641H109.005V63.3761C109.005 63.8347 109.117 64.1867 109.341 64.4321C109.576 64.6774 109.906 64.8001 110.333 64.8001C110.813 64.8001 111.213 64.6667 111.533 64.4001L112.013 65.5041C111.778 65.7067 111.496 65.8561 111.165 65.9521C110.845 66.0481 110.509 66.0961 110.157 66.0961ZM106.029 58.7841V57.5201H111.437V58.7841H106.029Z" fill="black"/>
<path d="M101.224 66.0959C100.318 66.0959 99.5175 65.9093 98.8242 65.5359C98.1415 65.1626 97.6082 64.6506 97.2242 63.9999C96.8508 63.3493 96.6642 62.6026 96.6642 61.7599C96.6642 60.9173 96.8455 60.1706 97.2082 59.5199C97.5815 58.8693 98.0882 58.3626 98.7282 57.9999C99.3789 57.6266 100.11 57.4399 100.92 57.4399C101.742 57.4399 102.467 57.6213 103.096 57.9839C103.726 58.3466 104.216 58.8586 104.568 59.5199C104.931 60.1706 105.112 60.9333 105.112 61.8079C105.112 61.8719 105.107 61.9466 105.096 62.0319C105.096 62.1173 105.091 62.1973 105.08 62.2719H97.8642V61.1679H104.28L103.656 61.5519C103.667 61.0079 103.555 60.5226 103.32 60.0959C103.086 59.6693 102.76 59.3386 102.344 59.1039C101.939 58.8586 101.464 58.7359 100.92 58.7359C100.387 58.7359 99.9122 58.8586 99.4962 59.1039C99.0802 59.3386 98.7549 59.6746 98.5202 60.1119C98.2855 60.5386 98.1682 61.0293 98.1682 61.5839V61.8399C98.1682 62.4053 98.2962 62.9119 98.5522 63.3599C98.8189 63.7973 99.1869 64.1386 99.6562 64.3839C100.126 64.6293 100.664 64.7519 101.272 64.7519C101.774 64.7519 102.227 64.6666 102.632 64.4959C103.048 64.3253 103.411 64.0693 103.72 63.7279L104.568 64.7199C104.184 65.1679 103.704 65.5093 103.128 65.7439C102.563 65.9786 101.928 66.0959 101.224 66.0959Z" fill="black"/>
<path d="M89.1806 63.9519L89.2126 61.9839L94.0926 57.5199H95.9486L92.2046 61.1999L91.3726 61.9039L89.1806 63.9519ZM87.9326 65.9999V54.1279H89.4686V65.9999H87.9326ZM94.4126 65.9999L91.0846 61.8719L92.0766 60.6399L96.3006 65.9999H94.4126Z" fill="black"/>
<path d="M81.4794 65.9999V57.5199H82.9514V59.8239L82.8074 59.2479C83.0421 58.6613 83.4368 58.2133 83.9914 57.9039C84.5461 57.5946 85.2288 57.4399 86.0394 57.4399V58.9279C85.9754 58.9173 85.9114 58.9119 85.8474 58.9119C85.7941 58.9119 85.7408 58.9119 85.6874 58.9119C84.8661 58.9119 84.2154 59.1573 83.7354 59.6479C83.2554 60.1386 83.0154 60.8479 83.0154 61.7759V65.9999H81.4794Z" fill="black"/>
<path d="M77.1809 65.9999V64.2079L77.1009 63.8719V60.8159C77.1009 60.1653 76.9089 59.6639 76.5249 59.3119C76.1516 58.9493 75.5863 58.7679 74.8289 58.7679C74.3276 58.7679 73.8369 58.8533 73.3569 59.0239C72.8769 59.1839 72.4716 59.4026 72.1409 59.6799L71.5009 58.5279C71.9383 58.1759 72.4609 57.9093 73.0689 57.7279C73.6876 57.5359 74.3329 57.4399 75.0049 57.4399C76.1676 57.4399 77.0636 57.7226 77.6929 58.2879C78.3223 58.8533 78.6369 59.7173 78.6369 60.8799V65.9999H77.1809ZM74.3969 66.0959C73.7676 66.0959 73.2129 65.9893 72.7329 65.7759C72.2636 65.5626 71.9009 65.2693 71.6449 64.8959C71.3889 64.5119 71.2609 64.0799 71.2609 63.5999C71.2609 63.1413 71.3676 62.7253 71.5809 62.3519C71.8049 61.9786 72.1623 61.6799 72.6529 61.4559C73.1543 61.2319 73.8263 61.1199 74.6689 61.1199H77.3569V62.2239H74.7329C73.9649 62.2239 73.4476 62.3519 73.1809 62.6079C72.9143 62.8639 72.7809 63.1733 72.7809 63.5359C72.7809 63.9519 72.9463 64.2879 73.2769 64.5439C73.6076 64.7893 74.0663 64.9119 74.6529 64.9119C75.2289 64.9119 75.7303 64.7839 76.1569 64.5279C76.5943 64.2719 76.9089 63.8986 77.1009 63.4079L77.4049 64.4639C77.2023 64.9653 76.8449 65.3653 76.3329 65.6639C75.8209 65.9519 75.1756 66.0959 74.3969 66.0959Z" fill="black"/>
<path d="M56.8597 65.9998V54.7998H58.1717L63.1957 63.2638H62.4917L67.4517 54.7998H68.7637L68.7797 65.9998H67.2437L67.2277 57.2158H67.5957L63.1797 64.6398H62.4437L57.9957 57.2158H58.3957V65.9998H56.8597Z" fill="black"/>
<path d="M104.378 1.15583C125.828 4.62719 145.299 15.7423 159.194 32.4488C173.09 49.1553 180.471 70.3251 179.977 92.0493L175.692 91.9518C176.163 71.262 169.133 51.1005 155.899 35.1895C142.665 19.2786 124.122 8.6929 103.693 5.38686L104.378 1.15583Z" fill="#A53691"/>
</svg>
