<svg width="180" height="180" viewBox="0 0 180 180" fill="none" xmlns="http://www.w3.org/2000/svg">
<circle cx="90" cy="90" r="89" fill="#FFF6FD" stroke="white" stroke-width="2"/>
<path d="M138.923 165.542C128.849 172.066 117.571 176.509 105.754 178.61C93.9372 180.711 81.8193 180.427 70.1136 177.775C58.408 175.123 47.351 170.157 37.5934 163.168C27.8358 156.179 19.5747 147.309 13.2961 137.08C7.01761 126.851 2.84852 115.469 1.03421 103.605C-0.780102 91.7403 -0.202983 79.6329 2.7316 67.9948C5.66619 56.3568 10.899 45.4233 18.122 35.8377C25.345 26.2521 34.4124 18.2081 44.7905 12.179L54.638 29.13C46.5205 33.8458 39.4282 40.1377 33.7785 47.6353C28.1287 55.133 24.0358 63.685 21.7404 72.788C19.445 81.891 18.9936 91.3612 20.4127 100.641C21.8318 109.921 25.0928 118.824 30.0038 126.825C34.9147 134.826 41.3764 141.764 49.0086 147.231C56.6408 152.697 65.2894 156.582 74.4453 158.656C83.6012 160.731 93.0796 160.953 102.323 159.309C111.566 157.666 120.387 154.19 128.266 149.087L138.923 165.542Z" fill="#502D52"/>
<path d="M63.0003 80V68.8H64.3123L69.3363 77.264H68.6323L73.5923 68.8H74.9043L74.9203 80H73.3843L73.3683 71.216H73.7363L69.3203 78.64H68.5843L64.1363 71.216H64.5363V80H63.0003ZM81.6256 80.096C80.9002 80.096 80.2602 79.9627 79.7056 79.696C79.1616 79.4293 78.7349 79.024 78.4256 78.48C78.1269 77.9253 77.9776 77.232 77.9776 76.4V71.52H79.5136V76.224C79.5136 77.056 79.7109 77.68 80.1056 78.096C80.5109 78.512 81.0762 78.72 81.8016 78.72C82.3349 78.72 82.7989 78.6133 83.1936 78.4C83.5882 78.176 83.8922 77.856 84.1056 77.44C84.3189 77.0133 84.4256 76.5013 84.4256 75.904V71.52H85.9616V80H84.5056V77.712L84.7456 78.32C84.4682 78.8853 84.0522 79.3227 83.4976 79.632C82.9429 79.9413 82.3189 80.096 81.6256 80.096ZM88.8857 80V68.128H90.4217V80H88.8857ZM96.4852 80.096C95.6319 80.096 94.9705 79.8667 94.5012 79.408C94.0319 78.9493 93.7972 78.2933 93.7972 77.44V69.664H95.3332V77.376C95.3332 77.8347 95.4452 78.1867 95.6692 78.432C95.9039 78.6773 96.2345 78.8 96.6612 78.8C97.1412 78.8 97.5412 78.6667 97.8612 78.4L98.3412 79.504C98.1065 79.7067 97.8239 79.856 97.4932 79.952C97.1732 80.048 96.8372 80.096 96.4852 80.096ZM92.3572 72.784V71.52H97.7652V72.784H92.3572ZM100.198 80V71.52H101.734V80H100.198ZM100.966 69.888C100.668 69.888 100.417 69.792 100.214 69.6C100.022 69.408 99.9262 69.1733 99.9262 68.896C99.9262 68.608 100.022 68.368 100.214 68.176C100.417 67.984 100.668 67.888 100.966 67.888C101.265 67.888 101.51 67.984 101.702 68.176C101.905 68.3573 102.006 68.5867 102.006 68.864C102.006 69.152 101.91 69.3973 101.718 69.6C101.526 69.792 101.276 69.888 100.966 69.888ZM109.163 80.096C108.459 80.096 107.814 79.936 107.227 79.616C106.651 79.2853 106.187 78.8 105.835 78.16C105.494 77.52 105.323 76.72 105.323 75.76C105.323 74.8 105.488 74 105.819 73.36C106.16 72.72 106.619 72.24 107.195 71.92C107.782 71.6 108.438 71.44 109.163 71.44C109.995 71.44 110.731 71.6213 111.371 71.984C112.011 72.3467 112.518 72.8533 112.891 73.504C113.264 74.144 113.451 74.896 113.451 75.76C113.451 76.624 113.264 77.3813 112.891 78.032C112.518 78.6827 112.011 79.1893 111.371 79.552C110.731 79.9147 109.995 80.096 109.163 80.096ZM104.667 83.104V71.52H106.139V73.808L106.043 75.776L106.203 77.744V83.104H104.667ZM109.035 78.752C109.579 78.752 110.064 78.6293 110.491 78.384C110.928 78.1387 111.27 77.792 111.515 77.344C111.771 76.8853 111.899 76.3573 111.899 75.76C111.899 75.152 111.771 74.6293 111.515 74.192C111.27 73.744 110.928 73.3973 110.491 73.152C110.064 72.9067 109.579 72.784 109.035 72.784C108.502 72.784 108.016 72.9067 107.579 73.152C107.152 73.3973 106.811 73.744 106.555 74.192C106.31 74.6293 106.187 75.152 106.187 75.76C106.187 76.3573 106.31 76.8853 106.555 77.344C106.811 77.792 107.152 78.1387 107.579 78.384C108.016 78.6293 108.502 78.752 109.035 78.752ZM115.573 80V68.128H117.109V80H115.573ZM123.818 80.096C122.911 80.096 122.111 79.9093 121.418 79.536C120.735 79.1627 120.202 78.6507 119.818 78C119.445 77.3493 119.258 76.6027 119.258 75.76C119.258 74.9173 119.439 74.1707 119.802 73.52C120.175 72.8693 120.682 72.3627 121.322 72C121.973 71.6267 122.703 71.44 123.514 71.44C124.335 71.44 125.061 71.6213 125.69 71.984C126.319 72.3467 126.81 72.8587 127.162 73.52C127.525 74.1707 127.706 74.9333 127.706 75.808C127.706 75.872 127.701 75.9467 127.69 76.032C127.69 76.1173 127.685 76.1973 127.674 76.272H120.458V75.168H126.874L126.25 75.552C126.261 75.008 126.149 74.5227 125.914 74.096C125.679 73.6693 125.354 73.3387 124.938 73.104C124.533 72.8587 124.058 72.736 123.514 72.736C122.981 72.736 122.506 72.8587 122.09 73.104C121.674 73.3387 121.349 73.6747 121.114 74.112C120.879 74.5387 120.762 75.0293 120.762 75.584V75.84C120.762 76.4053 120.89 76.912 121.146 77.36C121.413 77.7973 121.781 78.1387 122.25 78.384C122.719 78.6293 123.258 78.752 123.866 78.752C124.367 78.752 124.821 78.6667 125.226 78.496C125.642 78.3253 126.005 78.0693 126.314 77.728L127.162 78.72C126.778 79.168 126.298 79.5093 125.722 79.744C125.157 79.9787 124.522 80.096 123.818 80.096ZM76.4378 100V88.8H80.8058C81.7871 88.8 82.6245 88.9547 83.3178 89.264C84.0111 89.5733 84.5445 90.0213 84.9178 90.608C85.2911 91.1947 85.4778 91.8933 85.4778 92.704C85.4778 93.5147 85.2911 94.2133 84.9178 94.8C84.5445 95.376 84.0111 95.824 83.3178 96.144C82.6245 96.4533 81.7871 96.608 80.8058 96.608H77.3178L78.0378 95.856V100H76.4378ZM78.0378 96.016L77.3178 95.216H80.7578C81.7818 95.216 82.5551 94.9973 83.0778 94.56C83.6111 94.1227 83.8778 93.504 83.8778 92.704C83.8778 91.904 83.6111 91.2853 83.0778 90.848C82.5551 90.4107 81.7818 90.192 80.7578 90.192H77.3178L78.0378 89.392V96.016ZM87.7607 100V88.128H89.2967V100H87.7607ZM97.4934 100V98.208L97.4134 97.872V94.816C97.4134 94.1653 97.2214 93.664 96.8374 93.312C96.4641 92.9493 95.8988 92.768 95.1414 92.768C94.6401 92.768 94.1494 92.8533 93.6694 93.024C93.1894 93.184 92.7841 93.4027 92.4534 93.68L91.8134 92.528C92.2508 92.176 92.7734 91.9093 93.3814 91.728C94.0001 91.536 94.6454 91.44 95.3174 91.44C96.4801 91.44 97.3761 91.7227 98.0054 92.288C98.6348 92.8533 98.9494 93.7173 98.9494 94.88V100H97.4934ZM94.7094 100.096C94.0801 100.096 93.5254 99.9893 93.0454 99.776C92.5761 99.5627 92.2134 99.2693 91.9574 98.896C91.7014 98.512 91.5734 98.08 91.5734 97.6C91.5734 97.1413 91.6801 96.7253 91.8934 96.352C92.1174 95.9787 92.4748 95.68 92.9654 95.456C93.4668 95.232 94.1388 95.12 94.9814 95.12H97.6694V96.224H95.0454C94.2774 96.224 93.7601 96.352 93.4934 96.608C93.2268 96.864 93.0934 97.1733 93.0934 97.536C93.0934 97.952 93.2588 98.288 93.5894 98.544C93.9201 98.7893 94.3788 98.912 94.9654 98.912C95.5414 98.912 96.0428 98.784 96.4694 98.528C96.9068 98.272 97.2214 97.8987 97.4134 97.408L97.7174 98.464C97.5148 98.9653 97.1574 99.3653 96.6454 99.664C96.1334 99.952 95.4881 100.096 94.7094 100.096ZM106.32 91.44C107.013 91.44 107.621 91.5733 108.144 91.84C108.677 92.1067 109.093 92.512 109.392 93.056C109.691 93.6 109.84 94.288 109.84 95.12V100H108.304V95.296C108.304 94.4747 108.101 93.856 107.696 93.44C107.301 93.024 106.741 92.816 106.016 92.816C105.472 92.816 104.997 92.9227 104.592 93.136C104.187 93.3493 103.872 93.664 103.648 94.08C103.435 94.496 103.328 95.0133 103.328 95.632V100H101.792V91.52H103.264V93.808L103.024 93.2C103.301 92.6453 103.728 92.2133 104.304 91.904C104.88 91.5947 105.552 91.44 106.32 91.44ZM115.115 100.096C114.411 100.096 113.739 100 113.099 99.808C112.469 99.616 111.973 99.3813 111.611 99.104L112.251 97.888C112.613 98.1333 113.061 98.3413 113.595 98.512C114.128 98.6827 114.672 98.768 115.227 98.768C115.941 98.768 116.453 98.6667 116.763 98.464C117.083 98.2613 117.243 97.9787 117.243 97.616C117.243 97.3493 117.147 97.1413 116.955 96.992C116.763 96.8427 116.507 96.7307 116.187 96.656C115.877 96.5813 115.531 96.5173 115.147 96.464C114.763 96.4 114.379 96.3253 113.995 96.24C113.611 96.144 113.259 96.016 112.939 95.856C112.619 95.6853 112.363 95.456 112.171 95.168C111.979 94.8693 111.883 94.4747 111.883 93.984C111.883 93.472 112.027 93.024 112.315 92.64C112.603 92.256 113.008 91.9627 113.531 91.76C114.064 91.5467 114.693 91.44 115.419 91.44C115.973 91.44 116.533 91.5093 117.099 91.648C117.675 91.776 118.144 91.9627 118.507 92.208L117.851 93.424C117.467 93.168 117.067 92.992 116.651 92.896C116.235 92.8 115.819 92.752 115.403 92.752C114.731 92.752 114.229 92.864 113.899 93.088C113.568 93.3013 113.403 93.5787 113.403 93.92C113.403 94.208 113.499 94.432 113.691 94.592C113.893 94.7413 114.149 94.8587 114.459 94.944C114.779 95.0293 115.131 95.104 115.515 95.168C115.899 95.2213 116.283 95.296 116.667 95.392C117.051 95.4773 117.397 95.6 117.707 95.76C118.027 95.92 118.283 96.144 118.475 96.432C118.677 96.72 118.779 97.104 118.779 97.584C118.779 98.096 118.629 98.5387 118.331 98.912C118.032 99.2853 117.611 99.5787 117.067 99.792C116.523 99.9947 115.872 100.096 115.115 100.096Z" fill="black"/>
</svg>
