<svg width="180" height="180" viewBox="0 0 180 180" fill="none" xmlns="http://www.w3.org/2000/svg">
<circle cx="90" cy="90" r="89" fill="#FFF6FD" stroke="white" stroke-width="2"/>
<path d="M138.923 165.542C128.849 172.066 117.571 176.509 105.754 178.61C93.9372 180.711 81.8193 180.427 70.1136 177.775C58.408 175.123 47.351 170.157 37.5934 163.168C27.8358 156.179 19.5747 147.309 13.2961 137.08C7.01761 126.851 2.84852 115.469 1.03421 103.605C-0.780102 91.7403 -0.202983 79.6329 2.7316 67.9948C5.66619 56.3568 10.899 45.4233 18.122 35.8377C25.345 26.2521 34.4124 18.2081 44.7905 12.179L54.638 29.13C46.5205 33.8458 39.4282 40.1377 33.7785 47.6353C28.1287 55.133 24.0358 63.685 21.7404 72.788C19.445 81.891 18.9936 91.3612 20.4127 100.641C21.8318 109.921 25.0928 118.824 30.0038 126.825C34.9147 134.826 41.3764 141.764 49.0086 147.231C56.6408 152.697 65.2894 156.582 74.4453 158.656C83.6012 160.731 93.0796 160.953 102.323 159.309C111.566 157.666 120.387 154.19 128.266 149.087L138.923 165.542Z" fill="#502D52"/>
<path d="M133.086 91.4399C133.779 91.4399 134.387 91.5733 134.91 91.8399C135.443 92.1066 135.859 92.5119 136.158 93.0559C136.456 93.5999 136.606 94.2879 136.606 95.1199V99.9999H135.07V95.2959C135.07 94.4746 134.867 93.8559 134.462 93.4399C134.067 93.0239 133.507 92.8159 132.782 92.8159C132.238 92.8159 131.763 92.9226 131.358 93.1359C130.952 93.3493 130.638 93.6639 130.414 94.0799C130.2 94.4959 130.094 95.0133 130.094 95.6319V99.9999H128.558V91.5199H130.03V93.8079L129.79 93.1999C130.067 92.6453 130.494 92.2133 131.07 91.9039C131.646 91.5946 132.318 91.4399 133.086 91.4399Z" fill="black"/>
<path d="M122.033 100.096C121.18 100.096 120.423 99.9093 119.761 99.5359C119.1 99.1626 118.577 98.6506 118.193 97.9999C117.809 97.3386 117.617 96.5919 117.617 95.7599C117.617 94.9173 117.809 94.1706 118.193 93.5199C118.577 92.8693 119.1 92.3626 119.761 91.9999C120.423 91.6266 121.18 91.4399 122.033 91.4399C122.876 91.4399 123.628 91.6266 124.289 91.9999C124.961 92.3626 125.484 92.8693 125.857 93.5199C126.241 94.1599 126.433 94.9066 126.433 95.7599C126.433 96.6026 126.241 97.3493 125.857 97.9999C125.484 98.6506 124.961 99.1626 124.289 99.5359C123.628 99.9093 122.876 100.096 122.033 100.096ZM122.033 98.7519C122.577 98.7519 123.063 98.6293 123.489 98.3839C123.927 98.1386 124.268 97.7919 124.513 97.3439C124.759 96.8853 124.881 96.3573 124.881 95.7599C124.881 95.1519 124.759 94.6293 124.513 94.1919C124.268 93.7439 123.927 93.3973 123.489 93.1519C123.063 92.9066 122.577 92.7839 122.033 92.7839C121.489 92.7839 121.004 92.9066 120.577 93.1519C120.151 93.3973 119.809 93.7439 119.553 94.1919C119.297 94.6293 119.169 95.1519 119.169 95.7599C119.169 96.3573 119.297 96.8853 119.553 97.3439C119.809 97.7919 120.151 98.1386 120.577 98.3839C121.004 98.6293 121.489 98.7519 122.033 98.7519Z" fill="black"/>
<path d="M113.933 100V91.5202H115.469V100H113.933ZM114.701 89.8882C114.402 89.8882 114.151 89.7922 113.949 89.6002C113.757 89.4082 113.661 89.1735 113.661 88.8962C113.661 88.6082 113.757 88.3682 113.949 88.1762C114.151 87.9842 114.402 87.8882 114.701 87.8882C114.999 87.8882 115.245 87.9842 115.437 88.1762C115.639 88.3575 115.741 88.5868 115.741 88.8642C115.741 89.1522 115.645 89.3975 115.453 89.6002C115.261 89.7922 115.01 89.8882 114.701 89.8882Z" fill="black"/>
<path d="M110.22 100.096C109.366 100.096 108.705 99.8667 108.236 99.4081C107.766 98.9494 107.532 98.2934 107.532 97.4401V89.6641H109.068V97.3761C109.068 97.8347 109.18 98.1867 109.404 98.4321C109.638 98.6774 109.969 98.8001 110.396 98.8001C110.876 98.8001 111.276 98.6667 111.596 98.4001L112.076 99.5041C111.841 99.7067 111.558 99.8561 111.228 99.9521C110.908 100.048 110.572 100.096 110.22 100.096ZM106.092 92.7841V91.5201H111.5V92.7841H106.092Z" fill="black"/>
<path d="M100.047 100.096C99.3221 100.096 98.6821 99.9627 98.1274 99.696C97.5834 99.4294 97.1567 99.024 96.8474 98.48C96.5487 97.9254 96.3994 97.232 96.3994 96.4V91.52H97.9354V96.224C97.9354 97.056 98.1327 97.68 98.5274 98.096C98.9327 98.512 99.4981 98.72 100.223 98.72C100.757 98.72 101.221 98.6134 101.615 98.4C102.01 98.176 102.314 97.856 102.527 97.44C102.741 97.0134 102.847 96.5014 102.847 95.904V91.52H104.383V100H102.927V97.712L103.167 98.32C102.89 98.8854 102.474 99.3227 101.919 99.632C101.365 99.9414 100.741 100.096 100.047 100.096Z" fill="black"/>
<path d="M91.0348 100.096C90.1708 100.096 89.3975 99.9093 88.7148 99.5359C88.0428 99.1626 87.5148 98.6506 87.1308 97.9999C86.7468 97.3493 86.5548 96.6026 86.5548 95.7599C86.5548 94.9173 86.7468 94.1706 87.1308 93.5199C87.5148 92.8693 88.0428 92.3626 88.7148 91.9999C89.3975 91.6266 90.1708 91.4399 91.0348 91.4399C91.8028 91.4399 92.4855 91.5946 93.0828 91.9039C93.6908 92.2026 94.1601 92.6506 94.4908 93.2479L93.3228 93.9999C93.0455 93.5839 92.7041 93.2799 92.2988 93.0879C91.9041 92.8853 91.4775 92.7839 91.0188 92.7839C90.4641 92.7839 89.9681 92.9066 89.5308 93.1519C89.0935 93.3973 88.7468 93.7439 88.4908 94.1919C88.2348 94.6293 88.1068 95.1519 88.1068 95.7599C88.1068 96.3679 88.2348 96.8959 88.4908 97.3439C88.7468 97.7919 89.0935 98.1386 89.5308 98.3839C89.9681 98.6293 90.4641 98.7519 91.0188 98.7519C91.4775 98.7519 91.9041 98.6559 92.2988 98.4639C92.7041 98.2613 93.0455 97.9519 93.3228 97.5359L94.4908 98.2719C94.1601 98.8586 93.6908 99.3119 93.0828 99.6319C92.4855 99.9413 91.8028 100.096 91.0348 100.096Z" fill="black"/>
<path d="M81.3179 100.096C80.4113 100.096 79.6113 99.9093 78.9179 99.5359C78.2353 99.1626 77.7019 98.6506 77.3179 97.9999C76.9446 97.3493 76.7579 96.6026 76.7579 95.7599C76.7579 94.9173 76.9393 94.1706 77.3019 93.5199C77.6753 92.8693 78.1819 92.3626 78.8219 91.9999C79.4726 91.6266 80.2033 91.4399 81.0139 91.4399C81.8353 91.4399 82.5606 91.6213 83.1899 91.9839C83.8193 92.3466 84.3099 92.8586 84.6619 93.5199C85.0246 94.1706 85.2059 94.9333 85.2059 95.8079C85.2059 95.8719 85.2006 95.9466 85.1899 96.0319C85.1899 96.1173 85.1846 96.1973 85.1739 96.2719H77.9579V95.1679H84.3739L83.7499 95.5519C83.7606 95.0079 83.6486 94.5226 83.4139 94.0959C83.1793 93.6693 82.8539 93.3386 82.4379 93.1039C82.0326 92.8586 81.5579 92.7359 81.0139 92.7359C80.4806 92.7359 80.0059 92.8586 79.5899 93.1039C79.1739 93.3386 78.8486 93.6746 78.6139 94.1119C78.3793 94.5386 78.2619 95.0293 78.2619 95.5839V95.8399C78.2619 96.4053 78.3899 96.9119 78.6459 97.3599C78.9126 97.7973 79.2806 98.1386 79.7499 98.3839C80.2193 98.6293 80.7579 98.7519 81.3659 98.7519C81.8673 98.7519 82.3206 98.6666 82.7259 98.4959C83.1419 98.3253 83.5046 98.0693 83.8139 97.7279L84.6619 98.7199C84.2779 99.1679 83.7979 99.5093 83.2219 99.7439C82.6566 99.9786 82.0219 100.096 81.3179 100.096Z" fill="black"/>
<path d="M67.7631 100L71.4111 95.264L71.3951 96.048L67.9231 91.52H69.6351L72.2911 95.008H71.6351L74.2911 91.52H75.9711L72.4511 96.08L72.4671 95.264L76.1471 100H74.4031L71.6031 96.288L72.2271 96.384L69.4751 100H67.7631Z" fill="black"/>
<path d="M60.1439 93.6318H65.9039V94.9918H60.1439V93.6318ZM60.2879 98.6078H66.8159V99.9998H58.6879V88.7998H66.5919V90.1918H60.2879V98.6078Z" fill="black"/>
<path d="M123.604 79.9999V68.1279H125.14V79.9999H123.604Z" fill="black"/>
<path d="M119.306 79.9999V78.2079L119.226 77.8719V74.8159C119.226 74.1653 119.034 73.6639 118.65 73.3119C118.277 72.9493 117.711 72.7679 116.954 72.7679C116.453 72.7679 115.962 72.8533 115.482 73.0239C115.002 73.1839 114.597 73.4026 114.266 73.6799L113.626 72.5279C114.063 72.1759 114.586 71.9093 115.194 71.7279C115.813 71.5359 116.458 71.4399 117.13 71.4399C118.293 71.4399 119.189 71.7226 119.818 72.2879C120.447 72.8533 120.762 73.7173 120.762 74.8799V79.9999H119.306ZM116.522 80.0959C115.893 80.0959 115.338 79.9893 114.858 79.7759C114.389 79.5626 114.026 79.2693 113.77 78.8959C113.514 78.5119 113.386 78.0799 113.386 77.5999C113.386 77.1413 113.493 76.7253 113.706 76.3519C113.93 75.9786 114.287 75.6799 114.778 75.4559C115.279 75.2319 115.951 75.1199 116.794 75.1199H119.482V76.2239H116.858C116.09 76.2239 115.573 76.3519 115.306 76.6079C115.039 76.8639 114.906 77.1733 114.906 77.5359C114.906 77.9519 115.071 78.2879 115.402 78.5439C115.733 78.7893 116.191 78.9119 116.778 78.9119C117.354 78.9119 117.855 78.7839 118.282 78.5279C118.719 78.2719 119.034 77.8986 119.226 77.4079L119.53 78.4639C119.327 78.9653 118.97 79.3653 118.458 79.6639C117.946 79.9519 117.301 80.0959 116.522 80.0959Z" fill="black"/>
<path d="M108.597 80.0959C107.733 80.0959 106.96 79.9093 106.277 79.5359C105.605 79.1626 105.077 78.6506 104.693 77.9999C104.309 77.3493 104.117 76.6026 104.117 75.7599C104.117 74.9173 104.309 74.1706 104.693 73.5199C105.077 72.8693 105.605 72.3626 106.277 71.9999C106.96 71.6266 107.733 71.4399 108.597 71.4399C109.365 71.4399 110.048 71.5946 110.645 71.9039C111.253 72.2026 111.723 72.6506 112.053 73.2479L110.885 73.9999C110.608 73.5839 110.267 73.2799 109.861 73.0879C109.467 72.8853 109.04 72.7839 108.581 72.7839C108.027 72.7839 107.531 72.9066 107.093 73.1519C106.656 73.3973 106.309 73.7439 106.053 74.1919C105.797 74.6293 105.669 75.1519 105.669 75.7599C105.669 76.3679 105.797 76.8959 106.053 77.3439C106.309 77.7919 106.656 78.1386 107.093 78.3839C107.531 78.6293 108.027 78.7519 108.581 78.7519C109.04 78.7519 109.467 78.6559 109.861 78.4639C110.267 78.2613 110.608 77.9519 110.885 77.5359L112.053 78.2719C111.723 78.8586 111.253 79.3119 110.645 79.6319C110.048 79.9413 109.365 80.0959 108.597 80.0959Z" fill="black"/>
<path d="M100.433 80.0002V71.5202H101.969V80.0002H100.433ZM101.201 69.8882C100.902 69.8882 100.651 69.7922 100.449 69.6002C100.257 69.4082 100.161 69.1735 100.161 68.8962C100.161 68.6082 100.257 68.3682 100.449 68.1762C100.651 67.9842 100.902 67.8882 101.201 67.8882C101.499 67.8882 101.745 67.9842 101.937 68.1762C102.139 68.3575 102.241 68.5868 102.241 68.8642C102.241 69.1522 102.145 69.3975 101.953 69.6002C101.761 69.7922 101.51 69.8882 101.201 69.8882Z" fill="black"/>
<path d="M93.0977 83.1999C92.319 83.1999 91.5617 83.0879 90.8257 82.8639C90.1004 82.6506 89.5083 82.3413 89.0497 81.9359L89.7857 80.7519C90.1803 81.0933 90.6657 81.3599 91.2417 81.5519C91.8177 81.7546 92.4203 81.8559 93.0497 81.8559C94.0523 81.8559 94.7883 81.6213 95.2577 81.1519C95.727 80.6826 95.9617 79.9679 95.9617 79.0079V77.2159L96.1217 75.5359L96.0417 73.8399V71.5199H97.4977V78.8479C97.4977 80.3413 97.1243 81.4399 96.3777 82.1439C95.631 82.8479 94.5377 83.1999 93.0977 83.1999ZM92.9057 79.6479C92.0844 79.6479 91.3484 79.4773 90.6977 79.1359C90.0577 78.7839 89.5457 78.2986 89.1617 77.6799C88.7883 77.0613 88.6017 76.3466 88.6017 75.5359C88.6017 74.7146 88.7883 73.9999 89.1617 73.3919C89.5457 72.7733 90.0577 72.2933 90.6977 71.9519C91.3484 71.6106 92.0844 71.4399 92.9057 71.4399C93.631 71.4399 94.2923 71.5893 94.8897 71.8879C95.487 72.1759 95.9617 72.6239 96.3137 73.2319C96.6764 73.8399 96.8577 74.6079 96.8577 75.5359C96.8577 76.4533 96.6764 77.2159 96.3137 77.8239C95.9617 78.4319 95.487 78.8906 94.8897 79.1999C94.2923 79.4986 93.631 79.6479 92.9057 79.6479ZM93.0817 78.3039C93.647 78.3039 94.1483 78.1866 94.5857 77.9519C95.023 77.7173 95.3644 77.3919 95.6097 76.9759C95.8657 76.5599 95.9937 76.0799 95.9937 75.5359C95.9937 74.9919 95.8657 74.5119 95.6097 74.0959C95.3644 73.6799 95.023 73.3599 94.5857 73.1359C94.1483 72.9013 93.647 72.7839 93.0817 72.7839C92.5164 72.7839 92.0097 72.9013 91.5617 73.1359C91.1244 73.3599 90.7777 73.6799 90.5217 74.0959C90.2763 74.5119 90.1537 74.9919 90.1537 75.5359C90.1537 76.0799 90.2763 76.5599 90.5217 76.9759C90.7777 77.3919 91.1244 77.7173 91.5617 77.9519C92.0097 78.1866 92.5164 78.3039 93.0817 78.3039Z" fill="black"/>
<path d="M82.8614 80.0959C82.0081 80.0959 81.2508 79.9093 80.5894 79.5359C79.9281 79.1626 79.4054 78.6506 79.0214 77.9999C78.6374 77.3386 78.4454 76.5919 78.4454 75.7599C78.4454 74.9173 78.6374 74.1706 79.0214 73.5199C79.4054 72.8693 79.9281 72.3626 80.5894 71.9999C81.2508 71.6266 82.0081 71.4399 82.8614 71.4399C83.7041 71.4399 84.4561 71.6266 85.1174 71.9999C85.7894 72.3626 86.3121 72.8693 86.6854 73.5199C87.0694 74.1599 87.2614 74.9066 87.2614 75.7599C87.2614 76.6026 87.0694 77.3493 86.6854 77.9999C86.3121 78.6506 85.7894 79.1626 85.1174 79.5359C84.4561 79.9093 83.7041 80.0959 82.8614 80.0959ZM82.8614 78.7519C83.4054 78.7519 83.8908 78.6293 84.3174 78.3839C84.7548 78.1386 85.0961 77.7919 85.3414 77.3439C85.5868 76.8853 85.7094 76.3573 85.7094 75.7599C85.7094 75.1519 85.5868 74.6293 85.3414 74.1919C85.0961 73.7439 84.7548 73.3973 84.3174 73.1519C83.8908 72.9066 83.4054 72.7839 82.8614 72.7839C82.3174 72.7839 81.8321 72.9066 81.4054 73.1519C80.9788 73.3973 80.6374 73.7439 80.3814 74.1919C80.1254 74.6293 79.9974 75.1519 79.9974 75.7599C79.9974 76.3573 80.1254 76.8853 80.3814 77.3439C80.6374 77.7919 80.9788 78.1386 81.4054 78.3839C81.8321 78.6293 82.3174 78.7519 82.8614 78.7519Z" fill="black"/>
<path d="M70.0629 79.9998V68.7998H71.6629V78.6078H77.7269V79.9998H70.0629Z" fill="black"/>
<path d="M104.378 1.15583C125.828 4.62719 145.299 15.7423 159.194 32.4488C173.09 49.1553 180.471 70.3251 179.977 92.0493L175.692 91.9518C176.163 71.262 169.133 51.1005 155.899 35.1895C142.665 19.2786 124.122 8.6929 103.693 5.38686L104.378 1.15583Z" fill="#A53691"/>
</svg>
