<svg width="180" height="180" viewBox="0 0 180 180" fill="none" xmlns="http://www.w3.org/2000/svg">
<circle cx="90" cy="90" r="89" fill="#FFF6FD" stroke="white" stroke-width="2"/>
<path d="M138.923 165.542C128.849 172.066 117.571 176.509 105.754 178.61C93.9372 180.711 81.8193 180.427 70.1136 177.775C58.408 175.123 47.351 170.157 37.5934 163.168C27.8358 156.179 19.5747 147.309 13.2961 137.08C7.01761 126.851 2.84852 115.469 1.03421 103.605C-0.780102 91.7403 -0.202983 79.6329 2.7316 67.9948C5.66619 56.3568 10.899 45.4233 18.122 35.8377C25.345 26.2521 34.4124 18.2081 44.7905 12.179L54.638 29.13C46.5205 33.8458 39.4282 40.1377 33.7785 47.6353C28.1287 55.133 24.0358 63.685 21.7404 72.788C19.445 81.891 18.9936 91.3612 20.4127 100.641C21.8318 109.921 25.0928 118.824 30.0038 126.825C34.9147 134.826 41.3764 141.764 49.0086 147.231C56.6408 152.697 65.2894 156.582 74.4453 158.656C83.6012 160.731 93.0796 160.953 102.323 159.309C111.566 157.666 120.387 154.19 128.266 149.087L138.923 165.542Z" fill="#502D52"/>
<path d="M141.664 111.44C142.357 111.44 142.965 111.573 143.488 111.84C144.021 112.107 144.437 112.512 144.736 113.056C145.034 113.6 145.184 114.288 145.184 115.12V120H143.648V115.296C143.648 114.475 143.445 113.856 143.04 113.44C142.645 113.024 142.085 112.816 141.36 112.816C140.816 112.816 140.341 112.923 139.936 113.136C139.53 113.349 139.216 113.664 138.992 114.08C138.778 114.496 138.672 115.013 138.672 115.632V120H137.136V111.52H138.608V113.808L138.368 113.2C138.645 112.645 139.072 112.213 139.648 111.904C140.224 111.595 140.896 111.44 141.664 111.44Z" fill="black"/>
<path d="M130.611 120.096C129.758 120.096 129.001 119.909 128.339 119.536C127.678 119.163 127.155 118.651 126.771 118C126.387 117.339 126.195 116.592 126.195 115.76C126.195 114.917 126.387 114.171 126.771 113.52C127.155 112.869 127.678 112.363 128.339 112C129.001 111.627 129.758 111.44 130.611 111.44C131.454 111.44 132.206 111.627 132.867 112C133.539 112.363 134.062 112.869 134.435 113.52C134.819 114.16 135.011 114.907 135.011 115.76C135.011 116.603 134.819 117.349 134.435 118C134.062 118.651 133.539 119.163 132.867 119.536C132.206 119.909 131.454 120.096 130.611 120.096ZM130.611 118.752C131.155 118.752 131.641 118.629 132.067 118.384C132.505 118.139 132.846 117.792 133.091 117.344C133.337 116.885 133.459 116.357 133.459 115.76C133.459 115.152 133.337 114.629 133.091 114.192C132.846 113.744 132.505 113.397 132.067 113.152C131.641 112.907 131.155 112.784 130.611 112.784C130.067 112.784 129.582 112.907 129.155 113.152C128.729 113.397 128.387 113.744 128.131 114.192C127.875 114.629 127.747 115.152 127.747 115.76C127.747 116.357 127.875 116.885 128.131 117.344C128.387 117.792 128.729 118.139 129.155 118.384C129.582 118.629 130.067 118.752 130.611 118.752Z" fill="black"/>
<path d="M122.511 120V111.52H124.047V120H122.511ZM123.279 109.888C122.98 109.888 122.729 109.792 122.527 109.6C122.335 109.408 122.239 109.174 122.239 108.896C122.239 108.608 122.335 108.368 122.527 108.176C122.729 107.984 122.98 107.888 123.279 107.888C123.577 107.888 123.823 107.984 124.015 108.176C124.217 108.358 124.319 108.587 124.319 108.864C124.319 109.152 124.223 109.398 124.031 109.6C123.839 109.792 123.588 109.888 123.279 109.888Z" fill="black"/>
<path d="M118.798 120.096C117.944 120.096 117.283 119.867 116.814 119.408C116.344 118.949 116.11 118.293 116.11 117.44V109.664H117.646V117.376C117.646 117.835 117.758 118.187 117.982 118.432C118.216 118.677 118.547 118.8 118.974 118.8C119.454 118.8 119.854 118.667 120.174 118.4L120.654 119.504C120.419 119.707 120.136 119.856 119.806 119.952C119.486 120.048 119.15 120.096 118.798 120.096ZM114.67 112.784V111.52H120.078V112.784H114.67Z" fill="black"/>
<path d="M111.417 120V111.52H112.953V120H111.417ZM112.185 109.888C111.886 109.888 111.636 109.792 111.433 109.6C111.241 109.408 111.145 109.174 111.145 108.896C111.145 108.608 111.241 108.368 111.433 108.176C111.636 107.984 111.886 107.888 112.185 107.888C112.484 107.888 112.729 107.984 112.921 108.176C113.124 108.358 113.225 108.587 113.225 108.864C113.225 109.152 113.129 109.398 112.937 109.6C112.745 109.792 112.494 109.888 112.185 109.888Z" fill="black"/>
<path d="M105.054 111.44C105.748 111.44 106.356 111.573 106.878 111.84C107.412 112.107 107.828 112.512 108.126 113.056C108.425 113.6 108.574 114.288 108.574 115.12V120H107.038V115.296C107.038 114.475 106.836 113.856 106.43 113.44C106.036 113.024 105.476 112.816 104.75 112.816C104.206 112.816 103.732 112.923 103.326 113.136C102.921 113.349 102.606 113.664 102.382 114.08C102.169 114.496 102.062 115.013 102.062 115.632V120H100.526V111.52H101.998V113.808L101.758 113.2C102.036 112.645 102.462 112.213 103.038 111.904C103.614 111.595 104.286 111.44 105.054 111.44Z" fill="black"/>
<path d="M93.1914 123.2C92.4128 123.2 91.6554 123.088 90.9194 122.864C90.1941 122.651 89.6021 122.341 89.1434 121.936L89.8794 120.752C90.2741 121.093 90.7594 121.36 91.3354 121.552C91.9114 121.755 92.5141 121.856 93.1434 121.856C94.1461 121.856 94.8821 121.621 95.3514 121.152C95.8208 120.683 96.0554 119.968 96.0554 119.008V117.216L96.2154 115.536L96.1354 113.84V111.52H97.5914V118.848C97.5914 120.341 97.2181 121.44 96.4714 122.144C95.7248 122.848 94.6314 123.2 93.1914 123.2ZM92.9994 119.648C92.1781 119.648 91.4421 119.477 90.7914 119.136C90.1514 118.784 89.6394 118.299 89.2554 117.68C88.8821 117.061 88.6954 116.347 88.6954 115.536C88.6954 114.715 88.8821 114 89.2554 113.392C89.6394 112.773 90.1514 112.293 90.7914 111.952C91.4421 111.611 92.1781 111.44 92.9994 111.44C93.7248 111.44 94.3861 111.589 94.9834 111.888C95.5808 112.176 96.0554 112.624 96.4074 113.232C96.7701 113.84 96.9514 114.608 96.9514 115.536C96.9514 116.453 96.7701 117.216 96.4074 117.824C96.0554 118.432 95.5808 118.891 94.9834 119.2C94.3861 119.499 93.7248 119.648 92.9994 119.648ZM93.1754 118.304C93.7408 118.304 94.2421 118.187 94.6794 117.952C95.1168 117.717 95.4581 117.392 95.7034 116.976C95.9594 116.56 96.0874 116.08 96.0874 115.536C96.0874 114.992 95.9594 114.512 95.7034 114.096C95.4581 113.68 95.1168 113.36 94.6794 113.136C94.2421 112.901 93.7408 112.784 93.1754 112.784C92.6101 112.784 92.1034 112.901 91.6554 113.136C91.2181 113.36 90.8714 113.68 90.6154 114.096C90.3701 114.512 90.2474 114.992 90.2474 115.536C90.2474 116.08 90.3701 116.56 90.6154 116.976C90.8714 117.392 91.2181 117.717 91.6554 117.952C92.1034 118.187 92.6101 118.304 93.1754 118.304Z" fill="black"/>
<path d="M82.9552 120.096C82.1019 120.096 81.3445 119.909 80.6832 119.536C80.0219 119.163 79.4992 118.651 79.1152 118C78.7312 117.339 78.5392 116.592 78.5392 115.76C78.5392 114.917 78.7312 114.171 79.1152 113.52C79.4992 112.869 80.0219 112.363 80.6832 112C81.3445 111.627 82.1019 111.44 82.9552 111.44C83.7979 111.44 84.5499 111.627 85.2112 112C85.8832 112.363 86.4059 112.869 86.7792 113.52C87.1632 114.16 87.3552 114.907 87.3552 115.76C87.3552 116.603 87.1632 117.349 86.7792 118C86.4059 118.651 85.8832 119.163 85.2112 119.536C84.5499 119.909 83.7979 120.096 82.9552 120.096ZM82.9552 118.752C83.4992 118.752 83.9845 118.629 84.4112 118.384C84.8485 118.139 85.1899 117.792 85.4352 117.344C85.6805 116.885 85.8032 116.357 85.8032 115.76C85.8032 115.152 85.6805 114.629 85.4352 114.192C85.1899 113.744 84.8485 113.397 84.4112 113.152C83.9845 112.907 83.4992 112.784 82.9552 112.784C82.4112 112.784 81.9259 112.907 81.4992 113.152C81.0725 113.397 80.7312 113.744 80.4752 114.192C80.2192 114.629 80.0912 115.152 80.0912 115.76C80.0912 116.357 80.2192 116.885 80.4752 117.344C80.7312 117.792 81.0725 118.139 81.4992 118.384C81.9259 118.629 82.4112 118.752 82.9552 118.752Z" fill="black"/>
<path d="M74.0036 120.096C73.1396 120.096 72.3662 119.909 71.6836 119.536C71.0116 119.163 70.4836 118.651 70.0996 118C69.7156 117.349 69.5236 116.603 69.5236 115.76C69.5236 114.917 69.7156 114.171 70.0996 113.52C70.4836 112.869 71.0116 112.363 71.6836 112C72.3662 111.627 73.1396 111.44 74.0036 111.44C74.7716 111.44 75.4542 111.595 76.0516 111.904C76.6596 112.203 77.1289 112.651 77.4596 113.248L76.2916 114C76.0142 113.584 75.6729 113.28 75.2676 113.088C74.8729 112.885 74.4462 112.784 73.9876 112.784C73.4329 112.784 72.9369 112.907 72.4996 113.152C72.0622 113.397 71.7156 113.744 71.4596 114.192C71.2036 114.629 71.0756 115.152 71.0756 115.76C71.0756 116.368 71.2036 116.896 71.4596 117.344C71.7156 117.792 72.0622 118.139 72.4996 118.384C72.9369 118.629 73.4329 118.752 73.9876 118.752C74.4462 118.752 74.8729 118.656 75.2676 118.464C75.6729 118.261 76.0142 117.952 76.2916 117.536L77.4596 118.272C77.1289 118.859 76.6596 119.312 76.0516 119.632C75.4542 119.941 74.7716 120.096 74.0036 120.096Z" fill="black"/>
<path d="M64.2867 120.096C63.38 120.096 62.58 119.909 61.8867 119.536C61.204 119.163 60.6707 118.651 60.2867 118C59.9134 117.349 59.7267 116.603 59.7267 115.76C59.7267 114.917 59.908 114.171 60.2707 113.52C60.644 112.869 61.1507 112.363 61.7907 112C62.4414 111.627 63.172 111.44 63.9827 111.44C64.804 111.44 65.5294 111.621 66.1587 111.984C66.788 112.347 67.2787 112.859 67.6307 113.52C67.9934 114.171 68.1747 114.933 68.1747 115.808C68.1747 115.872 68.1694 115.947 68.1587 116.032C68.1587 116.117 68.1534 116.197 68.1427 116.272H60.9267V115.168H67.3427L66.7187 115.552C66.7294 115.008 66.6174 114.523 66.3827 114.096C66.148 113.669 65.8227 113.339 65.4067 113.104C65.0014 112.859 64.5267 112.736 63.9827 112.736C63.4494 112.736 62.9747 112.859 62.5587 113.104C62.1427 113.339 61.8174 113.675 61.5827 114.112C61.348 114.539 61.2307 115.029 61.2307 115.584V115.84C61.2307 116.405 61.3587 116.912 61.6147 117.36C61.8814 117.797 62.2494 118.139 62.7187 118.384C63.188 118.629 63.7267 118.752 64.3347 118.752C64.836 118.752 65.2894 118.667 65.6947 118.496C66.1107 118.325 66.4734 118.069 66.7827 117.728L67.6307 118.72C67.2467 119.168 66.7667 119.509 66.1907 119.744C65.6254 119.979 64.9907 120.096 64.2867 120.096Z" fill="black"/>
<path d="M49.1097 120V108.8H53.4777C54.4591 108.8 55.2964 108.954 55.9897 109.264C56.6831 109.573 57.2164 110.021 57.5897 110.608C57.9631 111.194 58.1497 111.893 58.1497 112.704C58.1497 113.514 57.9631 114.213 57.5897 114.8C57.2164 115.376 56.6831 115.818 55.9897 116.128C55.2964 116.437 54.4591 116.592 53.4777 116.592H49.9897L50.7097 115.856V120H49.1097ZM56.5977 120L53.7497 115.936H55.4617L58.3417 120H56.5977ZM50.7097 116.016L49.9897 115.232H53.4297C54.4537 115.232 55.2271 115.013 55.7497 114.576C56.2831 114.128 56.5497 113.504 56.5497 112.704C56.5497 111.904 56.2831 111.285 55.7497 110.848C55.2271 110.41 54.4537 110.192 53.4297 110.192H49.9897L50.7097 109.392V116.016Z" fill="black"/>
<path d="M113.554 100.096C112.732 100.096 111.996 99.9146 111.346 99.5519C110.706 99.1893 110.199 98.6826 109.826 98.0319C109.452 97.3813 109.266 96.6239 109.266 95.7599C109.266 94.8959 109.452 94.1439 109.826 93.5039C110.199 92.8533 110.706 92.3466 111.346 91.9839C111.996 91.6213 112.732 91.4399 113.554 91.4399C114.268 91.4399 114.914 91.5999 115.49 91.9199C116.066 92.2399 116.524 92.7199 116.866 93.3599C117.218 93.9999 117.394 94.7999 117.394 95.7599C117.394 96.7199 117.223 97.5199 116.882 98.1599C116.551 98.7999 116.098 99.2853 115.522 99.6159C114.946 99.9359 114.29 100.096 113.554 100.096ZM113.682 98.7519C114.215 98.7519 114.695 98.6293 115.122 98.3839C115.559 98.1386 115.9 97.7919 116.146 97.3439C116.402 96.8853 116.53 96.3573 116.53 95.7599C116.53 95.1519 116.402 94.6293 116.146 94.1919C115.9 93.7439 115.559 93.3973 115.122 93.1519C114.695 92.9066 114.215 92.7839 113.682 92.7839C113.138 92.7839 112.652 92.9066 112.226 93.1519C111.799 93.3973 111.458 93.7439 111.202 94.1919C110.946 94.6293 110.818 95.1519 110.818 95.7599C110.818 96.3573 110.946 96.8853 111.202 97.3439C111.458 97.7919 111.799 98.1386 112.226 98.3839C112.652 98.6293 113.138 98.7519 113.682 98.7519ZM116.578 99.9999V97.7119L116.674 95.7439L116.514 93.7759V88.1279H118.05V99.9999H116.578Z" fill="black"/>
<path d="M103.687 91.4399C104.381 91.4399 104.989 91.5733 105.511 91.8399C106.045 92.1066 106.461 92.5119 106.759 93.0559C107.058 93.5999 107.207 94.2879 107.207 95.1199V99.9999H105.671V95.2959C105.671 94.4746 105.469 93.8559 105.063 93.4399C104.669 93.0239 104.109 92.8159 103.383 92.8159C102.839 92.8159 102.365 92.9226 101.959 93.1359C101.554 93.3493 101.239 93.6639 101.015 94.0799C100.802 94.4959 100.695 95.0133 100.695 95.6319V99.9999H99.1592V91.5199H100.631V93.8079L100.391 93.1999C100.669 92.6453 101.095 92.2133 101.671 91.9039C102.247 91.5946 102.919 91.4399 103.687 91.4399Z" fill="black"/>
<path d="M94.8607 99.9999V98.2079L94.7807 97.8719V94.8159C94.7807 94.1653 94.5887 93.6639 94.2047 93.3119C93.8313 92.9493 93.266 92.7679 92.5087 92.7679C92.0073 92.7679 91.5167 92.8533 91.0367 93.0239C90.5567 93.1839 90.1513 93.4026 89.8207 93.6799L89.1807 92.5279C89.618 92.1759 90.1407 91.9093 90.7487 91.7279C91.3673 91.5359 92.0127 91.4399 92.6847 91.4399C93.8473 91.4399 94.7433 91.7226 95.3727 92.2879C96.002 92.8533 96.3167 93.7173 96.3167 94.8799V99.9999H94.8607ZM92.0767 100.096C91.4473 100.096 90.8927 99.9893 90.4127 99.7759C89.9433 99.5626 89.5807 99.2693 89.3247 98.8959C89.0687 98.5119 88.9407 98.0799 88.9407 97.5999C88.9407 97.1413 89.0473 96.7253 89.2607 96.3519C89.4847 95.9786 89.842 95.6799 90.3327 95.4559C90.834 95.2319 91.506 95.1199 92.3487 95.1199H95.0367V96.2239H92.4127C91.6447 96.2239 91.1273 96.3519 90.8607 96.6079C90.594 96.8639 90.4607 97.1733 90.4607 97.5359C90.4607 97.9519 90.626 98.2879 90.9567 98.5439C91.2873 98.7893 91.746 98.9119 92.3327 98.9119C92.9087 98.9119 93.41 98.7839 93.8367 98.5279C94.274 98.2719 94.5887 97.8986 94.7807 97.4079L95.0847 98.4639C94.882 98.9653 94.5247 99.3653 94.0127 99.6639C93.5007 99.9519 92.8553 100.096 92.0767 100.096Z" fill="black"/>
<path d="M83.7686 99.9999V91.5199H85.2406V93.8239L85.0966 93.2479C85.3312 92.6613 85.7259 92.2133 86.2806 91.9039C86.8352 91.5946 87.5179 91.4399 88.3286 91.4399V92.9279C88.2646 92.9173 88.2006 92.9119 88.1366 92.9119C88.0832 92.9119 88.0299 92.9119 87.9766 92.9119C87.1552 92.9119 86.5046 93.1573 86.0246 93.6479C85.5446 94.1386 85.3046 94.8479 85.3046 95.7759V99.9999H83.7686Z" fill="black"/>
<path d="M71.8832 99.9998V88.7998H76.9072C78.1978 88.7998 79.1898 89.0611 79.8832 89.5838C80.5765 90.0958 80.9232 90.7998 80.9232 91.6958C80.9232 92.3038 80.7845 92.8158 80.5072 93.2318C80.2405 93.6478 79.8778 93.9678 79.4192 94.1918C78.9605 94.4158 78.4645 94.5278 77.9312 94.5278L78.2192 94.0478C78.8592 94.0478 79.4245 94.1598 79.9152 94.3838C80.4058 94.6078 80.7952 94.9385 81.0832 95.3758C81.3712 95.8025 81.5152 96.3358 81.5152 96.9758C81.5152 97.9358 81.1525 98.6825 80.4272 99.2158C79.7125 99.7385 78.6458 99.9998 77.2272 99.9998H71.8832ZM73.4832 98.7038H77.1632C78.0485 98.7038 78.7258 98.5545 79.1952 98.2558C79.6645 97.9571 79.8992 97.4878 79.8992 96.8478C79.8992 96.1971 79.6645 95.7225 79.1952 95.4238C78.7258 95.1251 78.0485 94.9758 77.1632 94.9758H73.3392V93.6798H76.7632C77.5738 93.6798 78.2032 93.5305 78.6512 93.2318C79.0992 92.9331 79.3232 92.4851 79.3232 91.8878C79.3232 91.2905 79.0992 90.8425 78.6512 90.5438C78.2032 90.2451 77.5738 90.0958 76.7632 90.0958H73.4832V98.7038Z" fill="black"/>
<path d="M130.288 80.0959C129.467 80.0959 128.731 79.9146 128.08 79.5519C127.44 79.1893 126.933 78.6826 126.56 78.0319C126.187 77.3813 126 76.6239 126 75.7599C126 74.8959 126.187 74.1439 126.56 73.5039C126.933 72.8533 127.44 72.3466 128.08 71.9839C128.731 71.6213 129.467 71.4399 130.288 71.4399C131.003 71.4399 131.648 71.5999 132.224 71.9199C132.8 72.2399 133.259 72.7199 133.6 73.3599C133.952 73.9999 134.128 74.7999 134.128 75.7599C134.128 76.7199 133.957 77.5199 133.616 78.1599C133.285 78.7999 132.832 79.2853 132.256 79.6159C131.68 79.9359 131.024 80.0959 130.288 80.0959ZM130.416 78.7519C130.949 78.7519 131.429 78.6293 131.856 78.3839C132.293 78.1386 132.635 77.7919 132.88 77.3439C133.136 76.8853 133.264 76.3573 133.264 75.7599C133.264 75.1519 133.136 74.6293 132.88 74.1919C132.635 73.7439 132.293 73.3973 131.856 73.1519C131.429 72.9066 130.949 72.7839 130.416 72.7839C129.872 72.7839 129.387 72.9066 128.96 73.1519C128.533 73.3973 128.192 73.7439 127.936 74.1919C127.68 74.6293 127.552 75.1519 127.552 75.7599C127.552 76.3573 127.68 76.8853 127.936 77.3439C128.192 77.7919 128.533 78.1386 128.96 78.3839C129.387 78.6293 129.872 78.7519 130.416 78.7519ZM133.312 79.9999V77.7119L133.408 75.7439L133.248 73.7759V68.1279H134.784V79.9999H133.312Z" fill="black"/>
<path d="M120.763 80.0959C119.857 80.0959 119.057 79.9093 118.363 79.5359C117.681 79.1626 117.147 78.6506 116.763 77.9999C116.39 77.3493 116.203 76.6026 116.203 75.7599C116.203 74.9173 116.385 74.1706 116.747 73.5199C117.121 72.8693 117.627 72.3626 118.267 71.9999C118.918 71.6266 119.649 71.4399 120.459 71.4399C121.281 71.4399 122.006 71.6213 122.635 71.9839C123.265 72.3466 123.755 72.8586 124.107 73.5199C124.47 74.1706 124.651 74.9333 124.651 75.8079C124.651 75.8719 124.646 75.9466 124.635 76.0319C124.635 76.1173 124.63 76.1973 124.619 76.2719H117.403V75.1679H123.819L123.195 75.5519C123.206 75.0079 123.094 74.5226 122.859 74.0959C122.625 73.6693 122.299 73.3386 121.883 73.1039C121.478 72.8586 121.003 72.7359 120.459 72.7359C119.926 72.7359 119.451 72.8586 119.035 73.1039C118.619 73.3386 118.294 73.6746 118.059 74.1119C117.825 74.5386 117.707 75.0293 117.707 75.5839V75.8399C117.707 76.4053 117.835 76.9119 118.091 77.3599C118.358 77.7973 118.726 78.1386 119.195 78.3839C119.665 78.6293 120.203 78.7519 120.811 78.7519C121.313 78.7519 121.766 78.6666 122.171 78.4959C122.587 78.3253 122.95 78.0693 123.259 77.7279L124.107 78.7199C123.723 79.1679 123.243 79.5093 122.667 79.7439C122.102 79.9786 121.467 80.0959 120.763 80.0959Z" fill="black"/>
<path d="M110.508 80L106.796 71.52H108.396L111.692 79.2H110.924L114.284 71.52H115.788L112.076 80H110.508Z" fill="black"/>
<path d="M101.994 80.0959C101.141 80.0959 100.384 79.9093 99.7222 79.5359C99.0609 79.1626 98.5382 78.6506 98.1542 77.9999C97.7702 77.3386 97.5782 76.5919 97.5782 75.7599C97.5782 74.9173 97.7702 74.1706 98.1542 73.5199C98.5382 72.8693 99.0609 72.3626 99.7222 71.9999C100.384 71.6266 101.141 71.4399 101.994 71.4399C102.837 71.4399 103.589 71.6266 104.25 71.9999C104.922 72.3626 105.445 72.8693 105.818 73.5199C106.202 74.1599 106.394 74.9066 106.394 75.7599C106.394 76.6026 106.202 77.3493 105.818 77.9999C105.445 78.6506 104.922 79.1626 104.25 79.5359C103.589 79.9093 102.837 80.0959 101.994 80.0959ZM101.994 78.7519C102.538 78.7519 103.024 78.6293 103.45 78.3839C103.888 78.1386 104.229 77.7919 104.474 77.3439C104.72 76.8853 104.842 76.3573 104.842 75.7599C104.842 75.1519 104.72 74.6293 104.474 74.1919C104.229 73.7439 103.888 73.3973 103.45 73.1519C103.024 72.9066 102.538 72.7839 101.994 72.7839C101.45 72.7839 100.965 72.9066 100.538 73.1519C100.112 73.3973 99.7702 73.7439 99.5142 74.1919C99.2582 74.6293 99.1302 75.1519 99.1302 75.7599C99.1302 76.3573 99.2582 76.8853 99.5142 77.3439C99.7702 77.7919 100.112 78.1386 100.538 78.3839C100.965 78.6293 101.45 78.7519 101.994 78.7519Z" fill="black"/>
<path d="M91.9873 79.9999V71.5199H93.4593V73.8239L93.3153 73.2479C93.55 72.6613 93.9446 72.2133 94.4993 71.9039C95.054 71.5946 95.7366 71.4399 96.5473 71.4399V72.9279C96.4833 72.9173 96.4193 72.9119 96.3553 72.9119C96.302 72.9119 96.2486 72.9119 96.1953 72.9119C95.374 72.9119 94.7233 73.1573 94.2433 73.6479C93.7633 74.1386 93.5233 74.8479 93.5233 75.7759V79.9999H91.9873Z" fill="black"/>
<path d="M85.5771 80.0959C84.8731 80.0959 84.2277 79.9359 83.6411 79.6159C83.0651 79.2853 82.6011 78.7999 82.2491 78.1599C81.9077 77.5199 81.7371 76.7199 81.7371 75.7599C81.7371 74.7999 81.9024 73.9999 82.2331 73.3599C82.5744 72.7199 83.0331 72.2399 83.6091 71.9199C84.1957 71.5999 84.8517 71.4399 85.5771 71.4399C86.4091 71.4399 87.1451 71.6213 87.7851 71.9839C88.4251 72.3466 88.9317 72.8533 89.3051 73.5039C89.6784 74.1439 89.8651 74.8959 89.8651 75.7599C89.8651 76.6239 89.6784 77.3813 89.3051 78.0319C88.9317 78.6826 88.4251 79.1893 87.7851 79.5519C87.1451 79.9146 86.4091 80.0959 85.5771 80.0959ZM81.0811 83.1039V71.5199H82.5531V73.8079L82.4571 75.7759L82.6171 77.7439V83.1039H81.0811ZM85.4491 78.7519C85.9931 78.7519 86.4784 78.6293 86.9051 78.3839C87.3424 78.1386 87.6837 77.7919 87.9291 77.3439C88.1851 76.8853 88.3131 76.3573 88.3131 75.7599C88.3131 75.1519 88.1851 74.6293 87.9291 74.1919C87.6837 73.7439 87.3424 73.3973 86.9051 73.1519C86.4784 72.9066 85.9931 72.7839 85.4491 72.7839C84.9157 72.7839 84.4304 72.9066 83.9931 73.1519C83.5664 73.3973 83.2251 73.7439 82.9691 74.1919C82.7237 74.6293 82.6011 75.1519 82.6011 75.7599C82.6011 76.3573 82.7237 76.8853 82.9691 77.3439C83.2251 77.7919 83.5664 78.1386 83.9931 78.3839C84.4304 78.6293 84.9157 78.7519 85.4491 78.7519Z" fill="black"/>
<path d="M74.7828 71.4399C75.4655 71.4399 76.0681 71.5733 76.5908 71.8399C77.1135 72.1066 77.5188 72.5119 77.8068 73.0559C78.1055 73.5999 78.2548 74.2879 78.2548 75.1199V79.9999H76.7188V75.2959C76.7188 74.4746 76.5268 73.8559 76.1428 73.4399C75.7588 73.0239 75.2201 72.8159 74.5268 72.8159C74.0148 72.8159 73.5668 72.9226 73.1828 73.1359C72.7988 73.3493 72.5001 73.6639 72.2868 74.0799C72.0841 74.4959 71.9828 75.0133 71.9828 75.6319V79.9999H70.4468V75.2959C70.4468 74.4746 70.2548 73.8559 69.8708 73.4399C69.4975 73.0239 68.9588 72.8159 68.2548 72.8159C67.7535 72.8159 67.3108 72.9226 66.9268 73.1359C66.5428 73.3493 66.2441 73.6639 66.0308 74.0799C65.8175 74.4959 65.7108 75.0133 65.7108 75.6319V79.9999H64.1748V71.5199H65.6468V73.7759L65.4068 73.1999C65.6735 72.6453 66.0841 72.2133 66.6388 71.9039C67.1935 71.5946 67.8388 71.4399 68.5748 71.4399C69.3855 71.4399 70.0841 71.6426 70.6708 72.0479C71.2575 72.4426 71.6415 73.0453 71.8228 73.8559L71.1988 73.5999C71.4548 72.9493 71.9028 72.4266 72.5428 72.0319C73.1828 71.6373 73.9295 71.4399 74.7828 71.4399Z" fill="black"/>
<path d="M59.4457 79.9998V68.7998H61.0457V79.9998H59.4457Z" fill="black"/>
<path d="M104.378 1.15583C125.828 4.62719 145.299 15.7423 159.194 32.4488C173.09 49.1553 180.471 70.3251 179.977 92.0493L175.692 91.9518C176.163 71.262 169.133 51.1005 155.899 35.1895C142.665 19.2786 124.122 8.6929 103.693 5.38686L104.378 1.15583Z" fill="#A53691"/>
</svg>
