<svg width="180" height="180" viewBox="0 0 180 180" fill="none" xmlns="http://www.w3.org/2000/svg">
<circle cx="90" cy="90" r="89" fill="#FFF6FD" stroke="white" stroke-width="2"/>
<path d="M138.923 165.542C128.849 172.066 117.571 176.509 105.754 178.61C93.9372 180.711 81.8193 180.427 70.1136 177.775C58.408 175.123 47.351 170.157 37.5934 163.168C27.8358 156.179 19.5747 147.309 13.2961 137.08C7.01761 126.851 2.84852 115.469 1.03421 103.605C-0.780102 91.7403 -0.202983 79.6329 2.7316 67.9948C5.66619 56.3568 10.899 45.4233 18.122 35.8377C25.345 26.2521 34.4124 18.2081 44.7905 12.179L54.638 29.13C46.5205 33.8458 39.4282 40.1377 33.7785 47.6353C28.1287 55.133 24.0358 63.685 21.7404 72.788C19.445 81.891 18.9936 91.3612 20.4127 100.641C21.8318 109.921 25.0928 118.824 30.0038 126.825C34.9147 134.826 41.3764 141.764 49.0086 147.231C56.6408 152.697 65.2894 156.582 74.4453 158.656C83.6012 160.731 93.0796 160.953 102.323 159.309C111.566 157.666 120.387 154.19 128.266 149.087L138.923 165.542Z" fill="#502D52"/>
<path d="M58.0768 80.128C57.2235 80.128 56.4075 80 55.6288 79.744C54.8501 79.4773 54.2368 79.136 53.7888 78.72L54.3808 77.472C54.8075 77.8453 55.3515 78.1547 56.0128 78.4C56.6741 78.6453 57.3621 78.768 58.0768 78.768C58.7275 78.768 59.2555 78.6933 59.6608 78.544C60.0661 78.3947 60.3648 78.192 60.5568 77.936C60.7488 77.6693 60.8448 77.3707 60.8448 77.04C60.8448 76.656 60.7168 76.3467 60.4608 76.112C60.2155 75.8773 59.8901 75.6907 59.4848 75.552C59.0901 75.4027 58.6528 75.2747 58.1728 75.168C57.6928 75.0613 57.2075 74.9387 56.7168 74.8C56.2368 74.6507 55.7941 74.464 55.3888 74.24C54.9941 74.016 54.6741 73.7173 54.4288 73.344C54.1835 72.96 54.0608 72.4693 54.0608 71.872C54.0608 71.296 54.2101 70.768 54.5088 70.288C54.8181 69.7973 55.2875 69.408 55.9168 69.12C56.5568 68.8213 57.3675 68.672 58.3488 68.672C58.9995 68.672 59.6448 68.7573 60.2848 68.928C60.9248 69.0987 61.4795 69.344 61.9488 69.664L61.4208 70.944C60.9408 70.624 60.4341 70.3947 59.9008 70.256C59.3675 70.1067 58.8501 70.032 58.3488 70.032C57.7195 70.032 57.2021 70.112 56.7968 70.272C56.3915 70.432 56.0928 70.6453 55.9008 70.912C55.7195 71.1787 55.6288 71.4773 55.6288 71.808C55.6288 72.2027 55.7515 72.5173 55.9968 72.752C56.2528 72.9867 56.5781 73.1733 56.9728 73.312C57.3781 73.4507 57.8208 73.5787 58.3008 73.696C58.7808 73.8027 59.2608 73.9253 59.7408 74.064C60.2315 74.2027 60.6741 74.384 61.0688 74.608C61.4741 74.832 61.7995 75.1307 62.0448 75.504C62.2901 75.8773 62.4128 76.3573 62.4128 76.944C62.4128 77.5093 62.2581 78.0373 61.9488 78.528C61.6395 79.008 61.1595 79.3973 60.5088 79.696C59.8688 79.984 59.0581 80.128 58.0768 80.128ZM67.4383 80.096C66.585 80.096 65.9236 79.8667 65.4543 79.408C64.985 78.9493 64.7503 78.2933 64.7503 77.44V69.664H66.2863V77.376C66.2863 77.8347 66.3983 78.1867 66.6223 78.432C66.857 78.6773 67.1876 78.8 67.6143 78.8C68.0943 78.8 68.4943 78.6667 68.8143 78.4L69.2943 79.504C69.0596 79.7067 68.777 79.856 68.4463 79.952C68.1263 80.048 67.7903 80.096 67.4383 80.096ZM63.3103 72.784V71.52H68.7183V72.784H63.3103ZM71.1513 80V71.52H72.6233V73.824L72.4793 73.248C72.714 72.6613 73.1086 72.2133 73.6633 71.904C74.218 71.5947 74.9006 71.44 75.7113 71.44V72.928C75.6473 72.9173 75.5833 72.912 75.5193 72.912C75.466 72.912 75.4126 72.912 75.3593 72.912C74.538 72.912 73.8873 73.1573 73.4073 73.648C72.9273 74.1387 72.6873 74.848 72.6873 75.776V80H71.1513ZM81.2818 80.096C80.5565 80.096 79.9165 79.9627 79.3618 79.696C78.8178 79.4293 78.3911 79.024 78.0818 78.48C77.7831 77.9253 77.6338 77.232 77.6338 76.4V71.52H79.1698V76.224C79.1698 77.056 79.3671 77.68 79.7618 78.096C80.1671 78.512 80.7325 78.72 81.4578 78.72C81.9911 78.72 82.4551 78.6133 82.8498 78.4C83.2445 78.176 83.5485 77.856 83.7618 77.44C83.9751 77.0133 84.0818 76.5013 84.0818 75.904V71.52H85.6178V80H84.1618V77.712L84.4018 78.32C84.1245 78.8853 83.7085 79.3227 83.1538 79.632C82.5991 79.9413 81.9751 80.096 81.2818 80.096ZM92.2379 80.096C91.3739 80.096 90.6006 79.9093 89.9179 79.536C89.2459 79.1627 88.7179 78.6507 88.3339 78C87.9499 77.3493 87.7579 76.6027 87.7579 75.76C87.7579 74.9173 87.9499 74.1707 88.3339 73.52C88.7179 72.8693 89.2459 72.3627 89.9179 72C90.6006 71.6267 91.3739 71.44 92.2379 71.44C93.0059 71.44 93.6886 71.5947 94.2859 71.904C94.8939 72.2027 95.3633 72.6507 95.6939 73.248L94.5259 74C94.2486 73.584 93.9073 73.28 93.5019 73.088C93.1073 72.8853 92.6806 72.784 92.2219 72.784C91.6673 72.784 91.1713 72.9067 90.7339 73.152C90.2966 73.3973 89.9499 73.744 89.6939 74.192C89.4379 74.6293 89.3099 75.152 89.3099 75.76C89.3099 76.368 89.4379 76.896 89.6939 77.344C89.9499 77.792 90.2966 78.1387 90.7339 78.384C91.1713 78.6293 91.6673 78.752 92.2219 78.752C92.6806 78.752 93.1073 78.656 93.5019 78.464C93.9073 78.2613 94.2486 77.952 94.5259 77.536L95.6939 78.272C95.3633 78.8587 94.8939 79.312 94.2859 79.632C93.6886 79.9413 93.0059 80.096 92.2379 80.096ZM100.704 80.096C99.8506 80.096 99.1893 79.8667 98.7199 79.408C98.2506 78.9493 98.0159 78.2933 98.0159 77.44V69.664H99.5519V77.376C99.5519 77.8347 99.6639 78.1867 99.8879 78.432C100.123 78.6773 100.453 78.8 100.88 78.8C101.36 78.8 101.76 78.6667 102.08 78.4L102.56 79.504C102.325 79.7067 102.043 79.856 101.712 79.952C101.392 80.048 101.056 80.096 100.704 80.096ZM96.5759 72.784V71.52H101.984V72.784H96.5759ZM107.985 80.096C107.26 80.096 106.62 79.9627 106.065 79.696C105.521 79.4293 105.094 79.024 104.785 78.48C104.486 77.9253 104.337 77.232 104.337 76.4V71.52H105.873V76.224C105.873 77.056 106.07 77.68 106.465 78.096C106.87 78.512 107.436 78.72 108.161 78.72C108.694 78.72 109.158 78.6133 109.553 78.4C109.948 78.176 110.252 77.856 110.465 77.44C110.678 77.0133 110.785 76.5013 110.785 75.904V71.52H112.321V80H110.865V77.712L111.105 78.32C110.828 78.8853 110.412 79.3227 109.857 79.632C109.302 79.9413 108.678 80.096 107.985 80.096ZM115.245 80V71.52H116.717V73.824L116.573 73.248C116.808 72.6613 117.202 72.2133 117.757 71.904C118.312 71.5947 118.994 71.44 119.805 71.44V72.928C119.741 72.9173 119.677 72.912 119.613 72.912C119.56 72.912 119.506 72.912 119.453 72.912C118.632 72.912 117.981 73.1573 117.501 73.648C117.021 74.1387 116.781 74.848 116.781 75.776V80H115.245ZM125.396 80.096C124.489 80.096 123.689 79.9093 122.996 79.536C122.313 79.1627 121.78 78.6507 121.396 78C121.023 77.3493 120.836 76.6027 120.836 75.76C120.836 74.9173 121.017 74.1707 121.38 73.52C121.753 72.8693 122.26 72.3627 122.9 72C123.551 71.6267 124.281 71.44 125.092 71.44C125.913 71.44 126.639 71.6213 127.268 71.984C127.897 72.3467 128.388 72.8587 128.74 73.52C129.103 74.1707 129.284 74.9333 129.284 75.808C129.284 75.872 129.279 75.9467 129.268 76.032C129.268 76.1173 129.263 76.1973 129.252 76.272H122.036V75.168H128.452L127.828 75.552C127.839 75.008 127.727 74.5227 127.492 74.096C127.257 73.6693 126.932 73.3387 126.516 73.104C126.111 72.8587 125.636 72.736 125.092 72.736C124.559 72.736 124.084 72.8587 123.668 73.104C123.252 73.3387 122.927 73.6747 122.692 74.112C122.457 74.5387 122.34 75.0293 122.34 75.584V75.84C122.34 76.4053 122.468 76.912 122.724 77.36C122.991 77.7973 123.359 78.1387 123.828 78.384C124.297 78.6293 124.836 78.752 125.444 78.752C125.945 78.752 126.399 78.6667 126.804 78.496C127.22 78.3253 127.583 78.0693 127.892 77.728L128.74 78.72C128.356 79.168 127.876 79.5093 127.3 79.744C126.735 79.9787 126.1 80.096 125.396 80.096ZM134.921 80.096C134.1 80.096 133.364 79.9147 132.713 79.552C132.073 79.1893 131.566 78.6827 131.193 78.032C130.82 77.3813 130.633 76.624 130.633 75.76C130.633 74.896 130.82 74.144 131.193 73.504C131.566 72.8533 132.073 72.3467 132.713 71.984C133.364 71.6213 134.1 71.44 134.921 71.44C135.636 71.44 136.281 71.6 136.857 71.92C137.433 72.24 137.892 72.72 138.233 73.36C138.585 74 138.761 74.8 138.761 75.76C138.761 76.72 138.59 77.52 138.249 78.16C137.918 78.8 137.465 79.2853 136.889 79.616C136.313 79.936 135.657 80.096 134.921 80.096ZM135.049 78.752C135.582 78.752 136.062 78.6293 136.489 78.384C136.926 78.1387 137.268 77.792 137.513 77.344C137.769 76.8853 137.897 76.3573 137.897 75.76C137.897 75.152 137.769 74.6293 137.513 74.192C137.268 73.744 136.926 73.3973 136.489 73.152C136.062 72.9067 135.582 72.784 135.049 72.784C134.505 72.784 134.02 72.9067 133.593 73.152C133.166 73.3973 132.825 73.744 132.569 74.192C132.313 74.6293 132.185 75.152 132.185 75.76C132.185 76.3573 132.313 76.8853 132.569 77.344C132.825 77.792 133.166 78.1387 133.593 78.384C134.02 78.6293 134.505 78.752 135.049 78.752ZM137.945 80V77.712L138.041 75.744L137.881 73.776V68.128H139.417V80H137.945ZM67.9049 100.128C67.0516 100.128 66.2356 100 65.4569 99.744C64.6783 99.4773 64.0649 99.136 63.6169 98.72L64.2089 97.472C64.6356 97.8453 65.1796 98.1547 65.8409 98.4C66.5023 98.6453 67.1903 98.768 67.9049 98.768C68.5556 98.768 69.0836 98.6933 69.4889 98.544C69.8943 98.3947 70.1929 98.192 70.3849 97.936C70.5769 97.6693 70.6729 97.3707 70.6729 97.04C70.6729 96.656 70.5449 96.3467 70.2889 96.112C70.0436 95.8773 69.7183 95.6907 69.3129 95.552C68.9183 95.4027 68.4809 95.2747 68.0009 95.168C67.5209 95.0613 67.0356 94.9387 66.5449 94.8C66.0649 94.6507 65.6223 94.464 65.2169 94.24C64.8223 94.016 64.5023 93.7173 64.2569 93.344C64.0116 92.96 63.8889 92.4693 63.8889 91.872C63.8889 91.296 64.0383 90.768 64.3369 90.288C64.6463 89.7973 65.1156 89.408 65.7449 89.12C66.3849 88.8213 67.1956 88.672 68.1769 88.672C68.8276 88.672 69.4729 88.7573 70.1129 88.928C70.7529 89.0987 71.3076 89.344 71.7769 89.664L71.2489 90.944C70.7689 90.624 70.2623 90.3947 69.7289 90.256C69.1956 90.1067 68.6783 90.032 68.1769 90.032C67.5476 90.032 67.0303 90.112 66.6249 90.272C66.2196 90.432 65.9209 90.6453 65.7289 90.912C65.5476 91.1787 65.4569 91.4773 65.4569 91.808C65.4569 92.2027 65.5796 92.5173 65.8249 92.752C66.0809 92.9867 66.4063 93.1733 66.8009 93.312C67.2063 93.4507 67.6489 93.5787 68.1289 93.696C68.6089 93.8027 69.0889 93.9253 69.5689 94.064C70.0596 94.2027 70.5023 94.384 70.8969 94.608C71.3023 94.832 71.6276 95.1307 71.8729 95.504C72.1183 95.8773 72.2409 96.3573 72.2409 96.944C72.2409 97.5093 72.0863 98.0373 71.7769 98.528C71.4676 99.008 70.9876 99.3973 70.3369 99.696C69.6969 99.984 68.8863 100.128 67.9049 100.128ZM77.2664 100.096C76.4131 100.096 75.7518 99.8667 75.2824 99.408C74.8131 98.9493 74.5784 98.2933 74.5784 97.44V89.664H76.1144V97.376C76.1144 97.8347 76.2264 98.1867 76.4504 98.432C76.6851 98.6773 77.0158 98.8 77.4424 98.8C77.9224 98.8 78.3224 98.6667 78.6424 98.4L79.1224 99.504C78.8878 99.7067 78.6051 99.856 78.2744 99.952C77.9544 100.048 77.6184 100.096 77.2664 100.096ZM73.1384 92.784V91.52H78.5464V92.784H73.1384ZM80.9794 100V91.52H82.4514V93.824L82.3074 93.248C82.5421 92.6613 82.9368 92.2133 83.4914 91.904C84.0461 91.5947 84.7288 91.44 85.5394 91.44V92.928C85.4754 92.9173 85.4114 92.912 85.3474 92.912C85.2941 92.912 85.2408 92.912 85.1874 92.912C84.3661 92.912 83.7154 93.1573 83.2354 93.648C82.7554 94.1387 82.5154 94.848 82.5154 95.776V100H80.9794ZM92.0716 100V98.208L91.9916 97.872V94.816C91.9916 94.1653 91.7996 93.664 91.4156 93.312C91.0422 92.9493 90.4769 92.768 89.7196 92.768C89.2182 92.768 88.7276 92.8533 88.2476 93.024C87.7676 93.184 87.3622 93.4027 87.0316 93.68L86.3916 92.528C86.8289 92.176 87.3516 91.9093 87.9596 91.728C88.5782 91.536 89.2236 91.44 89.8956 91.44C91.0582 91.44 91.9542 91.7227 92.5836 92.288C93.2129 92.8533 93.5276 93.7173 93.5276 94.88V100H92.0716ZM89.2876 100.096C88.6582 100.096 88.1036 99.9893 87.6236 99.776C87.1542 99.5627 86.7916 99.2693 86.5356 98.896C86.2796 98.512 86.1516 98.08 86.1516 97.6C86.1516 97.1413 86.2582 96.7253 86.4716 96.352C86.6956 95.9787 87.0529 95.68 87.5436 95.456C88.0449 95.232 88.7169 95.12 89.5596 95.12H92.2476V96.224H89.6236C88.8556 96.224 88.3382 96.352 88.0716 96.608C87.8049 96.864 87.6716 97.1733 87.6716 97.536C87.6716 97.952 87.8369 98.288 88.1676 98.544C88.4982 98.7893 88.9569 98.912 89.5436 98.912C90.1196 98.912 90.6209 98.784 91.0476 98.528C91.4849 98.272 91.7996 97.8987 91.9916 97.408L92.2956 98.464C92.0929 98.9653 91.7356 99.3653 91.2236 99.664C90.7116 99.952 90.0662 100.096 89.2876 100.096ZM99.2821 100.096C98.4287 100.096 97.7674 99.8667 97.2981 99.408C96.8287 98.9493 96.5941 98.2933 96.5941 97.44V89.664H98.1301V97.376C98.1301 97.8347 98.2421 98.1867 98.4661 98.432C98.7007 98.6773 99.0314 98.8 99.4581 98.8C99.9381 98.8 100.338 98.6667 100.658 98.4L101.138 99.504C100.903 99.7067 100.621 99.856 100.29 99.952C99.9701 100.048 99.6341 100.096 99.2821 100.096ZM95.1541 92.784V91.52H100.562V92.784H95.1541ZM106.49 100.096C105.583 100.096 104.783 99.9093 104.09 99.536C103.407 99.1627 102.874 98.6507 102.49 98C102.116 97.3493 101.93 96.6027 101.93 95.76C101.93 94.9173 102.111 94.1707 102.474 93.52C102.847 92.8693 103.354 92.3627 103.994 92C104.644 91.6267 105.375 91.44 106.186 91.44C107.007 91.44 107.732 91.6213 108.362 91.984C108.991 92.3467 109.482 92.8587 109.834 93.52C110.196 94.1707 110.378 94.9333 110.378 95.808C110.378 95.872 110.372 95.9467 110.362 96.032C110.362 96.1173 110.356 96.1973 110.346 96.272H103.13V95.168H109.546L108.922 95.552C108.932 95.008 108.82 94.5227 108.586 94.096C108.351 93.6693 108.026 93.3387 107.61 93.104C107.204 92.8587 106.73 92.736 106.186 92.736C105.652 92.736 105.178 92.8587 104.762 93.104C104.346 93.3387 104.02 93.6747 103.786 94.112C103.551 94.5387 103.434 95.0293 103.434 95.584V95.84C103.434 96.4053 103.562 96.912 103.818 97.36C104.084 97.7973 104.452 98.1387 104.922 98.384C105.391 98.6293 105.93 98.752 106.538 98.752C107.039 98.752 107.492 98.6667 107.898 98.496C108.314 98.3253 108.676 98.0693 108.986 97.728L109.834 98.72C109.45 99.168 108.97 99.5093 108.394 99.744C107.828 99.9787 107.194 100.096 106.49 100.096ZM116.223 103.2C115.444 103.2 114.687 103.088 113.951 102.864C113.225 102.651 112.633 102.341 112.175 101.936L112.911 100.752C113.305 101.093 113.791 101.36 114.367 101.552C114.943 101.755 115.545 101.856 116.175 101.856C117.177 101.856 117.913 101.621 118.383 101.152C118.852 100.683 119.087 99.968 119.087 99.008V97.216L119.247 95.536L119.167 93.84V91.52H120.623V98.848C120.623 100.341 120.249 101.44 119.503 102.144C118.756 102.848 117.663 103.2 116.223 103.2ZM116.031 99.648C115.209 99.648 114.473 99.4773 113.823 99.136C113.183 98.784 112.671 98.2987 112.287 97.68C111.913 97.0613 111.727 96.3467 111.727 95.536C111.727 94.7147 111.913 94 112.287 93.392C112.671 92.7733 113.183 92.2933 113.823 91.952C114.473 91.6107 115.209 91.44 116.031 91.44C116.756 91.44 117.417 91.5893 118.015 91.888C118.612 92.176 119.087 92.624 119.439 93.232C119.801 93.84 119.983 94.608 119.983 95.536C119.983 96.4533 119.801 97.216 119.439 97.824C119.087 98.432 118.612 98.8907 118.015 99.2C117.417 99.4987 116.756 99.648 116.031 99.648ZM116.207 98.304C116.772 98.304 117.273 98.1867 117.711 97.952C118.148 97.7173 118.489 97.392 118.735 96.976C118.991 96.56 119.119 96.08 119.119 95.536C119.119 94.992 118.991 94.512 118.735 94.096C118.489 93.68 118.148 93.36 117.711 93.136C117.273 92.9013 116.772 92.784 116.207 92.784C115.641 92.784 115.135 92.9013 114.687 93.136C114.249 93.36 113.903 93.68 113.647 94.096C113.401 94.512 113.279 94.992 113.279 95.536C113.279 96.08 113.401 96.56 113.647 96.976C113.903 97.392 114.249 97.7173 114.687 97.952C115.135 98.1867 115.641 98.304 116.207 98.304ZM123.926 103.2C123.52 103.2 123.126 103.131 122.742 102.992C122.358 102.864 122.027 102.672 121.75 102.416L122.406 101.264C122.619 101.467 122.854 101.621 123.11 101.728C123.366 101.835 123.638 101.888 123.926 101.888C124.299 101.888 124.608 101.792 124.854 101.6C125.099 101.408 125.328 101.067 125.542 100.576L126.07 99.408L126.23 99.216L129.558 91.52H131.062L126.95 100.848C126.704 101.445 126.427 101.915 126.118 102.256C125.819 102.597 125.488 102.837 125.126 102.976C124.763 103.125 124.363 103.2 123.926 103.2ZM125.942 100.272L122.07 91.52H123.67L126.966 99.072L125.942 100.272Z" fill="black"/>
</svg>
