<svg width="181" height="180" viewBox="0 0 181 180" fill="none" xmlns="http://www.w3.org/2000/svg">
<circle cx="90" cy="90" r="89" fill="#FFF6FD" stroke="white" stroke-width="2"/>
<path d="M138.923 165.542C128.849 172.066 117.571 176.509 105.754 178.61C93.9372 180.711 81.8193 180.427 70.1136 177.775C58.408 175.123 47.351 170.157 37.5934 163.168C27.8358 156.179 19.5747 147.309 13.2961 137.08C7.01761 126.851 2.84852 115.469 1.03421 103.605C-0.780102 91.7403 -0.202983 79.6329 2.7316 67.9948C5.66619 56.3568 10.899 45.4233 18.122 35.8377C25.345 26.2521 34.4124 18.2081 44.7905 12.179L54.638 29.13C46.5205 33.8458 39.4282 40.1377 33.7785 47.6353C28.1287 55.133 24.0358 63.685 21.7404 72.788C19.445 81.891 18.9936 91.3612 20.4127 100.641C21.8318 109.921 25.0928 118.824 30.0038 126.825C34.9147 134.826 41.3764 141.764 49.0086 147.231C56.6408 152.697 65.2894 156.582 74.4453 158.656C83.6012 160.731 93.0796 160.953 102.323 159.309C111.566 157.666 120.387 154.19 128.266 149.087L138.923 165.542Z" fill="#502D52"/>
<path d="M115.115 100.096C114.411 100.096 113.739 99.9999 113.099 99.8079C112.469 99.6159 111.973 99.3813 111.611 99.1039L112.251 97.8879C112.613 98.1333 113.061 98.3413 113.595 98.5119C114.128 98.6826 114.672 98.7679 115.227 98.7679C115.941 98.7679 116.453 98.6666 116.763 98.4639C117.083 98.2613 117.243 97.9786 117.243 97.6159C117.243 97.3493 117.147 97.1413 116.955 96.9919C116.763 96.8426 116.507 96.7306 116.187 96.6559C115.877 96.5813 115.531 96.5173 115.147 96.4639C114.763 96.3999 114.379 96.3253 113.995 96.2399C113.611 96.1439 113.259 96.0159 112.939 95.8559C112.619 95.6853 112.363 95.4559 112.171 95.1679C111.979 94.8693 111.883 94.4746 111.883 93.9839C111.883 93.4719 112.027 93.0239 112.315 92.6399C112.603 92.2559 113.008 91.9626 113.531 91.7599C114.064 91.5466 114.693 91.4399 115.419 91.4399C115.973 91.4399 116.533 91.5093 117.099 91.6479C117.675 91.7759 118.144 91.9626 118.507 92.2079L117.851 93.4239C117.467 93.1679 117.067 92.9919 116.651 92.8959C116.235 92.7999 115.819 92.7519 115.403 92.7519C114.731 92.7519 114.229 92.8639 113.899 93.0879C113.568 93.3013 113.403 93.5786 113.403 93.9199C113.403 94.2079 113.499 94.4319 113.691 94.5919C113.893 94.7413 114.149 94.8586 114.459 94.9439C114.779 95.0293 115.131 95.1039 115.515 95.1679C115.899 95.2213 116.283 95.2959 116.667 95.3919C117.051 95.4773 117.397 95.5999 117.707 95.7599C118.027 95.9199 118.283 96.1439 118.475 96.4319C118.677 96.7199 118.779 97.1039 118.779 97.5839C118.779 98.0959 118.629 98.5386 118.331 98.9119C118.032 99.2853 117.611 99.5786 117.067 99.7919C116.523 99.9946 115.872 100.096 115.115 100.096Z" fill="black"/>
<path d="M106.32 91.4399C107.013 91.4399 107.621 91.5733 108.144 91.8399C108.677 92.1066 109.093 92.5119 109.392 93.0559C109.691 93.5999 109.84 94.2879 109.84 95.1199V99.9999H108.304V95.2959C108.304 94.4746 108.101 93.8559 107.696 93.4399C107.301 93.0239 106.741 92.8159 106.016 92.8159C105.472 92.8159 104.997 92.9226 104.592 93.1359C104.187 93.3493 103.872 93.6639 103.648 94.0799C103.435 94.4959 103.328 95.0133 103.328 95.6319V99.9999H101.792V91.5199H103.264V93.8079L103.024 93.1999C103.301 92.6453 103.728 92.2133 104.304 91.9039C104.88 91.5946 105.552 91.4399 106.32 91.4399Z" fill="black"/>
<path d="M97.4935 99.9999V98.2079L97.4135 97.8719V94.8159C97.4135 94.1653 97.2215 93.6639 96.8375 93.3119C96.4642 92.9493 95.8988 92.7679 95.1415 92.7679C94.6402 92.7679 94.1495 92.8533 93.6695 93.0239C93.1895 93.1839 92.7842 93.4026 92.4535 93.6799L91.8135 92.5279C92.2508 92.1759 92.7735 91.9093 93.3815 91.7279C94.0002 91.5359 94.6455 91.4399 95.3175 91.4399C96.4802 91.4399 97.3762 91.7226 98.0055 92.2879C98.6348 92.8533 98.9495 93.7173 98.9495 94.8799V99.9999H97.4935ZM94.7095 100.096C94.0802 100.096 93.5255 99.9893 93.0455 99.7759C92.5762 99.5626 92.2135 99.2693 91.9575 98.8959C91.7015 98.5119 91.5735 98.0799 91.5735 97.5999C91.5735 97.1413 91.6802 96.7253 91.8935 96.3519C92.1175 95.9786 92.4748 95.6799 92.9655 95.4559C93.4668 95.2319 94.1388 95.1199 94.9815 95.1199H97.6695V96.2239H95.0455C94.2775 96.2239 93.7602 96.3519 93.4935 96.6079C93.2268 96.8639 93.0935 97.1733 93.0935 97.5359C93.0935 97.9519 93.2588 98.2879 93.5895 98.5439C93.9202 98.7893 94.3788 98.9119 94.9655 98.9119C95.5415 98.9119 96.0428 98.7839 96.4695 98.5279C96.9068 98.2719 97.2215 97.8986 97.4135 97.4079L97.7175 98.4639C97.5148 98.9653 97.1575 99.3653 96.6455 99.6639C96.1335 99.9519 95.4882 100.096 94.7095 100.096Z" fill="black"/>
<path d="M87.7607 99.9999V88.1279H89.2967V99.9999H87.7607Z" fill="black"/>
<path d="M76.4379 99.9998V88.7998H80.8059C81.7872 88.7998 82.6245 88.9545 83.3179 89.2638C84.0112 89.5731 84.5445 90.0211 84.9179 90.6078C85.2912 91.1945 85.4779 91.8931 85.4779 92.7038C85.4779 93.5145 85.2912 94.2131 84.9179 94.7998C84.5445 95.3758 84.0112 95.8238 83.3179 96.1438C82.6245 96.4531 81.7872 96.6078 80.8059 96.6078H77.3179L78.0379 95.8558V99.9998H76.4379ZM78.0379 96.0158L77.3179 95.2158H80.7579C81.7819 95.2158 82.5552 94.9971 83.0779 94.5598C83.6112 94.1225 83.8779 93.5038 83.8779 92.7038C83.8779 91.9038 83.6112 91.2851 83.0779 90.8478C82.5552 90.4105 81.7819 90.1918 80.7579 90.1918H77.3179L78.0379 89.3918V96.0158Z" fill="black"/>
<path d="M123.818 80.0959C122.911 80.0959 122.111 79.9093 121.418 79.5359C120.735 79.1626 120.202 78.6506 119.818 77.9999C119.445 77.3493 119.258 76.6026 119.258 75.7599C119.258 74.9173 119.439 74.1706 119.802 73.5199C120.175 72.8693 120.682 72.3626 121.322 71.9999C121.973 71.6266 122.703 71.4399 123.514 71.4399C124.335 71.4399 125.061 71.6213 125.69 71.9839C126.319 72.3466 126.81 72.8586 127.162 73.5199C127.525 74.1706 127.706 74.9333 127.706 75.8079C127.706 75.8719 127.701 75.9466 127.69 76.0319C127.69 76.1173 127.685 76.1973 127.674 76.2719H120.458V75.1679H126.874L126.25 75.5519C126.261 75.0079 126.149 74.5226 125.914 74.0959C125.679 73.6693 125.354 73.3386 124.938 73.1039C124.533 72.8586 124.058 72.7359 123.514 72.7359C122.981 72.7359 122.506 72.8586 122.09 73.1039C121.674 73.3386 121.349 73.6746 121.114 74.1119C120.879 74.5386 120.762 75.0293 120.762 75.5839V75.8399C120.762 76.4053 120.89 76.9119 121.146 77.3599C121.413 77.7973 121.781 78.1386 122.25 78.3839C122.719 78.6293 123.258 78.7519 123.866 78.7519C124.367 78.7519 124.821 78.6666 125.226 78.4959C125.642 78.3253 126.005 78.0693 126.314 77.7279L127.162 78.7199C126.778 79.1679 126.298 79.5093 125.722 79.7439C125.157 79.9786 124.522 80.0959 123.818 80.0959Z" fill="black"/>
<path d="M115.573 79.9999V68.1279H117.109V79.9999H115.573Z" fill="black"/>
<path d="M109.163 80.0959C108.459 80.0959 107.814 79.9359 107.227 79.6159C106.651 79.2853 106.187 78.7999 105.835 78.1599C105.494 77.5199 105.323 76.7199 105.323 75.7599C105.323 74.7999 105.488 73.9999 105.819 73.3599C106.16 72.7199 106.619 72.2399 107.195 71.9199C107.782 71.5999 108.438 71.4399 109.163 71.4399C109.995 71.4399 110.731 71.6213 111.371 71.9839C112.011 72.3466 112.518 72.8533 112.891 73.5039C113.264 74.1439 113.451 74.8959 113.451 75.7599C113.451 76.6239 113.264 77.3813 112.891 78.0319C112.518 78.6826 112.011 79.1893 111.371 79.5519C110.731 79.9146 109.995 80.0959 109.163 80.0959ZM104.667 83.1039V71.5199H106.139V73.8079L106.043 75.7759L106.203 77.7439V83.1039H104.667ZM109.035 78.7519C109.579 78.7519 110.064 78.6293 110.491 78.3839C110.928 78.1386 111.27 77.7919 111.515 77.3439C111.771 76.8853 111.899 76.3573 111.899 75.7599C111.899 75.1519 111.771 74.6293 111.515 74.1919C111.27 73.7439 110.928 73.3973 110.491 73.1519C110.064 72.9066 109.579 72.7839 109.035 72.7839C108.502 72.7839 108.016 72.9066 107.579 73.1519C107.152 73.3973 106.811 73.7439 106.555 74.1919C106.31 74.6293 106.187 75.1519 106.187 75.7599C106.187 76.3573 106.31 76.8853 106.555 77.3439C106.811 77.7919 107.152 78.1386 107.579 78.3839C108.016 78.6293 108.502 78.7519 109.035 78.7519Z" fill="black"/>
<path d="M100.198 80.0002V71.5202H101.734V80.0002H100.198ZM100.966 69.8882C100.667 69.8882 100.417 69.7922 100.214 69.6002C100.022 69.4082 99.9261 69.1735 99.9261 68.8962C99.9261 68.6082 100.022 68.3682 100.214 68.1762C100.417 67.9842 100.667 67.8882 100.966 67.8882C101.265 67.8882 101.51 67.9842 101.702 68.1762C101.905 68.3575 102.006 68.5868 102.006 68.8642C102.006 69.1522 101.91 69.3975 101.718 69.6002C101.526 69.7922 101.275 69.8882 100.966 69.8882Z" fill="black"/>
<path d="M96.4852 80.0961C95.6318 80.0961 94.9705 79.8667 94.5012 79.4081C94.0318 78.9494 93.7972 78.2934 93.7972 77.4401V69.6641H95.3332V77.3761C95.3332 77.8347 95.4452 78.1867 95.6692 78.4321C95.9038 78.6774 96.2345 78.8001 96.6612 78.8001C97.1412 78.8001 97.5412 78.6667 97.8612 78.4001L98.3412 79.5041C98.1065 79.7067 97.8238 79.8561 97.4932 79.9521C97.1732 80.0481 96.8372 80.0961 96.4852 80.0961ZM92.3572 72.7841V71.5201H97.7652V72.7841H92.3572Z" fill="black"/>
<path d="M88.8857 79.9999V68.1279H90.4217V79.9999H88.8857Z" fill="black"/>
<path d="M81.6255 80.096C80.9002 80.096 80.2602 79.9627 79.7055 79.696C79.1615 79.4294 78.7349 79.024 78.4255 78.48C78.1269 77.9254 77.9775 77.232 77.9775 76.4V71.52H79.5135V76.224C79.5135 77.056 79.7109 77.68 80.1055 78.096C80.5109 78.512 81.0762 78.72 81.8015 78.72C82.3349 78.72 82.7989 78.6134 83.1935 78.4C83.5882 78.176 83.8922 77.856 84.1055 77.44C84.3189 77.0134 84.4255 76.5014 84.4255 75.904V71.52H85.9615V80H84.5055V77.712L84.7455 78.32C84.4682 78.8854 84.0522 79.3227 83.4975 79.632C82.9429 79.9414 82.3189 80.096 81.6255 80.096Z" fill="black"/>
<path d="M63.0004 79.9998V68.7998H64.3124L69.3364 77.2638H68.6324L73.5924 68.7998H74.9044L74.9204 79.9998H73.3844L73.3684 71.2158H73.7364L69.3204 78.6398H68.5844L64.1364 71.2158H64.5364V79.9998H63.0004Z" fill="black"/>
<path d="M105.378 1.15583C126.828 4.62719 146.299 15.7423 160.194 32.4488C174.09 49.1553 181.471 70.3251 180.977 92.0493L176.692 91.9518C177.163 71.262 170.133 51.1005 156.899 35.1895C143.665 19.2786 125.122 8.6929 104.693 5.38686L105.378 1.15583Z" fill="#A53691"/>
</svg>
