<svg width="180" height="180" viewBox="0 0 180 180" fill="none" xmlns="http://www.w3.org/2000/svg">
<circle cx="90" cy="90" r="89" fill="#FFF6FD" stroke="white" stroke-width="2"/>
<path d="M138.923 165.542C128.849 172.066 117.571 176.509 105.754 178.61C93.9372 180.711 81.8193 180.427 70.1136 177.775C58.408 175.123 47.351 170.157 37.5934 163.168C27.8358 156.179 19.5747 147.309 13.2961 137.08C7.01761 126.851 2.84852 115.469 1.03421 103.605C-0.780102 91.7403 -0.202983 79.6329 2.7316 67.9948C5.66619 56.3568 10.899 45.4233 18.122 35.8377C25.345 26.2521 34.4124 18.2081 44.7905 12.179L54.638 29.13C46.5205 33.8458 39.4282 40.1377 33.7785 47.6353C28.1287 55.133 24.0358 63.685 21.7404 72.788C19.445 81.891 18.9936 91.3612 20.4127 100.641C21.8318 109.921 25.0928 118.824 30.0038 126.825C34.9147 134.826 41.3764 141.764 49.0086 147.231C56.6408 152.697 65.2894 156.582 74.4453 158.656C83.6012 160.731 93.0796 160.953 102.323 159.309C111.566 157.666 120.387 154.19 128.266 149.087L138.923 165.542Z" fill="#502D52"/>
<path d="M123.926 103.2C123.52 103.2 123.126 103.131 122.742 102.992C122.358 102.864 122.027 102.672 121.75 102.416L122.406 101.264C122.619 101.467 122.854 101.621 123.11 101.728C123.366 101.835 123.638 101.888 123.926 101.888C124.299 101.888 124.608 101.792 124.854 101.6C125.099 101.408 125.328 101.067 125.542 100.576L126.07 99.408L126.23 99.216L129.558 91.52H131.062L126.95 100.848C126.704 101.445 126.427 101.915 126.118 102.256C125.819 102.597 125.488 102.837 125.126 102.976C124.763 103.125 124.363 103.2 123.926 103.2ZM125.942 100.272L122.07 91.52H123.67L126.966 99.072L125.942 100.272Z" fill="black"/>
<path d="M116.223 103.2C115.444 103.2 114.687 103.088 113.951 102.864C113.225 102.651 112.633 102.341 112.175 101.936L112.911 100.752C113.305 101.093 113.791 101.36 114.367 101.552C114.943 101.755 115.545 101.856 116.175 101.856C117.177 101.856 117.913 101.621 118.383 101.152C118.852 100.683 119.087 99.9679 119.087 99.0079V97.2159L119.247 95.5359L119.167 93.8399V91.5199H120.623V98.8479C120.623 100.341 120.249 101.44 119.503 102.144C118.756 102.848 117.663 103.2 116.223 103.2ZM116.031 99.6479C115.209 99.6479 114.473 99.4773 113.823 99.1359C113.183 98.7839 112.671 98.2986 112.287 97.6799C111.913 97.0613 111.727 96.3466 111.727 95.5359C111.727 94.7146 111.913 93.9999 112.287 93.3919C112.671 92.7733 113.183 92.2933 113.823 91.9519C114.473 91.6106 115.209 91.4399 116.031 91.4399C116.756 91.4399 117.417 91.5893 118.015 91.8879C118.612 92.1759 119.087 92.6239 119.439 93.2319C119.801 93.8399 119.983 94.6079 119.983 95.5359C119.983 96.4533 119.801 97.2159 119.439 97.8239C119.087 98.4319 118.612 98.8906 118.015 99.1999C117.417 99.4986 116.756 99.6479 116.031 99.6479ZM116.207 98.3039C116.772 98.3039 117.273 98.1866 117.711 97.9519C118.148 97.7173 118.489 97.3919 118.735 96.9759C118.991 96.5599 119.119 96.0799 119.119 95.5359C119.119 94.9919 118.991 94.5119 118.735 94.0959C118.489 93.6799 118.148 93.3599 117.711 93.1359C117.273 92.9013 116.772 92.7839 116.207 92.7839C115.641 92.7839 115.135 92.9013 114.687 93.1359C114.249 93.3599 113.903 93.6799 113.647 94.0959C113.401 94.5119 113.279 94.9919 113.279 95.5359C113.279 96.0799 113.401 96.5599 113.647 96.9759C113.903 97.3919 114.249 97.7173 114.687 97.9519C115.135 98.1866 115.641 98.3039 116.207 98.3039Z" fill="black"/>
<path d="M106.49 100.096C105.583 100.096 104.783 99.9093 104.09 99.5359C103.407 99.1626 102.874 98.6506 102.49 97.9999C102.116 97.3493 101.93 96.6026 101.93 95.7599C101.93 94.9173 102.111 94.1706 102.474 93.5199C102.847 92.8693 103.354 92.3626 103.994 91.9999C104.644 91.6266 105.375 91.4399 106.186 91.4399C107.007 91.4399 107.732 91.6213 108.362 91.9839C108.991 92.3466 109.482 92.8586 109.834 93.5199C110.196 94.1706 110.378 94.9333 110.378 95.8079C110.378 95.8719 110.372 95.9466 110.362 96.0319C110.362 96.1173 110.356 96.1973 110.346 96.2719H103.13V95.1679H109.546L108.922 95.5519C108.932 95.0079 108.82 94.5226 108.586 94.0959C108.351 93.6693 108.026 93.3386 107.61 93.1039C107.204 92.8586 106.73 92.7359 106.186 92.7359C105.652 92.7359 105.178 92.8586 104.762 93.1039C104.346 93.3386 104.02 93.6746 103.786 94.1119C103.551 94.5386 103.434 95.0293 103.434 95.5839V95.8399C103.434 96.4053 103.562 96.9119 103.818 97.3599C104.084 97.7973 104.452 98.1386 104.922 98.3839C105.391 98.6293 105.93 98.7519 106.538 98.7519C107.039 98.7519 107.492 98.6666 107.898 98.4959C108.314 98.3253 108.676 98.0693 108.986 97.7279L109.834 98.7199C109.45 99.1679 108.97 99.5093 108.394 99.7439C107.828 99.9786 107.194 100.096 106.49 100.096Z" fill="black"/>
<path d="M99.2821 100.096C98.4287 100.096 97.7674 99.8667 97.298 99.4081C96.8287 98.9494 96.5941 98.2934 96.5941 97.4401V89.6641H98.1301V97.3761C98.1301 97.8347 98.2421 98.1867 98.4661 98.4321C98.7007 98.6774 99.0314 98.8001 99.458 98.8001C99.938 98.8001 100.338 98.6667 100.658 98.4001L101.138 99.5041C100.903 99.7067 100.621 99.8561 100.29 99.9521C99.9701 100.048 99.6341 100.096 99.2821 100.096ZM95.1541 92.7841V91.5201H100.562V92.7841H95.1541Z" fill="black"/>
<path d="M92.0716 99.9999V98.2079L91.9916 97.8719V94.8159C91.9916 94.1653 91.7996 93.6639 91.4156 93.3119C91.0423 92.9493 90.4769 92.7679 89.7196 92.7679C89.2183 92.7679 88.7276 92.8533 88.2476 93.0239C87.7676 93.1839 87.3623 93.4026 87.0316 93.6799L86.3916 92.5279C86.8289 92.1759 87.3516 91.9093 87.9596 91.7279C88.5783 91.5359 89.2236 91.4399 89.8956 91.4399C91.0583 91.4399 91.9543 91.7226 92.5836 92.2879C93.2129 92.8533 93.5276 93.7173 93.5276 94.8799V99.9999H92.0716ZM89.2876 100.096C88.6583 100.096 88.1036 99.9893 87.6236 99.7759C87.1543 99.5626 86.7916 99.2693 86.5356 98.8959C86.2796 98.5119 86.1516 98.0799 86.1516 97.5999C86.1516 97.1413 86.2583 96.7253 86.4716 96.3519C86.6956 95.9786 87.0529 95.6799 87.5436 95.4559C88.0449 95.2319 88.7169 95.1199 89.5596 95.1199H92.2476V96.2239H89.6236C88.8556 96.2239 88.3383 96.3519 88.0716 96.6079C87.8049 96.8639 87.6716 97.1733 87.6716 97.5359C87.6716 97.9519 87.8369 98.2879 88.1676 98.5439C88.4983 98.7893 88.9569 98.9119 89.5436 98.9119C90.1196 98.9119 90.6209 98.7839 91.0476 98.5279C91.4849 98.2719 91.7996 97.8986 91.9916 97.4079L92.2956 98.4639C92.0929 98.9653 91.7356 99.3653 91.2236 99.6639C90.7116 99.9519 90.0663 100.096 89.2876 100.096Z" fill="black"/>
<path d="M80.9795 99.9999V91.5199H82.4515V93.8239L82.3075 93.2479C82.5422 92.6613 82.9368 92.2133 83.4915 91.9039C84.0462 91.5946 84.7288 91.4399 85.5395 91.4399V92.9279C85.4755 92.9173 85.4115 92.9119 85.3475 92.9119C85.2942 92.9119 85.2408 92.9119 85.1875 92.9119C84.3662 92.9119 83.7155 93.1573 83.2355 93.6479C82.7555 94.1386 82.5155 94.8479 82.5155 95.7759V99.9999H80.9795Z" fill="black"/>
<path d="M77.2664 100.096C76.4131 100.096 75.7518 99.8667 75.2824 99.4081C74.8131 98.9494 74.5784 98.2934 74.5784 97.4401V89.6641H76.1144V97.3761C76.1144 97.8347 76.2264 98.1867 76.4504 98.4321C76.6851 98.6774 77.0158 98.8001 77.4424 98.8001C77.9224 98.8001 78.3224 98.6667 78.6424 98.4001L79.1224 99.5041C78.8878 99.7067 78.6051 99.8561 78.2744 99.9521C77.9544 100.048 77.6184 100.096 77.2664 100.096ZM73.1384 92.7841V91.5201H78.5464V92.7841H73.1384Z" fill="black"/>
<path d="M67.9049 100.128C67.0516 100.128 66.2356 99.9999 65.4569 99.7439C64.6783 99.4772 64.0649 99.1359 63.6169 98.7199L64.2089 97.4719C64.6356 97.8452 65.1796 98.1545 65.8409 98.3999C66.5023 98.6452 67.1903 98.7679 67.9049 98.7679C68.5556 98.7679 69.0836 98.6932 69.4889 98.5439C69.8943 98.3945 70.1929 98.1919 70.3849 97.9359C70.5769 97.6692 70.6729 97.3705 70.6729 97.0399C70.6729 96.6559 70.5449 96.3465 70.2889 96.1119C70.0436 95.8772 69.7183 95.6905 69.3129 95.5519C68.9183 95.4025 68.4809 95.2745 68.0009 95.1679C67.5209 95.0612 67.0356 94.9385 66.5449 94.7999C66.0649 94.6505 65.6223 94.4639 65.2169 94.2399C64.8223 94.0159 64.5023 93.7172 64.2569 93.3439C64.0116 92.9599 63.8889 92.4692 63.8889 91.8719C63.8889 91.2959 64.0383 90.7679 64.3369 90.2879C64.6463 89.7972 65.1156 89.4079 65.7449 89.1199C66.3849 88.8212 67.1956 88.6719 68.1769 88.6719C68.8276 88.6719 69.4729 88.7572 70.1129 88.9279C70.7529 89.0985 71.3076 89.3439 71.7769 89.6639L71.2489 90.9439C70.7689 90.6239 70.2623 90.3945 69.7289 90.2559C69.1956 90.1065 68.6783 90.0319 68.1769 90.0319C67.5476 90.0319 67.0303 90.1119 66.6249 90.2719C66.2196 90.4319 65.9209 90.6452 65.7289 90.9119C65.5476 91.1785 65.4569 91.4772 65.4569 91.8079C65.4569 92.2025 65.5796 92.5172 65.8249 92.7519C66.0809 92.9865 66.4063 93.1732 66.8009 93.3119C67.2063 93.4505 67.6489 93.5785 68.1289 93.6959C68.6089 93.8025 69.0889 93.9252 69.5689 94.0639C70.0596 94.2025 70.5023 94.3839 70.8969 94.6079C71.3023 94.8319 71.6276 95.1305 71.8729 95.5039C72.1183 95.8772 72.2409 96.3572 72.2409 96.9439C72.2409 97.5092 72.0863 98.0372 71.7769 98.5279C71.4676 99.0079 70.9876 99.3972 70.3369 99.6959C69.6969 99.9839 68.8863 100.128 67.9049 100.128Z" fill="black"/>
<path d="M134.921 80.0959C134.1 80.0959 133.364 79.9146 132.713 79.5519C132.073 79.1893 131.566 78.6826 131.193 78.0319C130.82 77.3813 130.633 76.6239 130.633 75.7599C130.633 74.8959 130.82 74.1439 131.193 73.5039C131.566 72.8533 132.073 72.3466 132.713 71.9839C133.364 71.6213 134.1 71.4399 134.921 71.4399C135.636 71.4399 136.281 71.5999 136.857 71.9199C137.433 72.2399 137.892 72.7199 138.233 73.3599C138.585 73.9999 138.761 74.7999 138.761 75.7599C138.761 76.7199 138.59 77.5199 138.249 78.1599C137.918 78.7999 137.465 79.2853 136.889 79.6159C136.313 79.9359 135.657 80.0959 134.921 80.0959ZM135.049 78.7519C135.582 78.7519 136.062 78.6293 136.489 78.3839C136.926 78.1386 137.268 77.7919 137.513 77.3439C137.769 76.8853 137.897 76.3573 137.897 75.7599C137.897 75.1519 137.769 74.6293 137.513 74.1919C137.268 73.7439 136.926 73.3973 136.489 73.1519C136.062 72.9066 135.582 72.7839 135.049 72.7839C134.505 72.7839 134.02 72.9066 133.593 73.1519C133.166 73.3973 132.825 73.7439 132.569 74.1919C132.313 74.6293 132.185 75.1519 132.185 75.7599C132.185 76.3573 132.313 76.8853 132.569 77.3439C132.825 77.7919 133.166 78.1386 133.593 78.3839C134.02 78.6293 134.505 78.7519 135.049 78.7519ZM137.945 79.9999V77.7119L138.041 75.7439L137.881 73.7759V68.1279H139.417V79.9999H137.945Z" fill="black"/>
<path d="M125.396 80.0959C124.489 80.0959 123.689 79.9093 122.996 79.5359C122.313 79.1626 121.78 78.6506 121.396 77.9999C121.023 77.3493 120.836 76.6026 120.836 75.7599C120.836 74.9173 121.017 74.1706 121.38 73.5199C121.753 72.8693 122.26 72.3626 122.9 71.9999C123.551 71.6266 124.281 71.4399 125.092 71.4399C125.913 71.4399 126.639 71.6213 127.268 71.9839C127.897 72.3466 128.388 72.8586 128.74 73.5199C129.103 74.1706 129.284 74.9333 129.284 75.8079C129.284 75.8719 129.279 75.9466 129.268 76.0319C129.268 76.1173 129.263 76.1973 129.252 76.2719H122.036V75.1679H128.452L127.828 75.5519C127.839 75.0079 127.727 74.5226 127.492 74.0959C127.257 73.6693 126.932 73.3386 126.516 73.1039C126.111 72.8586 125.636 72.7359 125.092 72.7359C124.559 72.7359 124.084 72.8586 123.668 73.1039C123.252 73.3386 122.927 73.6746 122.692 74.1119C122.457 74.5386 122.34 75.0293 122.34 75.5839V75.8399C122.34 76.4053 122.468 76.9119 122.724 77.3599C122.991 77.7973 123.359 78.1386 123.828 78.3839C124.297 78.6293 124.836 78.7519 125.444 78.7519C125.945 78.7519 126.399 78.6666 126.804 78.4959C127.22 78.3253 127.583 78.0693 127.892 77.7279L128.74 78.7199C128.356 79.1679 127.876 79.5093 127.3 79.7439C126.735 79.9786 126.1 80.0959 125.396 80.0959Z" fill="black"/>
<path d="M115.245 79.9999V71.5199H116.717V73.8239L116.573 73.2479C116.808 72.6613 117.202 72.2133 117.757 71.9039C118.312 71.5946 118.994 71.4399 119.805 71.4399V72.9279C119.741 72.9173 119.677 72.9119 119.613 72.9119C119.56 72.9119 119.506 72.9119 119.453 72.9119C118.632 72.9119 117.981 73.1573 117.501 73.6479C117.021 74.1386 116.781 74.8479 116.781 75.7759V79.9999H115.245Z" fill="black"/>
<path d="M107.985 80.096C107.26 80.096 106.62 79.9627 106.065 79.696C105.521 79.4294 105.094 79.024 104.785 78.48C104.486 77.9254 104.337 77.232 104.337 76.4V71.52H105.873V76.224C105.873 77.056 106.07 77.68 106.465 78.096C106.87 78.512 107.436 78.72 108.161 78.72C108.694 78.72 109.158 78.6134 109.553 78.4C109.948 78.176 110.252 77.856 110.465 77.44C110.678 77.0134 110.785 76.5014 110.785 75.904V71.52H112.321V80H110.865V77.712L111.105 78.32C110.828 78.8854 110.412 79.3227 109.857 79.632C109.302 79.9414 108.678 80.096 107.985 80.096Z" fill="black"/>
<path d="M100.704 80.0961C99.8506 80.0961 99.1893 79.8667 98.7199 79.4081C98.2506 78.9494 98.0159 78.2934 98.0159 77.4401V69.6641H99.5519V77.3761C99.5519 77.8347 99.6639 78.1867 99.8879 78.4321C100.123 78.6774 100.453 78.8001 100.88 78.8001C101.36 78.8001 101.76 78.6667 102.08 78.4001L102.56 79.5041C102.325 79.7067 102.043 79.8561 101.712 79.9521C101.392 80.0481 101.056 80.0961 100.704 80.0961ZM96.5759 72.7841V71.5201H101.984V72.7841H96.5759Z" fill="black"/>
<path d="M92.2379 80.0959C91.3739 80.0959 90.6006 79.9093 89.9179 79.5359C89.2459 79.1626 88.7179 78.6506 88.3339 77.9999C87.9499 77.3493 87.7579 76.6026 87.7579 75.7599C87.7579 74.9173 87.9499 74.1706 88.3339 73.5199C88.7179 72.8693 89.2459 72.3626 89.9179 71.9999C90.6006 71.6266 91.3739 71.4399 92.2379 71.4399C93.0059 71.4399 93.6886 71.5946 94.2859 71.9039C94.8939 72.2026 95.3633 72.6506 95.6939 73.2479L94.5259 73.9999C94.2486 73.5839 93.9073 73.2799 93.5019 73.0879C93.1073 72.8853 92.6806 72.7839 92.2219 72.7839C91.6673 72.7839 91.1713 72.9066 90.7339 73.1519C90.2966 73.3973 89.9499 73.7439 89.6939 74.1919C89.4379 74.6293 89.3099 75.1519 89.3099 75.7599C89.3099 76.3679 89.4379 76.8959 89.6939 77.3439C89.9499 77.7919 90.2966 78.1386 90.7339 78.3839C91.1713 78.6293 91.6673 78.7519 92.2219 78.7519C92.6806 78.7519 93.1073 78.6559 93.5019 78.4639C93.9073 78.2613 94.2486 77.9519 94.5259 77.5359L95.6939 78.2719C95.3633 78.8586 94.8939 79.3119 94.2859 79.6319C93.6886 79.9413 93.0059 80.0959 92.2379 80.0959Z" fill="black"/>
<path d="M81.2818 80.096C80.5565 80.096 79.9165 79.9627 79.3618 79.696C78.8178 79.4294 78.3911 79.024 78.0818 78.48C77.7831 77.9254 77.6338 77.232 77.6338 76.4V71.52H79.1698V76.224C79.1698 77.056 79.3671 77.68 79.7618 78.096C80.1671 78.512 80.7325 78.72 81.4578 78.72C81.9911 78.72 82.4551 78.6134 82.8498 78.4C83.2445 78.176 83.5485 77.856 83.7618 77.44C83.9751 77.0134 84.0818 76.5014 84.0818 75.904V71.52H85.6178V80H84.1618V77.712L84.4018 78.32C84.1245 78.8854 83.7085 79.3227 83.1538 79.632C82.5991 79.9414 81.9751 80.096 81.2818 80.096Z" fill="black"/>
<path d="M71.1514 79.9999V71.5199H72.6234V73.8239L72.4794 73.2479C72.714 72.6613 73.1087 72.2133 73.6634 71.9039C74.218 71.5946 74.9007 71.4399 75.7114 71.4399V72.9279C75.6474 72.9173 75.5834 72.9119 75.5194 72.9119C75.466 72.9119 75.4127 72.9119 75.3594 72.9119C74.538 72.9119 73.8874 73.1573 73.4074 73.6479C72.9274 74.1386 72.6874 74.8479 72.6874 75.7759V79.9999H71.1514Z" fill="black"/>
<path d="M67.4383 80.0961C66.585 80.0961 65.9236 79.8667 65.4543 79.4081C64.985 78.9494 64.7503 78.2934 64.7503 77.4401V69.6641H66.2863V77.3761C66.2863 77.8347 66.3983 78.1867 66.6223 78.4321C66.857 78.6774 67.1876 78.8001 67.6143 78.8001C68.0943 78.8001 68.4943 78.6667 68.8143 78.4001L69.2943 79.5041C69.0596 79.7067 68.777 79.8561 68.4463 79.9521C68.1263 80.0481 67.7903 80.0961 67.4383 80.0961ZM63.3103 72.7841V71.5201H68.7183V72.7841H63.3103Z" fill="black"/>
<path d="M58.0768 80.1279C57.2235 80.1279 56.4075 79.9999 55.6288 79.7439C54.8502 79.4772 54.2368 79.1359 53.7888 78.7199L54.3808 77.4719C54.8075 77.8452 55.3515 78.1545 56.0128 78.3999C56.6742 78.6452 57.3622 78.7679 58.0768 78.7679C58.7275 78.7679 59.2555 78.6932 59.6608 78.5439C60.0662 78.3945 60.3648 78.1919 60.5568 77.9359C60.7488 77.6692 60.8448 77.3705 60.8448 77.0399C60.8448 76.6559 60.7168 76.3465 60.4608 76.1119C60.2155 75.8772 59.8902 75.6905 59.4848 75.5519C59.0902 75.4025 58.6528 75.2745 58.1728 75.1679C57.6928 75.0612 57.2075 74.9385 56.7168 74.7999C56.2368 74.6505 55.7942 74.4639 55.3888 74.2399C54.9942 74.0159 54.6742 73.7172 54.4288 73.3439C54.1835 72.9599 54.0608 72.4692 54.0608 71.8719C54.0608 71.2959 54.2102 70.7679 54.5088 70.2879C54.8182 69.7972 55.2875 69.4079 55.9168 69.1199C56.5568 68.8212 57.3675 68.6719 58.3488 68.6719C58.9995 68.6719 59.6448 68.7572 60.2848 68.9279C60.9248 69.0985 61.4795 69.3439 61.9488 69.6639L61.4208 70.9439C60.9408 70.6239 60.4342 70.3945 59.9008 70.2559C59.3675 70.1065 58.8502 70.0319 58.3488 70.0319C57.7195 70.0319 57.2022 70.1119 56.7968 70.2719C56.3915 70.4319 56.0928 70.6452 55.9008 70.9119C55.7195 71.1785 55.6288 71.4772 55.6288 71.8079C55.6288 72.2025 55.7515 72.5172 55.9968 72.7519C56.2528 72.9865 56.5782 73.1732 56.9728 73.3119C57.3782 73.4505 57.8208 73.5785 58.3008 73.6959C58.7808 73.8025 59.2608 73.9252 59.7408 74.0639C60.2315 74.2025 60.6742 74.3839 61.0688 74.6079C61.4742 74.8319 61.7995 75.1305 62.0448 75.5039C62.2902 75.8772 62.4128 76.3572 62.4128 76.9439C62.4128 77.5092 62.2582 78.0372 61.9488 78.5279C61.6395 79.0079 61.1595 79.3972 60.5088 79.6959C59.8688 79.9839 59.0582 80.1279 58.0768 80.1279Z" fill="black"/>
<path d="M104.378 1.15583C125.828 4.62719 145.299 15.7423 159.194 32.4488C173.09 49.1553 180.471 70.3251 179.977 92.0493L175.692 91.9518C176.163 71.262 169.133 51.1005 155.899 35.1895C142.665 19.2786 124.122 8.6929 103.693 5.38686L104.378 1.15583Z" fill="#A53691"/>
</svg>
