<svg width="168" height="168" viewBox="0 0 168 168" fill="none" xmlns="http://www.w3.org/2000/svg">
<circle cx="83.9088" cy="83.9087" r="61.5" fill="white" stroke="#A53691"/>
<path d="M67.35 143.657C57.4409 140.911 48.3704 135.743 40.9552 128.619C33.5401 121.495 28.0132 112.639 24.8723 102.848C21.7313 93.0564 21.0749 82.6377 22.9622 72.5297C24.8494 62.4218 29.221 52.9419 35.6834 44.9437L38.5489 47.2589C32.4705 54.7819 28.3586 63.6985 26.5835 73.2059C24.8084 82.7133 25.4258 92.5129 28.3801 101.722C31.3344 110.932 36.5329 119.262 43.5074 125.962C50.482 132.663 59.0135 137.524 68.3339 140.107L67.35 143.657Z" fill="#502D52"/>
<path d="M113.281 100.662V99.987C113.281 88.7557 113.281 77.5245 113.281 66.2932C113.281 64.5847 112.434 63.7503 110.74 63.7503C108.014 63.7503 105.288 63.7503 102.575 63.7503C102.416 63.7503 102.244 63.7503 102.085 63.7503C101.556 63.6841 101.199 63.2867 101.212 62.757C101.212 62.2272 101.569 61.8166 102.112 61.8166C105.288 61.8166 108.451 61.7636 111.627 61.8431C113.493 61.8961 115.147 63.7371 115.227 65.6178C115.227 65.8429 115.227 66.0681 115.227 66.2932C115.227 78.6767 115.187 91.0735 115.253 103.457C115.253 105.973 113.374 108.04 110.701 107.973C106.453 107.881 102.204 107.947 97.9563 107.947H97.2152C97.3475 108.199 97.4269 108.371 97.5328 108.543C98.3533 109.96 99.1341 111.417 100.021 112.808C100.855 114.106 99.9149 115.311 98.618 115.311C88.9438 115.258 79.2697 115.284 69.5956 115.284C68.1001 115.284 67.4516 114.158 68.206 112.847C69.1324 111.245 70.0588 109.655 71.0513 107.96H70.3234C66.0091 107.96 61.708 107.96 57.3937 107.96C54.7469 107.96 53.0265 106.225 53.0265 103.563C53.0265 91.1132 53.0529 78.6635 53 66.2138C53 63.79 54.8925 61.7239 57.3805 61.8034C60.2391 61.8828 63.1109 61.8034 65.9827 61.8431C66.3003 61.8431 66.7238 62.0947 66.909 62.3596C67.0546 62.5848 67.0414 63.1146 66.8693 63.3C66.6311 63.5649 66.1944 63.7503 65.8371 63.7635C63.0182 63.8033 60.1861 63.7768 57.354 63.79C55.8586 63.79 54.9719 64.6906 54.9719 66.1873C54.9719 77.5245 54.9719 88.8484 54.9719 100.186V100.715H113.281V100.662ZM113.242 102.729H55.0248C54.7072 104.967 55.7924 106.013 57.8834 106.013C75.4186 105.973 92.9538 105.987 110.502 105.987C110.727 105.987 110.952 105.987 111.177 105.987C112.262 105.907 113.07 105.232 113.242 104.159C113.321 103.709 113.242 103.232 113.242 102.729ZM97.9298 113.298C97.9298 113.231 97.943 113.178 97.9298 113.152C96.9769 111.496 96.0241 109.841 95.0448 108.212C94.9654 108.066 94.6874 107.96 94.5022 107.96C87.594 107.96 80.6857 107.947 73.7775 107.96C73.5526 107.96 73.2482 108.146 73.1291 108.344C72.2291 109.814 71.3689 111.311 70.5087 112.808C70.4293 112.953 70.3632 113.112 70.2705 113.298H97.9166H97.9298Z" fill="#A53691"/>
<path d="M87.5278 89.9609C87.5278 90.4244 87.5278 90.9145 87.5278 91.4045C87.5013 92.133 87.1175 92.5303 86.3897 92.5435C84.881 92.5568 83.3855 92.5568 81.8768 92.5435C81.1489 92.5435 80.7652 92.1462 80.7387 91.4045C80.7387 91.1661 80.7387 90.9145 80.7387 90.6761C80.7387 90.4377 80.7387 90.1993 80.7387 90.0271C79.7064 89.5768 78.7536 89.1397 77.7875 88.7424C77.6551 88.6894 77.4037 88.7424 77.2714 88.8351C76.9405 89.1 76.6758 89.4443 76.345 89.7225C75.895 90.1066 75.3921 90.1331 74.9686 89.7225C73.8173 88.5967 72.6791 87.4709 71.5675 86.3187C71.1572 85.8948 71.1307 85.2591 71.6204 84.9148C72.7056 84.1598 72.6791 83.3652 72.0174 82.3586C71.7527 81.948 71.6866 81.405 71.4616 80.9414C71.3822 80.7693 71.1572 80.6103 70.9719 80.5706C70.6146 80.5176 70.2441 80.5706 69.8735 80.5441C69.1192 80.5176 68.7618 80.1468 68.7618 79.3918C68.7618 77.882 68.7618 76.3854 68.7618 74.8755C68.7618 74.1338 69.1324 73.7762 69.9 73.7497C70.3896 73.7365 70.9719 73.8689 71.316 73.6438C71.6204 73.4319 71.6469 72.8094 71.8189 72.3856C71.991 71.975 72.1233 71.5379 72.3747 71.1671C72.7321 70.6505 72.6262 70.3062 72.163 69.9618C71.9645 69.8161 71.8057 69.6307 71.6469 69.4453C71.1704 68.9155 71.1572 68.3858 71.6469 67.8825C72.7188 66.7964 73.7908 65.7104 74.876 64.6508C75.3921 64.1475 75.895 64.1608 76.4244 64.6508C76.5964 64.823 76.7817 64.9952 76.9405 65.1674C77.0993 65.3528 77.2581 65.5382 77.3508 65.6574C78.4492 65.2336 79.455 64.8495 80.4343 64.4389C80.5667 64.3859 80.6858 64.1475 80.699 63.9886C80.7387 63.6045 80.699 63.2204 80.7122 62.8363C80.7387 62.1476 81.1093 61.79 81.7842 61.79C83.3326 61.79 84.8677 61.79 86.4161 61.79C87.0911 61.79 87.5807 62.1741 87.4749 62.8363C87.2764 64.0946 87.7925 64.6508 88.9703 64.9025C89.5658 65.0217 90.1085 65.4058 90.7834 65.7236C91.0878 65.3925 91.4319 65.0217 91.7892 64.6641C92.3053 64.1608 92.8214 64.1475 93.3376 64.6641C94.4228 65.7369 95.508 66.8097 96.5667 67.8957C97.0564 68.399 97.1225 69.0215 96.5667 69.4321C95.5609 70.1605 95.5212 70.9154 96.1697 71.8955C96.4476 72.3061 96.5799 72.8226 96.699 73.3127C96.7917 73.6835 96.977 73.8027 97.3343 73.763C97.6784 73.7365 98.0224 73.7497 98.3665 73.763C99.0547 73.7895 99.4385 74.1471 99.4385 74.8225C99.4385 76.3721 99.4385 77.9085 99.4385 79.4581C99.4385 80.1335 99.0547 80.6236 98.393 80.5176C97.0828 80.3057 96.5402 80.8885 96.302 82.0672C96.2226 82.491 95.9844 82.9149 95.7462 83.2725C95.4815 83.6698 95.5874 83.9082 95.905 84.1863C97.3343 85.471 97.2019 85.8154 95.9182 87.0471C95.058 87.855 94.2507 88.7159 93.417 89.5371C92.7817 90.1595 92.3185 90.1595 91.6833 89.5371C90.7172 88.61 90.7172 88.6232 89.4997 89.153C88.8512 89.4311 88.1895 89.6695 87.4749 89.9344L87.5278 89.9609ZM73.6717 68.7433C73.9628 69.0082 74.254 69.2731 74.5187 69.538C75.048 70.081 75.101 70.4121 74.7039 71.0479C73.9628 72.2134 73.4599 73.4584 73.1556 74.796C72.9967 75.4847 72.7188 75.6967 72.0042 75.7099C71.5939 75.7099 71.1704 75.7099 70.7602 75.7099V78.531C71.2234 78.531 71.6469 78.5177 72.0704 78.531C72.6394 78.5575 73.0232 78.8356 73.1423 79.4183C73.4335 80.809 73.9628 82.0937 74.7436 83.2725C75.0877 83.8022 75.0216 84.279 74.5716 84.6896C74.254 84.9677 73.9099 85.2194 73.6717 85.4048L75.7759 87.5372C76.0009 87.2988 76.2656 87.0074 76.5303 86.7425C77.0729 86.2127 77.4169 86.1597 78.0389 86.5703C79.1903 87.312 80.4476 87.8285 81.7842 88.1199C82.4327 88.2656 82.7106 88.6364 82.7106 89.2722C82.7106 89.6695 82.7106 90.0668 82.7106 90.4907H85.5427C85.5427 90.0139 85.5427 89.59 85.5427 89.1662C85.5559 88.61 85.8338 88.2524 86.3897 88.1332C87.7925 87.8285 89.1026 87.2988 90.2937 86.5041C90.7966 86.173 91.2598 86.2524 91.6568 86.6763C91.948 86.9941 92.1994 87.3385 92.5568 87.7756C92.9935 87.2723 93.2714 86.9279 93.589 86.61C93.9066 86.2789 94.2639 85.9876 94.7404 85.5505C94.3566 85.2326 94.0654 85.034 93.8008 84.7691C93.1788 84.1598 93.2317 83.8949 93.6022 83.1003C94.1581 81.9215 94.6477 80.6898 95.0977 79.4581C95.3492 78.7826 95.5874 78.5177 96.302 78.4912C96.699 78.4912 97.0961 78.4912 97.4931 78.4912V75.6702C97.0166 75.6702 96.5932 75.6702 96.1697 75.6702C95.6006 75.6702 95.2433 75.3788 95.1374 74.8358C94.8463 73.4319 94.3037 72.1207 93.5228 70.9287C93.192 70.4254 93.2714 69.9618 93.6949 69.5645C93.9993 69.2731 94.3434 69.0215 94.6345 68.7566L92.5171 66.6507C92.2656 66.9156 91.9877 67.2335 91.6965 67.5381C91.273 67.9752 90.7966 68.0282 90.2673 67.697C89.0762 66.9289 87.7925 66.3991 86.4161 66.1077C85.8735 66.0018 85.5691 65.6442 85.5559 65.0747C85.5559 64.6376 85.5559 64.1873 85.5559 63.737H82.7106C82.7106 64.227 82.7106 64.6641 82.7106 65.1144C82.6973 65.6309 82.4327 65.9753 81.943 66.0812C80.5005 66.3858 79.1638 66.9554 77.9198 67.75C77.4699 68.0414 77.0199 67.9752 76.6494 67.6043C76.3317 67.2865 76.0538 66.9421 75.7627 66.6242L73.6849 68.7036L73.6717 68.7433Z" fill="#A53691"/>
<path d="M102.734 87.6698C103.237 87.5373 103.66 87.4181 104.097 87.3254C104.785 87.1797 105.288 87.4579 105.434 88.0406C105.566 88.5704 105.222 89.0604 104.573 89.2326C103.356 89.5637 102.152 89.8816 100.934 90.1862C100.074 90.3981 99.6106 90.1068 99.4782 89.2194C99.293 87.9347 99.1474 86.6367 99.0018 85.352C98.9356 84.703 99.2665 84.2925 99.8356 84.213C100.405 84.1335 100.868 84.5176 100.96 85.1533C101.013 85.5109 101.053 85.8818 101.119 86.4116C101.291 86.1069 101.397 85.9348 101.477 85.7493C106.466 75.7498 101.821 63.4458 91.4716 59.2208C91.3525 59.1811 91.2466 59.1413 91.1275 59.0884C90.4923 58.8102 90.2408 58.3334 90.4393 57.7904C90.6643 57.2077 91.1804 56.9825 91.8421 57.2606C92.7156 57.6315 93.6023 58.0023 94.436 58.4659C100.537 61.9756 104.19 67.2072 105.248 74.187C105.936 78.7563 105.116 83.074 102.985 87.1665C102.919 87.2989 102.853 87.4446 102.76 87.6565L102.734 87.6698Z" fill="#A53691"/>
<path d="M65.7312 88.0141C65.5857 88.5306 65.4666 88.9809 65.3342 89.418C65.1489 90.014 64.6461 90.3186 64.1299 90.1729C63.5873 90.0272 63.2697 89.5372 63.4285 88.9412C63.7726 87.6035 64.1299 86.2791 64.5269 84.9546C64.699 84.3586 65.2548 84.0937 65.8371 84.3189C67.1208 84.8354 68.3781 85.3784 69.6485 85.9347C70.2044 86.1863 70.4029 86.7426 70.1779 87.2459C69.9662 87.7095 69.4368 87.9081 68.881 87.7227C68.6825 87.6565 68.5104 87.5638 68.3119 87.4975C68.1266 87.4313 67.9546 87.3519 67.637 87.2327C68.5501 88.7425 69.5691 90.0007 70.747 91.1C74.9819 95.0601 80.0109 96.8481 85.7809 96.411C89.5791 96.1197 92.9935 94.7422 96.0109 92.4112C96.1035 92.3318 96.1962 92.2523 96.302 92.1861C96.8446 91.802 97.4005 91.8417 97.7578 92.292C98.1019 92.7291 98.0225 93.3118 97.5063 93.7357C95.2698 95.5501 92.7685 96.8746 89.9894 97.6295C80.6329 100.199 71.2631 96.57 66.0092 88.3849C65.9298 88.2657 65.8504 88.1598 65.7312 87.9876V88.0141Z" fill="#A53691"/>
<path d="M83.9546 55.6449C83.6105 55.3403 83.2399 55.0621 82.9356 54.731C82.4724 54.241 82.4724 53.6847 82.9091 53.2741C83.3193 52.89 83.862 52.9033 84.3251 53.3536C85.278 54.294 86.2309 55.2475 87.1572 56.2144C87.6204 56.6912 87.594 57.3004 87.0778 57.711C85.9926 58.5719 84.8942 59.393 83.7693 60.2142C83.2797 60.5718 82.6973 60.4394 82.3797 59.989C82.0753 59.552 82.1548 59.0354 82.618 58.6381C82.9223 58.3732 83.2399 58.1481 83.6634 57.817C81.6386 57.8567 79.8123 58.1481 78.0522 58.7838C70.7866 61.4459 66.4194 66.598 65.0033 74.2135C64.646 76.1869 64.7254 78.1736 64.9901 80.1735C65.1092 81.0741 64.3813 81.6834 63.6667 81.2993C63.3888 81.1536 63.1109 80.7695 63.0712 80.4649C62.0654 72.8891 64.3284 66.4656 69.9397 61.2737C73.1953 58.2673 77.0993 56.572 81.493 55.976C81.8901 55.923 82.3003 55.8833 82.7106 55.8568C83.0811 55.8435 83.4649 55.8568 83.8487 55.8568L83.9678 55.6449H83.9546Z" fill="#A53691"/>
<path d="M92.5832 77.1272C92.6096 81.7892 88.8379 85.5903 84.1663 85.6036C79.4814 85.6168 75.7097 81.8952 75.67 77.2066C75.6303 72.5314 79.4417 68.6772 84.1133 68.6772C88.7717 68.6772 92.5567 72.4651 92.5699 77.1404L92.5832 77.1272ZM84.1266 70.6772C80.5401 70.6772 77.6683 73.5512 77.6551 77.1272C77.6551 80.7297 80.5534 83.6434 84.1398 83.6434C87.6998 83.6434 90.6113 80.7297 90.6113 77.1669C90.6113 73.5512 87.7395 70.6639 84.1266 70.6639V70.6772Z" fill="#A53691"/>
</svg>
