<svg width="519" height="354" viewBox="0 0 519 354" fill="none" xmlns="http://www.w3.org/2000/svg">
<path d="M509.663 0.832642H9.64011C7.30043 0.837065 5.05809 1.76971 3.40513 3.4259C1.75216 5.08208 0.823592 7.32652 0.823242 9.66669V344.381C0.826599 346.719 1.75661 348.96 3.40937 350.613C5.06212 352.266 7.30277 353.196 9.64011 353.199H509.663C512.001 353.196 514.241 352.266 515.894 350.613C517.547 348.96 518.477 346.719 518.48 344.381V9.66736C518.48 7.32795 517.552 5.08411 515.9 3.42802C514.248 1.77192 512.007 0.838788 509.668 0.833304L509.663 0.832642Z" fill="white"/>
<path d="M377.203 140.86H377.2C376.639 140.86 376.186 140.705 376.188 140.515L376.696 87.9058C376.696 87.7161 377.152 87.5631 377.712 87.5631H377.715C378.276 87.5631 378.729 87.7181 378.727 87.9078L378.219 140.519C378.217 140.706 377.763 140.86 377.203 140.86Z" fill="#D6D6E3"/>
<path d="M247.193 263.652H247.19C246.629 263.652 246.176 263.451 246.178 263.206L246.685 197.022C246.685 196.777 247.142 196.579 247.701 196.579H247.705C248.266 196.579 248.719 196.779 248.717 197.024L248.209 263.208C248.207 263.454 247.753 263.652 247.193 263.652Z" fill="#D6D6E3"/>
<path d="M150.702 169.305H150.699C150.138 169.305 149.685 169.171 149.686 169.01L150.194 124.617C150.194 124.455 150.65 124.324 151.21 124.324H151.213C151.774 124.324 152.227 124.457 152.225 124.619L151.717 169.012C151.716 169.174 151.262 169.305 150.702 169.305Z" fill="#D6D6E3"/>
<path d="M108.763 210.144C110.719 199.582 122.723 194.711 132.455 195.538C146.358 196.72 157.961 205.876 170.901 210.192C177.154 212.277 183.882 213.422 190.434 212.222C195.6 211.158 200.39 208.739 204.313 205.214C211.837 198.782 216.923 190.011 224.452 183.586C228.479 179.959 233.571 177.735 238.968 177.246C245.611 176.805 252.117 179.057 257.937 182.075C269.505 188.071 278.978 197.612 291.297 202.24C296.955 204.422 303.091 205.056 309.075 204.077C315.048 202.887 320.727 200.529 325.786 197.14C336.395 190.436 345.138 181.134 356.293 175.255C361.778 172.364 367.872 170.153 374.138 170.111C380.193 170.119 386.014 172.45 390.402 176.624C398.85 184.307 405.511 196.43 418.414 196.643C421.104 196.693 423.753 195.966 426.041 194.549C427.705 193.52 426.174 190.882 424.505 191.918C419.245 195.17 412.911 193.12 408.118 189.963C403.013 186.603 399.389 181.467 395.222 177.092C391.081 172.746 386.253 169.084 380.299 167.728C374.351 166.553 368.191 167.067 362.52 169.214C350.332 173.462 341.106 182.204 330.993 189.811C321.024 197.308 309.384 203.793 296.522 200.671C283.715 197.563 273.999 187.862 262.924 181.351C252.216 175.057 239.091 171.037 227.561 177.661C218.849 182.665 213.34 191.503 206.649 198.705C203.347 202.258 199.665 205.56 195.205 207.578C189.008 210.384 182.003 210.055 175.548 208.393C162.082 204.926 150.724 195.857 137.012 193.144C126.834 191.131 114.788 193.668 108.575 202.667C107.201 204.673 106.266 206.946 105.829 209.338C105.474 211.255 108.41 212.077 108.768 210.148L108.763 210.144Z" fill="#3F3D56"/>
<path d="M151.21 216.799C158.502 216.799 164.414 210.886 164.414 203.592C164.414 196.298 158.502 190.386 151.21 190.386C143.917 190.386 138.006 196.298 138.006 203.592C138.006 210.886 143.917 216.799 151.21 216.799Z" fill="#502D52"/>
<path d="M246.178 188.861C253.47 188.861 259.382 182.948 259.382 175.654C259.382 168.361 253.47 162.448 246.178 162.448C238.886 162.448 232.974 168.361 232.974 175.654C232.974 182.948 238.886 188.861 246.178 188.861Z" fill="#502D52"/>
<path d="M376.187 179.718C383.48 179.718 389.391 173.805 389.391 166.511C389.391 159.217 383.48 153.304 376.187 153.304C368.895 153.304 362.983 159.217 362.983 166.511C362.983 173.805 368.895 179.718 376.187 179.718Z" fill="#502D52"/>
<path d="M165.135 110.721H136.173C135.202 110.723 134.242 110.508 133.364 110.093C132.486 109.678 131.711 109.072 131.097 108.32C130.467 107.551 130.016 106.651 129.777 105.687C129.538 104.722 129.517 103.716 129.716 102.742C132.042 91.1616 132.042 79.234 129.716 67.6536C129.517 66.6796 129.538 65.6735 129.777 64.7086C130.016 63.7436 130.467 62.844 131.097 62.0751C131.698 61.3388 132.454 60.7427 133.309 60.3284C134.165 59.914 135.101 59.6914 136.052 59.676C144.857 55.3629 154.675 55.3629 165.236 59.676C166.812 59.7008 168.327 60.2873 169.508 61.33C170.689 62.3727 171.46 63.803 171.68 65.3634C173.469 78.5256 173.469 91.8693 171.68 105.031C171.457 106.609 170.673 108.054 169.47 109.099C168.268 110.144 166.728 110.72 165.135 110.721Z" fill="#E6E6E6"/>
<path d="M393.856 80.0057H364.893C363.3 80.0045 361.761 79.4284 360.559 78.3834C359.356 77.3384 358.571 75.8945 358.348 74.317C356.559 61.1546 356.559 47.8107 358.348 34.6483C358.569 33.0896 359.338 31.6607 360.517 30.6182C361.697 29.5757 363.209 28.9879 364.783 28.9602C373.895 24.8749 383.708 24.8756 393.956 28.9602C394.91 28.9729 395.85 29.1944 396.71 29.6091C397.569 30.0237 398.328 30.6216 398.932 31.3606C399.562 32.1295 400.012 33.029 400.251 33.9938C400.49 34.9586 400.511 35.9645 400.313 36.9385C397.986 48.5188 397.986 60.4465 400.313 72.0268C400.511 73.0008 400.49 74.0067 400.251 74.9715C400.012 75.9363 399.562 76.8358 398.932 77.6047C398.317 78.3569 397.543 78.9627 396.665 79.378C395.786 79.7933 394.827 80.0078 393.856 80.0057Z" fill="#502D52"/>
<path d="M390.822 44.0862H366.443C366.038 44.0862 365.651 43.9257 365.365 43.6399C365.079 43.3541 364.919 42.9665 364.919 42.5623C364.919 42.1582 365.079 41.7706 365.365 41.4848C365.651 41.199 366.038 41.0385 366.443 41.0385H390.822C391.227 41.0385 391.614 41.199 391.9 41.4848C392.186 41.7706 392.346 42.1582 392.346 42.5623C392.346 42.9665 392.186 43.3541 391.9 43.6399C391.614 43.9257 391.227 44.0862 390.822 44.0862Z" fill="white"/>
<path d="M390.822 56.2774H366.443C366.038 56.2774 365.651 56.1169 365.365 55.8311C365.079 55.5453 364.919 55.1577 364.919 54.7535C364.919 54.3493 365.079 53.9617 365.365 53.6759C365.651 53.3902 366.038 53.2296 366.443 53.2296H390.822C391.227 53.2296 391.614 53.3902 391.9 53.6759C392.186 53.9617 392.346 54.3493 392.346 54.7535C392.346 55.1577 392.186 55.5453 391.9 55.8311C391.614 56.1169 391.227 56.2774 390.822 56.2774Z" fill="white"/>
<path d="M390.822 68.4687H366.443C366.038 68.4687 365.651 68.3081 365.365 68.0223C365.079 67.7366 364.919 67.349 364.919 66.9448C364.919 66.5406 365.079 66.153 365.365 65.8672C365.651 65.5814 366.038 65.4209 366.443 65.4209H390.822C391.227 65.4209 391.614 65.5814 391.9 65.8672C392.186 66.153 392.346 66.5406 392.346 66.9448C392.346 67.349 392.186 67.7366 391.9 68.0223C391.614 68.3081 391.227 68.4687 390.822 68.4687Z" fill="white"/>
<path d="M165.578 72.8011H141.198C140.794 72.8011 140.407 72.6405 140.121 72.3547C139.835 72.069 139.675 71.6813 139.675 71.2772C139.675 70.873 139.835 70.4854 140.121 70.1996C140.407 69.9138 140.794 69.7533 141.198 69.7533H165.578C165.982 69.7533 166.37 69.9138 166.656 70.1996C166.941 70.4854 167.102 70.873 167.102 71.2772C167.102 71.6813 166.941 72.069 166.656 72.3547C166.37 72.6405 165.982 72.8011 165.578 72.8011Z" fill="white"/>
<path d="M165.578 84.9916H141.198C140.794 84.9916 140.407 84.8311 140.121 84.5453C139.835 84.2595 139.675 83.8719 139.675 83.4677C139.675 83.0636 139.835 82.676 140.121 82.3902C140.407 82.1044 140.794 81.9438 141.198 81.9438H165.578C165.982 81.9438 166.37 82.1044 166.656 82.3902C166.941 82.676 167.102 83.0636 167.102 83.4677C167.102 83.8719 166.941 84.2595 166.656 84.5453C166.37 84.8311 165.982 84.9916 165.578 84.9916Z" fill="white"/>
<path d="M165.578 97.1828H141.198C140.794 97.1828 140.407 97.0222 140.121 96.7365C139.835 96.4507 139.675 96.0631 139.675 95.6589C139.675 95.2547 139.835 94.8671 140.121 94.5813C140.407 94.2956 140.794 94.135 141.198 94.135H165.578C165.982 94.135 166.37 94.2956 166.656 94.5813C166.941 94.8671 167.102 95.2547 167.102 95.6589C167.102 96.0631 166.941 96.4507 166.656 96.7365C166.37 97.0222 165.982 97.1828 165.578 97.1828Z" fill="white"/>
<path d="M262.923 328.43H233.961C232.368 328.428 230.829 327.852 229.627 326.807C228.424 325.762 227.639 324.318 227.416 322.741C225.627 309.579 225.627 296.235 227.416 283.073C227.636 281.518 228.402 280.092 229.576 279.05C230.751 278.007 232.258 277.417 233.828 277.384C243.258 272.319 253.087 272.317 263.045 277.384C263.995 277.4 264.93 277.623 265.785 278.037C266.641 278.452 267.395 279.048 267.996 279.784C268.626 280.553 269.077 281.452 269.316 282.417C269.555 283.382 269.576 284.388 269.377 285.362C267.051 296.942 267.051 308.87 269.377 320.451C269.576 321.425 269.555 322.431 269.316 323.396C269.077 324.361 268.626 325.26 267.996 326.029C267.382 326.781 266.608 327.386 265.731 327.801C264.853 328.217 263.894 328.431 262.923 328.43Z" fill="#502D52"/>
<path d="M261.054 289.743H236.674C236.27 289.743 235.882 289.583 235.597 289.297C235.311 289.011 235.15 288.624 235.15 288.22C235.15 287.815 235.311 287.428 235.597 287.142C235.882 286.856 236.27 286.696 236.674 286.696H261.054C261.458 286.696 261.846 286.856 262.131 287.142C262.417 287.428 262.578 287.815 262.578 288.22C262.578 288.624 262.417 289.011 262.131 289.297C261.846 289.583 261.458 289.743 261.054 289.743Z" fill="white"/>
<path d="M261.054 301.935H236.674C236.27 301.935 235.882 301.774 235.597 301.488C235.311 301.203 235.15 300.815 235.15 300.411C235.15 300.007 235.311 299.619 235.597 299.333C235.882 299.047 236.27 298.887 236.674 298.887H261.054C261.458 298.887 261.846 299.047 262.131 299.333C262.417 299.619 262.578 300.007 262.578 300.411C262.578 300.815 262.417 301.203 262.131 301.488C261.846 301.774 261.458 301.935 261.054 301.935Z" fill="white"/>
<path d="M261.054 314.125H236.674C236.27 314.125 235.882 313.965 235.597 313.679C235.311 313.393 235.15 313.005 235.15 312.601C235.15 312.197 235.311 311.81 235.597 311.524C235.882 311.238 236.27 311.077 236.674 311.077H261.054C261.458 311.077 261.846 311.238 262.131 311.524C262.417 311.81 262.578 312.197 262.578 312.601C262.578 313.005 262.417 313.393 262.131 313.679C261.846 313.965 261.458 314.125 261.054 314.125Z" fill="white"/>
<path d="M463.927 215.48L472.009 219.31C468.692 214.681 465.835 207.452 464.305 201.7C461.715 207.058 457.54 213.615 453.406 217.533L461.951 215.335C456.686 241.146 436.882 259.676 414.202 259.676V261.641C437.894 261.639 458.55 242.332 463.927 215.48Z" fill="#3F3D56"/>
<path d="M438.737 183.5H489.822C491.989 183.5 493.752 186.417 493.752 190.003C493.752 193.588 491.989 196.506 489.822 196.506H438.737C436.57 196.506 434.808 193.588 434.808 190.003C434.808 186.417 436.57 183.5 438.737 183.5Z" fill="#502D52"/>
<path d="M417.846 285.133L394.819 305.611C393.393 306.876 391.523 307.525 389.619 307.413C387.716 307.302 385.934 306.439 384.666 305.015C375.096 297.413 367.245 288.848 361.581 279.049C360.316 277.623 359.667 275.752 359.779 273.848C359.891 271.945 360.753 270.163 362.176 268.894L385.201 248.416C386.627 247.15 388.497 246.502 390.4 246.613C392.304 246.725 394.085 247.587 395.354 249.011L418.439 274.978C419.704 276.404 420.352 278.274 420.241 280.178C420.129 282.082 419.267 283.864 417.843 285.133H417.846Z" fill="white"/>
<path d="M417.846 285.133L394.819 305.611C393.393 306.876 391.523 307.525 389.619 307.413C387.716 307.302 385.934 306.439 384.666 305.015C373.748 298.329 365.567 289.971 361.581 279.049C360.316 277.623 359.667 275.752 359.779 273.848C359.891 271.945 360.753 270.163 362.176 268.894L385.201 248.416C386.627 247.15 388.497 246.502 390.4 246.613C392.304 246.725 394.085 247.587 395.354 249.011L418.439 274.978C419.704 276.404 420.352 278.274 420.241 280.178C420.129 282.082 419.267 283.864 417.843 285.133H417.846ZM362.834 269.633C361.605 270.728 360.86 272.266 360.764 273.91C360.667 275.553 361.227 277.168 362.32 278.399C367.426 288.76 375.299 297.298 385.405 304.365C386.499 305.595 388.037 306.34 389.681 306.436C391.324 306.532 392.938 305.972 394.169 304.879L417.195 284.398C418.424 283.303 419.169 281.765 419.265 280.122C419.361 278.478 418.802 276.863 417.709 275.632L394.624 249.666C393.529 248.436 391.991 247.691 390.348 247.595C388.705 247.499 387.09 248.058 385.86 249.152L362.834 269.633Z" fill="#3F3D56"/>
<path d="M396.915 266.276L377.945 283.149C377.754 283.324 377.53 283.46 377.287 283.548C377.043 283.636 376.784 283.674 376.525 283.661C376.266 283.648 376.013 283.584 375.779 283.471C375.546 283.359 375.337 283.202 375.164 283.008C374.992 282.814 374.86 282.588 374.776 282.343C374.692 282.098 374.658 281.838 374.675 281.58C374.693 281.321 374.761 281.069 374.877 280.837C374.993 280.605 375.154 280.398 375.35 280.229L394.32 263.356C394.511 263.181 394.734 263.045 394.978 262.957C395.222 262.869 395.481 262.831 395.74 262.844C395.998 262.857 396.252 262.922 396.486 263.034C396.719 263.146 396.928 263.303 397.101 263.497C397.273 263.691 397.405 263.917 397.489 264.162C397.573 264.407 397.607 264.667 397.59 264.925C397.572 265.184 397.504 265.437 397.388 265.668C397.272 265.9 397.111 266.107 396.915 266.276Z" fill="#502D52"/>
<path d="M404.098 274.352L385.128 291.225C384.937 291.397 384.713 291.53 384.47 291.615C384.228 291.701 383.97 291.737 383.713 291.723C383.456 291.709 383.204 291.644 382.973 291.532C382.741 291.42 382.533 291.263 382.362 291.071C382.191 290.878 382.06 290.654 381.976 290.411C381.892 290.167 381.857 289.91 381.872 289.653C381.888 289.396 381.955 289.144 382.068 288.913C382.181 288.682 382.339 288.475 382.533 288.305L401.502 271.432C401.693 271.257 401.917 271.121 402.161 271.033C402.404 270.945 402.663 270.907 402.922 270.92C403.181 270.933 403.435 270.997 403.668 271.11C403.902 271.222 404.111 271.379 404.283 271.573C404.455 271.767 404.587 271.993 404.671 272.238C404.755 272.483 404.789 272.743 404.772 273.001C404.755 273.26 404.686 273.512 404.57 273.744C404.454 273.976 404.294 274.183 404.097 274.352H404.098Z" fill="#502D52"/>
<path d="M389.734 258.197L370.764 275.071C370.573 275.246 370.349 275.381 370.105 275.469C369.862 275.557 369.603 275.596 369.344 275.583C369.085 275.57 368.832 275.505 368.598 275.393C368.364 275.281 368.155 275.123 367.983 274.93C367.811 274.736 367.679 274.51 367.595 274.265C367.511 274.02 367.477 273.76 367.494 273.501C367.511 273.243 367.58 272.99 367.696 272.758C367.812 272.527 367.973 272.32 368.169 272.151L387.139 255.278C387.329 255.103 387.553 254.967 387.797 254.879C388.041 254.791 388.3 254.753 388.558 254.766C388.817 254.779 389.071 254.843 389.305 254.955C389.538 255.068 389.747 255.225 389.919 255.419C390.092 255.612 390.223 255.838 390.307 256.084C390.391 256.329 390.426 256.588 390.408 256.847C390.391 257.106 390.323 257.358 390.207 257.59C390.091 257.822 389.93 258.028 389.734 258.197Z" fill="#502D52"/>
<path d="M79.2377 188.164L83.8499 185.189C81.9583 188.784 80.3278 194.4 79.4555 198.869C77.978 194.706 75.5961 189.613 73.2383 186.57L78.1143 188.278C75.1085 168.228 63.8129 153.833 50.8755 153.833V152.307C64.388 152.307 76.1712 167.304 79.2377 188.164Z" fill="#3F3D56"/>
<path d="M38.5531 224.418H89.6381C91.8049 224.418 93.5676 221.594 93.5676 218.123C93.5676 214.652 91.8049 211.828 89.6381 211.828H38.5531C36.3862 211.828 34.6235 214.652 34.6235 218.123C34.6235 221.594 36.3849 224.418 38.5531 224.418Z" fill="#502D52"/>
<path d="M35.163 144.788H65.974C67.8803 144.786 69.708 144.027 71.056 142.679C72.404 141.331 73.1623 139.502 73.1644 137.596V102.849C73.1623 100.942 72.404 99.114 71.056 97.7657C69.708 96.4174 67.8803 95.659 65.974 95.6569H35.163C33.257 95.6595 31.4298 96.4181 30.0823 97.7664C28.7347 99.1146 27.9767 100.942 27.9746 102.849V137.596C27.9769 139.503 28.735 141.33 30.0825 142.678C31.4301 144.026 33.2571 144.785 35.163 144.788Z" fill="white"/>
<path d="M35.1631 144.788H65.9741C67.8803 144.785 69.7078 144.027 71.0557 142.679C72.4035 141.33 73.1617 139.502 73.1638 137.596V102.849C73.1617 100.942 72.4035 99.114 71.0555 97.7657C69.7074 96.4174 67.8798 95.659 65.9734 95.6569H35.1631C33.257 95.6592 31.4296 96.4175 30.0818 97.7657C28.7339 99.1138 27.9757 100.942 27.9734 102.848C24.5208 113.781 24.8714 125.429 27.9734 137.596C27.9755 139.502 28.7337 141.33 30.0815 142.679C31.4294 144.027 33.2569 144.785 35.1631 144.788ZM65.9741 96.6396C67.6202 96.6407 69.1985 97.2952 70.3625 98.4594C71.5265 99.6236 72.1809 101.202 72.1819 102.849V137.596C72.1809 139.243 71.5265 140.822 70.3625 141.986C69.1985 143.15 67.6202 143.805 65.9741 143.806H35.1631C33.517 143.805 31.9386 143.15 30.7747 141.986C29.6107 140.822 28.9563 139.243 28.9553 137.596V102.849C28.9563 101.202 29.6107 99.6236 30.7747 98.4594C31.9386 97.2952 33.517 96.6407 35.1631 96.6396H65.9741Z" fill="#3F3D56"/>
<path d="M38.2739 116.783H63.6604C64.172 116.773 64.6595 116.564 65.018 116.198C65.3765 115.833 65.5774 115.342 65.5774 114.83C65.5774 114.318 65.3765 113.827 65.018 113.461C64.6595 113.096 64.172 112.886 63.6604 112.877H38.2739C38.0144 112.872 37.7565 112.919 37.5154 113.015C37.2743 113.111 37.0547 113.254 36.8695 113.436C36.6843 113.618 36.5372 113.835 36.4368 114.074C36.3364 114.313 36.2847 114.57 36.2847 114.83C36.2847 115.089 36.3364 115.346 36.4368 115.586C36.5372 115.825 36.6843 116.042 36.8695 116.224C37.0547 116.406 37.2743 116.549 37.5154 116.645C37.7565 116.741 38.0144 116.788 38.2739 116.783Z" fill="#F2F2F2"/>
<path d="M38.2739 127.592H63.6604C64.172 127.582 64.6595 127.373 65.018 127.007C65.3765 126.642 65.5774 126.151 65.5774 125.639C65.5774 125.127 65.3765 124.636 65.018 124.27C64.6595 123.905 64.172 123.695 63.6604 123.686H38.2739C38.0144 123.681 37.7565 123.728 37.5154 123.824C37.2743 123.92 37.0547 124.063 36.8695 124.245C36.6843 124.427 36.5372 124.644 36.4368 124.883C36.3364 125.122 36.2847 125.379 36.2847 125.639C36.2847 125.898 36.3364 126.155 36.4368 126.395C36.5372 126.634 36.6843 126.851 36.8695 127.033C37.0547 127.215 37.2743 127.358 37.5154 127.454C37.7565 127.55 38.0144 127.597 38.2739 127.592Z" fill="#F2F2F2"/>
</svg>
